G75*
%MOIN*%
%OFA0B0*%
%FSLAX25Y25*%
%IPPOS*%
%LPD*%
%AMOC8*
5,1,8,0,0,1.08239X$1,22.5*
%
%ADD10C,0.00000*%
%ADD11R,0.05410X0.00541*%
%ADD12R,0.10810X0.00541*%
%ADD13R,0.14050X0.00540*%
%ADD14R,0.15670X0.00541*%
%ADD15R,0.17840X0.00540*%
%ADD16R,0.19460X0.00541*%
%ADD17R,0.21080X0.00540*%
%ADD18R,0.22160X0.00541*%
%ADD19R,0.23240X0.00540*%
%ADD20R,0.24320X0.00541*%
%ADD21R,0.25950X0.00540*%
%ADD22R,0.03250X0.00540*%
%ADD23R,0.26490X0.00541*%
%ADD24R,0.03250X0.00541*%
%ADD25R,0.03240X0.00541*%
%ADD26R,0.02700X0.00541*%
%ADD27R,0.03240X0.00541*%
%ADD28R,0.04330X0.00541*%
%ADD29R,0.07030X0.00541*%
%ADD30R,0.11900X0.00540*%
%ADD31R,0.13510X0.00540*%
%ADD32R,0.07570X0.00540*%
%ADD33R,0.07030X0.00540*%
%ADD34R,0.07560X0.00540*%
%ADD35R,0.07030X0.00540*%
%ADD36R,0.07560X0.00540*%
%ADD37R,0.10810X0.00540*%
%ADD38R,0.10270X0.00540*%
%ADD39R,0.09730X0.00541*%
%ADD40R,0.11890X0.00541*%
%ADD41R,0.10270X0.00541*%
%ADD42R,0.10270X0.00541*%
%ADD43R,0.09730X0.00541*%
%ADD44R,0.15130X0.00541*%
%ADD45R,0.12970X0.00541*%
%ADD46R,0.08650X0.00541*%
%ADD47R,0.09190X0.00541*%
%ADD48R,0.11350X0.00541*%
%ADD49R,0.11890X0.00541*%
%ADD50R,0.11900X0.00541*%
%ADD51R,0.17300X0.00541*%
%ADD52R,0.14590X0.00541*%
%ADD53R,0.08650X0.00541*%
%ADD54R,0.11890X0.00541*%
%ADD55R,0.08650X0.00540*%
%ADD56R,0.10270X0.00540*%
%ADD57R,0.12970X0.00540*%
%ADD58R,0.12970X0.00540*%
%ADD59R,0.12980X0.00540*%
%ADD60R,0.12430X0.00540*%
%ADD61R,0.18920X0.00540*%
%ADD62R,0.15670X0.00540*%
%ADD63R,0.08110X0.00541*%
%ADD64R,0.14590X0.00541*%
%ADD65R,0.14050X0.00541*%
%ADD66R,0.14600X0.00541*%
%ADD67R,0.14590X0.00541*%
%ADD68R,0.20540X0.00541*%
%ADD69R,0.16750X0.00541*%
%ADD70R,0.09730X0.00540*%
%ADD71R,0.15130X0.00540*%
%ADD72R,0.15680X0.00540*%
%ADD73R,0.15670X0.00540*%
%ADD74R,0.22700X0.00540*%
%ADD75R,0.18370X0.00540*%
%ADD76R,0.07570X0.00541*%
%ADD77R,0.09730X0.00541*%
%ADD78R,0.16210X0.00541*%
%ADD79R,0.16750X0.00541*%
%ADD80R,0.16760X0.00541*%
%ADD81R,0.16220X0.00541*%
%ADD82R,0.23780X0.00541*%
%ADD83R,0.18920X0.00541*%
%ADD84R,0.09190X0.00541*%
%ADD85R,0.07030X0.00540*%
%ADD86R,0.09730X0.00540*%
%ADD87R,0.17290X0.00540*%
%ADD88R,0.35130X0.00540*%
%ADD89R,0.17830X0.00540*%
%ADD90R,0.35130X0.00540*%
%ADD91R,0.25400X0.00540*%
%ADD92R,0.20000X0.00540*%
%ADD93R,0.08650X0.00540*%
%ADD94R,0.07030X0.00541*%
%ADD95R,0.18370X0.00541*%
%ADD96R,0.35670X0.00541*%
%ADD97R,0.36210X0.00541*%
%ADD98R,0.25940X0.00541*%
%ADD99R,0.20540X0.00541*%
%ADD100R,0.08640X0.00541*%
%ADD101R,0.17830X0.00541*%
%ADD102R,0.09190X0.00540*%
%ADD103R,0.16210X0.00540*%
%ADD104R,0.09180X0.00540*%
%ADD105R,0.09180X0.00540*%
%ADD106R,0.16750X0.00540*%
%ADD107R,0.13510X0.00540*%
%ADD108R,0.21620X0.00540*%
%ADD109R,0.08640X0.00540*%
%ADD110R,0.09190X0.00541*%
%ADD111R,0.08100X0.00541*%
%ADD112R,0.16210X0.00541*%
%ADD113R,0.08110X0.00541*%
%ADD114R,0.11350X0.00541*%
%ADD115R,0.09180X0.00541*%
%ADD116R,0.08640X0.00541*%
%ADD117R,0.08100X0.00540*%
%ADD118R,0.14590X0.00540*%
%ADD119R,0.09730X0.00540*%
%ADD120R,0.08110X0.00540*%
%ADD121R,0.08100X0.00541*%
%ADD122R,0.13510X0.00541*%
%ADD123R,0.07020X0.00541*%
%ADD124R,0.14050X0.00541*%
%ADD125R,0.07560X0.00541*%
%ADD126R,0.08110X0.00541*%
%ADD127R,0.07030X0.00541*%
%ADD128R,0.09190X0.00541*%
%ADD129R,0.13510X0.00541*%
%ADD130R,0.07020X0.00541*%
%ADD131R,0.12970X0.00541*%
%ADD132R,0.07030X0.00541*%
%ADD133R,0.10810X0.00540*%
%ADD134R,0.06480X0.00540*%
%ADD135R,0.25410X0.00540*%
%ADD136R,0.07570X0.00541*%
%ADD137R,0.12430X0.00541*%
%ADD138R,0.06490X0.00541*%
%ADD139R,0.08640X0.00541*%
%ADD140R,0.10810X0.00541*%
%ADD141R,0.25410X0.00541*%
%ADD142R,0.06490X0.00541*%
%ADD143R,0.11890X0.00540*%
%ADD144R,0.06490X0.00540*%
%ADD145R,0.11890X0.00540*%
%ADD146R,0.24870X0.00540*%
%ADD147R,0.06490X0.00541*%
%ADD148R,0.10270X0.00541*%
%ADD149R,0.06490X0.00541*%
%ADD150R,0.12970X0.00541*%
%ADD151R,0.25410X0.00541*%
%ADD152R,0.09190X0.00540*%
%ADD153R,0.11360X0.00540*%
%ADD154R,0.06490X0.00540*%
%ADD155R,0.11350X0.00540*%
%ADD156R,0.26490X0.00540*%
%ADD157R,0.11360X0.00541*%
%ADD158R,0.08110X0.00540*%
%ADD159R,0.10820X0.00540*%
%ADD160R,0.10820X0.00540*%
%ADD161R,0.16220X0.00540*%
%ADD162R,0.07020X0.00541*%
%ADD163R,0.09180X0.00541*%
%ADD164R,0.10270X0.00541*%
%ADD165R,0.06480X0.00541*%
%ADD166R,0.06480X0.00540*%
%ADD167R,0.10270X0.00540*%
%ADD168R,0.08640X0.00540*%
%ADD169R,0.06490X0.00540*%
%ADD170R,0.09180X0.00540*%
%ADD171R,0.08110X0.00540*%
%ADD172R,0.09730X0.00540*%
%ADD173R,0.11350X0.00540*%
%ADD174R,0.09190X0.00540*%
%ADD175R,0.05400X0.00541*%
%ADD176R,0.08640X0.00541*%
%ADD177R,0.06480X0.00541*%
%ADD178R,0.04320X0.00541*%
%ADD179R,0.05940X0.00541*%
%ADD180R,0.09180X0.00541*%
%ADD181R,0.05950X0.00541*%
%ADD182R,0.09730X0.00541*%
%ADD183R,0.05940X0.00541*%
%ADD184R,0.03240X0.00540*%
%ADD185R,0.09190X0.00540*%
%ADD186R,0.05940X0.00540*%
%ADD187R,0.05400X0.00540*%
%ADD188R,0.08110X0.00540*%
%ADD189R,0.11890X0.00540*%
%ADD190R,0.02160X0.00541*%
%ADD191R,0.08110X0.00541*%
%ADD192R,0.04320X0.00541*%
%ADD193R,0.01080X0.00540*%
%ADD194R,0.06480X0.00540*%
%ADD195R,0.03780X0.00540*%
%ADD196R,0.06480X0.00541*%
%ADD197R,0.02160X0.00541*%
%ADD198R,0.05940X0.00540*%
%ADD199R,0.01620X0.00540*%
%ADD200R,0.08640X0.00540*%
%ADD201R,0.01080X0.00540*%
%ADD202R,0.06480X0.00541*%
%ADD203R,0.05950X0.00540*%
%ADD204R,0.05950X0.00541*%
%ADD205R,0.04860X0.00541*%
%ADD206R,0.20540X0.00541*%
%ADD207R,0.21080X0.00540*%
%ADD208R,0.22700X0.00541*%
%ADD209R,0.05950X0.00540*%
%ADD210R,0.23780X0.00540*%
%ADD211R,0.25400X0.00541*%
%ADD212R,0.27560X0.00540*%
%ADD213R,0.28640X0.00541*%
%ADD214R,0.30820X0.00540*%
%ADD215R,0.31900X0.00541*%
%ADD216R,0.05940X0.00541*%
%ADD217R,0.15680X0.00541*%
%ADD218R,0.14060X0.00541*%
%ADD219R,0.16220X0.00540*%
%ADD220R,0.07570X0.00540*%
%ADD221R,0.00540X0.00541*%
%ADD222R,0.05940X0.00541*%
%ADD223R,0.17300X0.00541*%
%ADD224R,0.07570X0.00541*%
%ADD225R,0.10810X0.00541*%
%ADD226R,0.02160X0.00540*%
%ADD227R,0.17300X0.00540*%
%ADD228R,0.03240X0.00541*%
%ADD229R,0.04320X0.00540*%
%ADD230R,0.05400X0.00541*%
%ADD231R,0.09180X0.00541*%
%ADD232R,0.12430X0.00540*%
%ADD233R,0.14060X0.00540*%
%ADD234R,0.20540X0.00541*%
%ADD235R,0.12430X0.00541*%
%ADD236R,0.07570X0.00541*%
%ADD237R,0.15680X0.00541*%
%ADD238R,0.07030X0.00540*%
%ADD239R,0.10270X0.00540*%
%ADD240R,0.07570X0.00540*%
%ADD241R,0.25410X0.00540*%
%ADD242R,0.19460X0.00541*%
%ADD243R,0.19460X0.00541*%
%ADD244R,0.24870X0.00541*%
%ADD245R,0.18920X0.00541*%
%ADD246R,0.18380X0.00541*%
%ADD247R,0.08100X0.00540*%
%ADD248R,0.17840X0.00540*%
%ADD249R,0.20540X0.00540*%
%ADD250R,0.24330X0.00540*%
%ADD251R,0.23790X0.00541*%
%ADD252R,0.15680X0.00540*%
%ADD253R,0.07560X0.00541*%
%ADD254R,0.13520X0.00541*%
%ADD255R,0.07020X0.00540*%
%ADD256R,0.14060X0.00540*%
%ADD257R,0.13520X0.00540*%
%ADD258R,0.12440X0.00540*%
%ADD259R,0.15140X0.00541*%
%ADD260R,0.10820X0.00541*%
%ADD261R,0.13520X0.00540*%
%ADD262R,0.11360X0.00541*%
%ADD263R,0.05400X0.00540*%
%ADD264R,0.04860X0.00540*%
%ADD265R,0.03780X0.00541*%
%ADD266R,0.03780X0.00541*%
%ADD267R,0.04870X0.00541*%
%ADD268R,0.03780X0.00540*%
%ADD269R,0.02700X0.00541*%
%ADD270R,0.11360X0.00541*%
%ADD271R,0.01620X0.00541*%
%ADD272R,0.29730X0.00540*%
%ADD273R,0.30810X0.00541*%
%ADD274R,0.31890X0.00540*%
%ADD275R,0.41620X0.00541*%
%ADD276R,0.41620X0.00540*%
%ADD277R,0.40540X0.00541*%
%ADD278R,0.40000X0.00540*%
%ADD279R,0.05410X0.00540*%
%ADD280R,0.38380X0.00541*%
%ADD281R,0.10820X0.00541*%
%ADD282R,0.37300X0.00540*%
%ADD283R,0.04870X0.00540*%
%ADD284R,0.22170X0.00540*%
%ADD285R,0.35130X0.00541*%
%ADD286R,0.04330X0.00541*%
%ADD287R,0.21620X0.00541*%
%ADD288R,0.33510X0.00540*%
%ADD289R,0.03250X0.00540*%
%ADD290R,0.30810X0.00541*%
%ADD291R,0.01080X0.00541*%
%ADD292R,0.01080X0.00541*%
%ADD293R,0.20000X0.00541*%
%ADD294R,0.04870X0.00541*%
%ADD295R,0.15140X0.00540*%
%ADD296R,0.07020X0.00540*%
%ADD297R,0.03780X0.00540*%
%ADD298R,0.07570X0.00540*%
%ADD299R,0.18380X0.00540*%
%ADD300R,0.15680X0.00541*%
%ADD301R,0.03780X0.00541*%
%ADD302R,0.16210X0.00540*%
%ADD303R,0.04330X0.00541*%
%ADD304R,0.02160X0.00540*%
%ADD305R,0.04330X0.00540*%
%ADD306R,0.04330X0.00540*%
%ADD307R,0.04860X0.00540*%
%ADD308R,0.05410X0.00541*%
%ADD309R,0.04320X0.00541*%
%ADD310R,0.04320X0.00540*%
%ADD311R,0.03790X0.00540*%
%ADD312R,0.03790X0.00541*%
%ADD313R,0.03790X0.00540*%
%ADD314R,0.04860X0.00541*%
%ADD315R,0.03790X0.00541*%
%ADD316R,0.03790X0.00541*%
%ADD317R,0.04870X0.00541*%
%ADD318R,0.03790X0.00541*%
%ADD319R,0.03780X0.00541*%
%ADD320R,0.04330X0.00540*%
%ADD321R,0.04330X0.00540*%
%ADD322R,0.03790X0.00540*%
%ADD323R,0.04320X0.00540*%
%ADD324R,0.05940X0.00540*%
%ADD325R,0.04330X0.00541*%
%ADD326R,0.03240X0.00540*%
%ADD327R,0.02160X0.00541*%
%ADD328R,0.00540X0.00540*%
%ADD329R,0.03790X0.00540*%
%ADD330R,0.04320X0.00540*%
%ADD331R,0.01620X0.00541*%
%ADD332R,0.12980X0.00540*%
%ADD333R,0.04870X0.00540*%
%ADD334R,0.12440X0.00541*%
%ADD335R,0.10820X0.00541*%
%ADD336R,0.09720X0.00540*%
D10*
X0145551Y0018780D02*
X0263661Y0018780D01*
X0322716Y0195946D02*
X0323757Y0196615D01*
X0324814Y0197259D01*
X0325887Y0197877D01*
X0326974Y0198468D01*
X0328075Y0199033D01*
X0329190Y0199571D01*
X0330318Y0200082D01*
X0331457Y0200565D01*
X0332608Y0201020D01*
X0333770Y0201447D01*
X0334942Y0201846D01*
X0336123Y0202216D01*
X0337313Y0202557D01*
X0338511Y0202869D01*
X0339716Y0203151D01*
X0340928Y0203405D01*
X0342145Y0203628D01*
X0343367Y0203822D01*
X0344594Y0203986D01*
X0345825Y0204121D01*
X0347058Y0204225D01*
X0348294Y0204299D01*
X0349531Y0204343D01*
X0350768Y0204357D01*
X0352006Y0204341D01*
X0353243Y0204294D01*
X0354478Y0204218D01*
X0355712Y0204111D01*
X0356942Y0203975D01*
X0358168Y0203808D01*
X0359390Y0203612D01*
X0360607Y0203386D01*
X0361819Y0203131D01*
X0363023Y0202846D01*
X0364220Y0202532D01*
X0365410Y0202188D01*
X0366590Y0201816D01*
X0367761Y0201415D01*
X0368922Y0200986D01*
X0370072Y0200529D01*
X0371211Y0200044D01*
X0372338Y0199531D01*
X0373452Y0198991D01*
X0374552Y0198424D01*
X0375638Y0197830D01*
X0376709Y0197211D01*
X0377765Y0196565D01*
X0378805Y0195893D01*
X0379828Y0195197D01*
X0380834Y0194476D01*
X0381823Y0193730D01*
X0382792Y0192961D01*
X0383743Y0192168D01*
X0384674Y0191353D01*
X0385585Y0190515D01*
X0386475Y0189655D01*
X0387344Y0188774D01*
X0388192Y0187871D01*
X0389017Y0186949D01*
X0389819Y0186006D01*
X0390599Y0185045D01*
X0391354Y0184064D01*
X0392086Y0183066D01*
X0392793Y0182050D01*
X0393475Y0181017D01*
X0394131Y0179967D01*
X0394762Y0178902D01*
X0395367Y0177822D01*
X0395945Y0176728D01*
X0396497Y0175620D01*
X0397021Y0174499D01*
X0397518Y0173365D01*
X0397987Y0172220D01*
X0398428Y0171063D01*
X0398841Y0169896D01*
X0399225Y0168720D01*
X0399581Y0167534D01*
X0399907Y0166340D01*
X0400205Y0165138D01*
X0400473Y0163930D01*
X0400711Y0162715D01*
X0400920Y0161495D01*
X0401099Y0160271D01*
X0401248Y0159042D01*
X0401367Y0157810D01*
X0401457Y0156575D01*
X0322716Y0195945D02*
X0322829Y0196664D01*
X0322925Y0197386D01*
X0323003Y0198109D01*
X0323063Y0198835D01*
X0323106Y0199561D01*
X0323130Y0200289D01*
X0323137Y0201017D01*
X0323126Y0201744D01*
X0323097Y0202472D01*
X0323050Y0203198D01*
X0322986Y0203923D01*
X0322903Y0204646D01*
X0322804Y0205367D01*
X0322686Y0206086D01*
X0322551Y0206801D01*
X0322398Y0207512D01*
X0322228Y0208220D01*
X0322041Y0208924D01*
X0321837Y0209622D01*
X0321615Y0210316D01*
X0321377Y0211003D01*
X0321122Y0211685D01*
X0320850Y0212360D01*
X0320562Y0213029D01*
X0320257Y0213690D01*
X0319936Y0214343D01*
X0319600Y0214989D01*
X0319248Y0215626D01*
X0318880Y0216254D01*
X0318497Y0216873D01*
X0318099Y0217482D01*
X0317686Y0218081D01*
X0317259Y0218671D01*
X0316817Y0219249D01*
X0316361Y0219817D01*
X0315892Y0220373D01*
X0315409Y0220917D01*
X0314912Y0221450D01*
X0314403Y0221970D01*
X0313882Y0222478D01*
X0313348Y0222972D01*
X0312802Y0223454D01*
X0312244Y0223922D01*
X0311675Y0224376D01*
X0311095Y0224816D01*
X0310505Y0225242D01*
X0309904Y0225653D01*
X0309294Y0226049D01*
X0308674Y0226430D01*
X0308045Y0226796D01*
X0307407Y0227147D01*
X0306760Y0227481D01*
X0306106Y0227800D01*
X0305444Y0228103D01*
X0304775Y0228389D01*
X0304099Y0228659D01*
X0303416Y0228912D01*
X0302728Y0229148D01*
X0302034Y0229368D01*
X0301335Y0229570D01*
X0300631Y0229755D01*
X0299922Y0229923D01*
X0299210Y0230074D01*
X0298495Y0230207D01*
X0297776Y0230322D01*
X0297055Y0230420D01*
X0296331Y0230500D01*
X0295606Y0230563D01*
X0294880Y0230607D01*
X0294152Y0230634D01*
X0293424Y0230643D01*
X0292697Y0230634D01*
X0291969Y0230607D01*
X0291243Y0230563D01*
X0290518Y0230501D01*
X0289794Y0230421D01*
X0289073Y0230323D01*
X0288354Y0230208D01*
X0287638Y0230075D01*
X0286926Y0229924D01*
X0286218Y0229757D01*
X0285514Y0229571D01*
X0284815Y0229369D01*
X0284121Y0229150D01*
X0283432Y0228914D01*
X0282750Y0228660D01*
X0282074Y0228391D01*
X0281405Y0228105D01*
X0280743Y0227802D01*
X0280088Y0227483D01*
X0279442Y0227149D01*
X0278804Y0226799D01*
X0278174Y0226433D01*
X0277554Y0226052D01*
X0276944Y0225655D01*
X0276343Y0225244D01*
X0275752Y0224819D01*
X0275173Y0224379D01*
X0274604Y0223925D01*
X0274046Y0223457D01*
X0273500Y0222976D01*
X0272966Y0222481D01*
X0272444Y0221974D01*
X0271935Y0221453D01*
X0271439Y0220921D01*
X0270956Y0220377D01*
X0270486Y0219820D01*
X0270030Y0219253D01*
X0269588Y0218675D01*
X0269161Y0218085D01*
X0268748Y0217486D01*
X0268350Y0216877D01*
X0267967Y0216258D01*
X0267599Y0215630D01*
X0267598Y0215630D02*
X0267579Y0217164D01*
X0267523Y0218697D01*
X0267430Y0220228D01*
X0267299Y0221757D01*
X0267132Y0223281D01*
X0266927Y0224802D01*
X0266685Y0226317D01*
X0266406Y0227825D01*
X0266091Y0229326D01*
X0265739Y0230820D01*
X0265351Y0232304D01*
X0264927Y0233778D01*
X0264467Y0235241D01*
X0263972Y0236693D01*
X0263442Y0238133D01*
X0262876Y0239559D01*
X0262276Y0240971D01*
X0261642Y0242367D01*
X0260974Y0243748D01*
X0260273Y0245113D01*
X0259538Y0246459D01*
X0258771Y0247788D01*
X0257972Y0249097D01*
X0257141Y0250387D01*
X0256279Y0251656D01*
X0255387Y0252904D01*
X0254464Y0254129D01*
X0253512Y0255332D01*
X0252530Y0256511D01*
X0251521Y0257666D01*
X0250483Y0258796D01*
X0249418Y0259900D01*
X0248327Y0260978D01*
X0247210Y0262029D01*
X0246067Y0263053D01*
X0244900Y0264049D01*
X0243709Y0265015D01*
X0242495Y0265953D01*
X0241258Y0266861D01*
X0240000Y0267738D01*
X0238721Y0268585D01*
X0237421Y0269400D01*
X0236102Y0270183D01*
X0234764Y0270933D01*
X0233409Y0271651D01*
X0232036Y0272336D01*
X0230647Y0272987D01*
X0229242Y0273604D01*
X0227823Y0274187D01*
X0226391Y0274735D01*
X0224945Y0275248D01*
X0223487Y0275726D01*
X0222018Y0276168D01*
X0220539Y0276574D01*
X0219050Y0276944D01*
X0217553Y0277277D01*
X0216048Y0277574D01*
X0214536Y0277834D01*
X0213018Y0278058D01*
X0211496Y0278244D01*
X0209969Y0278393D01*
X0208439Y0278505D01*
X0206907Y0278580D01*
X0205373Y0278617D01*
X0203839Y0278617D01*
X0202305Y0278580D01*
X0200773Y0278505D01*
X0199243Y0278393D01*
X0197716Y0278244D01*
X0196194Y0278058D01*
X0194676Y0277834D01*
X0193164Y0277574D01*
X0191659Y0277277D01*
X0190162Y0276944D01*
X0188673Y0276574D01*
X0187194Y0276168D01*
X0185725Y0275726D01*
X0184267Y0275248D01*
X0182821Y0274735D01*
X0181389Y0274187D01*
X0179970Y0273604D01*
X0178565Y0272987D01*
X0177176Y0272336D01*
X0175803Y0271651D01*
X0174448Y0270933D01*
X0173110Y0270183D01*
X0171791Y0269400D01*
X0170491Y0268585D01*
X0169212Y0267738D01*
X0167954Y0266861D01*
X0166717Y0265953D01*
X0165503Y0265015D01*
X0164312Y0264049D01*
X0163145Y0263053D01*
X0162002Y0262029D01*
X0160885Y0260978D01*
X0159794Y0259900D01*
X0158729Y0258796D01*
X0157691Y0257666D01*
X0156682Y0256511D01*
X0155700Y0255332D01*
X0154748Y0254129D01*
X0153825Y0252904D01*
X0152933Y0251656D01*
X0152071Y0250387D01*
X0151240Y0249097D01*
X0150441Y0247788D01*
X0149674Y0246459D01*
X0148939Y0245113D01*
X0148238Y0243748D01*
X0147570Y0242367D01*
X0146936Y0240971D01*
X0146336Y0239559D01*
X0145770Y0238133D01*
X0145240Y0236693D01*
X0144745Y0235241D01*
X0144285Y0233778D01*
X0143861Y0232304D01*
X0143473Y0230820D01*
X0143121Y0229326D01*
X0142806Y0227825D01*
X0142527Y0226317D01*
X0142285Y0224802D01*
X0142080Y0223281D01*
X0141913Y0221757D01*
X0141782Y0220228D01*
X0141689Y0218697D01*
X0141633Y0217164D01*
X0141614Y0215630D01*
X0141246Y0216258D01*
X0140863Y0216877D01*
X0140465Y0217486D01*
X0140052Y0218085D01*
X0139625Y0218675D01*
X0139183Y0219253D01*
X0138727Y0219820D01*
X0138257Y0220377D01*
X0137774Y0220921D01*
X0137278Y0221453D01*
X0136769Y0221974D01*
X0136247Y0222481D01*
X0135713Y0222976D01*
X0135167Y0223457D01*
X0134609Y0223925D01*
X0134040Y0224379D01*
X0133461Y0224819D01*
X0132870Y0225244D01*
X0132269Y0225655D01*
X0131659Y0226052D01*
X0131039Y0226433D01*
X0130409Y0226799D01*
X0129771Y0227149D01*
X0129125Y0227483D01*
X0128470Y0227802D01*
X0127808Y0228105D01*
X0127139Y0228391D01*
X0126463Y0228660D01*
X0125781Y0228914D01*
X0125092Y0229150D01*
X0124398Y0229369D01*
X0123699Y0229571D01*
X0122995Y0229757D01*
X0122287Y0229924D01*
X0121575Y0230075D01*
X0120859Y0230208D01*
X0120140Y0230323D01*
X0119419Y0230421D01*
X0118695Y0230501D01*
X0117970Y0230563D01*
X0117244Y0230607D01*
X0116516Y0230634D01*
X0115789Y0230643D01*
X0115061Y0230634D01*
X0114333Y0230607D01*
X0113607Y0230563D01*
X0112882Y0230500D01*
X0112158Y0230420D01*
X0111437Y0230322D01*
X0110718Y0230207D01*
X0110003Y0230074D01*
X0109291Y0229923D01*
X0108582Y0229755D01*
X0107878Y0229570D01*
X0107179Y0229368D01*
X0106485Y0229148D01*
X0105797Y0228912D01*
X0105114Y0228659D01*
X0104438Y0228389D01*
X0103769Y0228103D01*
X0103107Y0227800D01*
X0102453Y0227481D01*
X0101806Y0227147D01*
X0101168Y0226796D01*
X0100539Y0226430D01*
X0099919Y0226049D01*
X0099309Y0225653D01*
X0098708Y0225242D01*
X0098118Y0224816D01*
X0097538Y0224376D01*
X0096969Y0223922D01*
X0096411Y0223454D01*
X0095865Y0222972D01*
X0095331Y0222478D01*
X0094810Y0221970D01*
X0094301Y0221450D01*
X0093804Y0220917D01*
X0093321Y0220373D01*
X0092852Y0219817D01*
X0092396Y0219249D01*
X0091954Y0218671D01*
X0091527Y0218081D01*
X0091114Y0217482D01*
X0090716Y0216873D01*
X0090333Y0216254D01*
X0089965Y0215626D01*
X0089613Y0214989D01*
X0089277Y0214343D01*
X0088956Y0213690D01*
X0088651Y0213029D01*
X0088363Y0212360D01*
X0088091Y0211685D01*
X0087836Y0211003D01*
X0087598Y0210316D01*
X0087376Y0209622D01*
X0087172Y0208924D01*
X0086985Y0208220D01*
X0086815Y0207512D01*
X0086662Y0206801D01*
X0086527Y0206086D01*
X0086409Y0205367D01*
X0086310Y0204646D01*
X0086227Y0203923D01*
X0086163Y0203198D01*
X0086116Y0202472D01*
X0086087Y0201744D01*
X0086076Y0201017D01*
X0086083Y0200289D01*
X0086107Y0199561D01*
X0086150Y0198835D01*
X0086210Y0198109D01*
X0086288Y0197386D01*
X0086384Y0196664D01*
X0086497Y0195945D01*
X0086496Y0195946D02*
X0085455Y0196615D01*
X0084398Y0197259D01*
X0083325Y0197877D01*
X0082238Y0198468D01*
X0081137Y0199033D01*
X0080022Y0199571D01*
X0078894Y0200082D01*
X0077755Y0200565D01*
X0076604Y0201020D01*
X0075442Y0201447D01*
X0074270Y0201846D01*
X0073089Y0202216D01*
X0071899Y0202557D01*
X0070701Y0202869D01*
X0069496Y0203151D01*
X0068284Y0203405D01*
X0067067Y0203628D01*
X0065845Y0203822D01*
X0064618Y0203986D01*
X0063387Y0204121D01*
X0062154Y0204225D01*
X0060918Y0204299D01*
X0059681Y0204343D01*
X0058444Y0204357D01*
X0057206Y0204341D01*
X0055969Y0204294D01*
X0054734Y0204218D01*
X0053500Y0204111D01*
X0052270Y0203975D01*
X0051044Y0203808D01*
X0049822Y0203612D01*
X0048605Y0203386D01*
X0047393Y0203131D01*
X0046189Y0202846D01*
X0044992Y0202532D01*
X0043802Y0202188D01*
X0042622Y0201816D01*
X0041451Y0201415D01*
X0040290Y0200986D01*
X0039140Y0200529D01*
X0038001Y0200044D01*
X0036874Y0199531D01*
X0035760Y0198991D01*
X0034660Y0198424D01*
X0033574Y0197830D01*
X0032503Y0197211D01*
X0031447Y0196565D01*
X0030407Y0195893D01*
X0029384Y0195197D01*
X0028378Y0194476D01*
X0027389Y0193730D01*
X0026420Y0192961D01*
X0025469Y0192168D01*
X0024538Y0191353D01*
X0023627Y0190515D01*
X0022737Y0189655D01*
X0021868Y0188774D01*
X0021020Y0187871D01*
X0020195Y0186949D01*
X0019393Y0186006D01*
X0018613Y0185045D01*
X0017858Y0184064D01*
X0017126Y0183066D01*
X0016419Y0182050D01*
X0015737Y0181017D01*
X0015081Y0179967D01*
X0014450Y0178902D01*
X0013845Y0177822D01*
X0013267Y0176728D01*
X0012715Y0175620D01*
X0012191Y0174499D01*
X0011694Y0173365D01*
X0011225Y0172220D01*
X0010784Y0171063D01*
X0010371Y0169896D01*
X0009987Y0168720D01*
X0009631Y0167534D01*
X0009305Y0166340D01*
X0009007Y0165138D01*
X0008739Y0163930D01*
X0008501Y0162715D01*
X0008292Y0161495D01*
X0008113Y0160271D01*
X0007964Y0159042D01*
X0007845Y0157810D01*
X0007755Y0156575D01*
X0007756Y0156575D02*
X0007796Y0153245D01*
X0007917Y0149918D01*
X0008118Y0146594D01*
X0008399Y0143276D01*
X0008761Y0139966D01*
X0009202Y0136665D01*
X0009723Y0133376D01*
X0010323Y0130101D01*
X0011002Y0126841D01*
X0011760Y0123598D01*
X0012596Y0120375D01*
X0013510Y0117173D01*
X0014500Y0113994D01*
X0015567Y0110840D01*
X0016710Y0107712D01*
X0017929Y0104613D01*
X0019222Y0101545D01*
X0020588Y0098508D01*
X0022028Y0095505D01*
X0023540Y0092538D01*
X0025123Y0089609D01*
X0026776Y0086718D01*
X0028499Y0083869D01*
X0030290Y0081062D01*
X0032148Y0078299D01*
X0034073Y0075581D01*
X0036062Y0072911D01*
X0038116Y0070290D01*
X0040232Y0067719D01*
X0042410Y0065200D01*
X0044648Y0062734D01*
X0046945Y0060324D01*
X0049300Y0057969D01*
X0051710Y0055672D01*
X0054176Y0053434D01*
X0056695Y0051256D01*
X0059266Y0049140D01*
X0061887Y0047086D01*
X0064557Y0045097D01*
X0067275Y0043172D01*
X0070038Y0041314D01*
X0072845Y0039523D01*
X0075694Y0037800D01*
X0078585Y0036147D01*
X0081514Y0034564D01*
X0084481Y0033052D01*
X0087484Y0031612D01*
X0090521Y0030246D01*
X0093589Y0028953D01*
X0096688Y0027734D01*
X0099816Y0026591D01*
X0102970Y0025524D01*
X0106149Y0024534D01*
X0109351Y0023620D01*
X0112574Y0022784D01*
X0115817Y0022026D01*
X0119077Y0021347D01*
X0122352Y0020747D01*
X0125641Y0020226D01*
X0128942Y0019785D01*
X0132252Y0019423D01*
X0135570Y0019142D01*
X0138894Y0018941D01*
X0142221Y0018820D01*
X0145551Y0018780D01*
X0263661Y0018780D02*
X0266991Y0018820D01*
X0270318Y0018941D01*
X0273642Y0019142D01*
X0276960Y0019423D01*
X0280270Y0019785D01*
X0283571Y0020226D01*
X0286860Y0020747D01*
X0290135Y0021347D01*
X0293395Y0022026D01*
X0296638Y0022784D01*
X0299861Y0023620D01*
X0303063Y0024534D01*
X0306242Y0025524D01*
X0309396Y0026591D01*
X0312524Y0027734D01*
X0315623Y0028953D01*
X0318691Y0030246D01*
X0321728Y0031612D01*
X0324731Y0033052D01*
X0327698Y0034564D01*
X0330627Y0036147D01*
X0333518Y0037800D01*
X0336367Y0039523D01*
X0339174Y0041314D01*
X0341937Y0043172D01*
X0344655Y0045097D01*
X0347325Y0047086D01*
X0349946Y0049140D01*
X0352517Y0051256D01*
X0355036Y0053434D01*
X0357502Y0055672D01*
X0359912Y0057969D01*
X0362267Y0060324D01*
X0364564Y0062734D01*
X0366802Y0065200D01*
X0368980Y0067719D01*
X0371096Y0070290D01*
X0373150Y0072911D01*
X0375139Y0075581D01*
X0377064Y0078299D01*
X0378922Y0081062D01*
X0380713Y0083869D01*
X0382436Y0086718D01*
X0384089Y0089609D01*
X0385672Y0092538D01*
X0387184Y0095505D01*
X0388624Y0098508D01*
X0389990Y0101545D01*
X0391283Y0104613D01*
X0392502Y0107712D01*
X0393645Y0110840D01*
X0394712Y0113994D01*
X0395702Y0117173D01*
X0396616Y0120375D01*
X0397452Y0123598D01*
X0398210Y0126841D01*
X0398889Y0130101D01*
X0399489Y0133376D01*
X0400010Y0136665D01*
X0400451Y0139966D01*
X0400813Y0143276D01*
X0401094Y0146594D01*
X0401295Y0149918D01*
X0401416Y0153245D01*
X0401456Y0156575D01*
D11*
X0071755Y0054730D03*
D12*
X0071755Y0055270D03*
X0180945Y0094730D03*
X0291215Y0073648D03*
D13*
X0071755Y0055811D03*
D14*
X0072025Y0056352D03*
D15*
X0072030Y0056892D03*
X0294190Y0096892D03*
D16*
X0072300Y0057432D03*
D17*
X0072570Y0057973D03*
D18*
X0072570Y0058513D03*
D19*
X0072570Y0059054D03*
D20*
X0072570Y0059595D03*
D21*
X0072835Y0060135D03*
D22*
X0200405Y0122838D03*
X0200405Y0130946D03*
X0279325Y0060135D03*
D23*
X0299055Y0071486D03*
X0073105Y0060675D03*
D24*
X0108515Y0060675D03*
X0189055Y0131486D03*
X0200405Y0123378D03*
D25*
X0225270Y0131486D03*
X0236080Y0120675D03*
X0197160Y0060675D03*
X0127970Y0060675D03*
X0327430Y0060675D03*
D26*
X0145540Y0060675D03*
D27*
X0177700Y0060675D03*
X0215000Y0060675D03*
D28*
X0250675Y0060675D03*
X0198785Y0118513D03*
X0190675Y0118513D03*
D29*
X0239055Y0108243D03*
X0239595Y0092567D03*
X0279055Y0106621D03*
X0279595Y0060675D03*
X0061755Y0066621D03*
X0061755Y0068243D03*
D30*
X0065270Y0061216D03*
X0245810Y0066081D03*
D31*
X0270945Y0069865D03*
X0178515Y0062838D03*
X0080135Y0061216D03*
D32*
X0062025Y0063919D03*
X0062025Y0068784D03*
X0062025Y0069865D03*
X0108515Y0061216D03*
X0127975Y0110946D03*
X0231215Y0129865D03*
X0239325Y0108784D03*
X0239325Y0093108D03*
X0239865Y0092027D03*
X0242565Y0073108D03*
X0242565Y0072027D03*
X0242565Y0070946D03*
X0276625Y0099054D03*
X0277165Y0100135D03*
X0327435Y0061216D03*
X0336625Y0067162D03*
D33*
X0279055Y0106081D03*
X0279055Y0110946D03*
X0156895Y0068784D03*
X0128245Y0061216D03*
X0061755Y0066081D03*
X0061755Y0067162D03*
D34*
X0073920Y0096892D03*
X0073920Y0102838D03*
X0074460Y0103919D03*
X0145810Y0061216D03*
X0224190Y0067162D03*
D35*
X0197435Y0061216D03*
X0177975Y0061216D03*
X0221215Y0093108D03*
X0237435Y0096892D03*
X0237975Y0106081D03*
X0238515Y0107162D03*
X0278515Y0103919D03*
X0301215Y0093108D03*
X0301215Y0092027D03*
X0301215Y0090946D03*
X0338515Y0068784D03*
X0177435Y0101216D03*
D36*
X0195000Y0137973D03*
X0155000Y0067162D03*
X0215000Y0061216D03*
D37*
X0251215Y0061216D03*
X0291215Y0073108D03*
X0318785Y0088784D03*
X0209595Y0093108D03*
X0141485Y0068784D03*
X0126355Y0073108D03*
X0139865Y0093108D03*
D38*
X0142295Y0069865D03*
X0230405Y0116892D03*
X0264455Y0112027D03*
X0290945Y0072027D03*
X0279595Y0061216D03*
D39*
X0244725Y0066621D03*
X0212835Y0071486D03*
X0207435Y0091486D03*
X0208515Y0092567D03*
X0144185Y0072567D03*
X0127975Y0106621D03*
X0127975Y0108243D03*
X0064185Y0061756D03*
X0317165Y0086621D03*
D40*
X0272295Y0071486D03*
X0267435Y0089324D03*
X0216085Y0098513D03*
X0146355Y0098513D03*
X0081485Y0061756D03*
D41*
X0108785Y0061756D03*
X0146085Y0061756D03*
X0177975Y0061756D03*
X0195275Y0072567D03*
X0215275Y0061756D03*
X0223915Y0091486D03*
X0175815Y0137432D03*
X0154725Y0091486D03*
X0287165Y0066621D03*
X0318515Y0088243D03*
D42*
X0290945Y0072567D03*
X0270405Y0091486D03*
X0327705Y0061756D03*
X0141755Y0069324D03*
X0128245Y0061756D03*
X0139055Y0092567D03*
D43*
X0143645Y0071486D03*
X0197705Y0061756D03*
X0083645Y0063378D03*
D44*
X0180945Y0091486D03*
X0251755Y0061756D03*
X0292295Y0068243D03*
X0271755Y0117432D03*
D45*
X0322025Y0092567D03*
X0279865Y0061756D03*
D46*
X0277705Y0078513D03*
X0278785Y0080675D03*
X0279325Y0081756D03*
X0280405Y0083378D03*
X0283105Y0088243D03*
X0297165Y0081756D03*
X0296625Y0080675D03*
X0298245Y0083378D03*
X0311215Y0077432D03*
X0313375Y0080675D03*
X0313915Y0081756D03*
X0326355Y0072567D03*
X0325815Y0071486D03*
X0324185Y0066621D03*
X0329055Y0077432D03*
X0329595Y0078513D03*
X0331755Y0081756D03*
X0332295Y0083378D03*
X0336085Y0089324D03*
X0337165Y0091486D03*
X0337165Y0092567D03*
X0323645Y0098513D03*
X0323105Y0097432D03*
X0303105Y0063378D03*
X0302565Y0061756D03*
X0257165Y0100675D03*
X0257705Y0101756D03*
X0258785Y0103378D03*
X0260405Y0106621D03*
X0261485Y0108243D03*
X0262025Y0109324D03*
X0277705Y0112567D03*
X0252295Y0092567D03*
X0251755Y0091486D03*
X0240405Y0091486D03*
X0244185Y0078513D03*
X0243105Y0069324D03*
X0243645Y0068243D03*
X0218785Y0080675D03*
X0219325Y0081756D03*
X0217165Y0078513D03*
X0216625Y0077432D03*
X0222025Y0086621D03*
X0223105Y0088243D03*
X0205815Y0089324D03*
X0204185Y0086621D03*
X0202565Y0083378D03*
X0201485Y0081756D03*
X0200945Y0080675D03*
X0199865Y0078513D03*
X0183105Y0083378D03*
X0182025Y0081756D03*
X0181485Y0080675D03*
X0176625Y0072567D03*
X0176085Y0071486D03*
X0153375Y0088243D03*
X0150675Y0083378D03*
X0149595Y0081756D03*
X0149055Y0080675D03*
X0147975Y0078513D03*
X0147435Y0077432D03*
X0136085Y0088243D03*
X0136625Y0089324D03*
X0132295Y0081756D03*
X0131755Y0080675D03*
X0130135Y0078513D03*
X0129595Y0077432D03*
X0116625Y0088243D03*
X0117165Y0089324D03*
X0118245Y0091486D03*
X0118785Y0092567D03*
X0122565Y0098513D03*
X0110135Y0106621D03*
X0111755Y0109324D03*
X0107975Y0103378D03*
X0102025Y0092567D03*
X0101485Y0091486D03*
X0099325Y0088243D03*
X0096625Y0083378D03*
X0093915Y0078513D03*
X0093375Y0077432D03*
X0090675Y0072567D03*
X0088515Y0069324D03*
X0105815Y0069324D03*
X0106895Y0071486D03*
X0107435Y0072567D03*
X0110135Y0077432D03*
X0112295Y0080675D03*
X0112835Y0081756D03*
X0178785Y0098513D03*
X0231215Y0129324D03*
D47*
X0217975Y0079595D03*
X0197975Y0076352D03*
X0177975Y0074730D03*
X0146625Y0076352D03*
X0100675Y0090405D03*
X0097975Y0085541D03*
X0092025Y0075270D03*
X0063375Y0062298D03*
D48*
X0082295Y0062298D03*
X0128245Y0062298D03*
X0140675Y0067702D03*
X0077975Y0107702D03*
X0292025Y0075270D03*
X0292565Y0076352D03*
X0308785Y0074730D03*
X0320135Y0090405D03*
D49*
X0307435Y0073648D03*
X0291755Y0074730D03*
X0210135Y0067702D03*
X0197705Y0062298D03*
X0178245Y0062298D03*
X0146355Y0062298D03*
X0109055Y0062298D03*
D50*
X0124190Y0070405D03*
X0215540Y0062298D03*
D51*
X0252300Y0062298D03*
X0271760Y0116352D03*
D52*
X0280135Y0062298D03*
D53*
X0278245Y0079595D03*
X0279865Y0082298D03*
X0280945Y0084459D03*
X0273915Y0095270D03*
X0258245Y0102298D03*
X0259325Y0104459D03*
X0259865Y0105541D03*
X0260945Y0107702D03*
X0256625Y0099595D03*
X0253915Y0095270D03*
X0251215Y0090405D03*
X0246355Y0082298D03*
X0241485Y0090405D03*
X0222565Y0087702D03*
X0221485Y0085541D03*
X0220945Y0084459D03*
X0216085Y0076352D03*
X0202025Y0082298D03*
X0203105Y0084459D03*
X0203645Y0085541D03*
X0206355Y0090405D03*
X0200405Y0079595D03*
X0184185Y0085541D03*
X0183645Y0084459D03*
X0180945Y0079595D03*
X0178785Y0076352D03*
X0178245Y0075270D03*
X0177165Y0073648D03*
X0153375Y0087702D03*
X0151755Y0085541D03*
X0151215Y0084459D03*
X0150135Y0082298D03*
X0148515Y0079595D03*
X0145815Y0074730D03*
X0133915Y0084459D03*
X0132295Y0082298D03*
X0137165Y0090405D03*
X0120405Y0094730D03*
X0120405Y0095270D03*
X0117705Y0090405D03*
X0116085Y0087702D03*
X0109595Y0076352D03*
X0109055Y0075270D03*
X0108515Y0074730D03*
X0107975Y0073648D03*
X0106355Y0070405D03*
X0092835Y0076352D03*
X0091755Y0074730D03*
X0091215Y0073648D03*
X0089055Y0070405D03*
X0087435Y0067702D03*
X0096085Y0082298D03*
X0097165Y0084459D03*
X0099325Y0087702D03*
X0102565Y0093648D03*
X0103105Y0094730D03*
X0103645Y0095270D03*
X0104185Y0096352D03*
X0105815Y0099595D03*
X0107435Y0102298D03*
X0109595Y0105541D03*
X0110675Y0107702D03*
X0127975Y0105541D03*
X0127975Y0110405D03*
X0231755Y0136352D03*
X0299325Y0085541D03*
X0298785Y0084459D03*
X0297705Y0082298D03*
X0296085Y0079595D03*
X0305815Y0067702D03*
X0302565Y0062298D03*
X0312835Y0079595D03*
X0326895Y0073648D03*
X0327435Y0074730D03*
X0327975Y0075270D03*
X0328515Y0076352D03*
X0330135Y0079595D03*
X0331755Y0082298D03*
X0333915Y0085541D03*
X0336625Y0090405D03*
X0243105Y0075270D03*
X0243645Y0067702D03*
D54*
X0193375Y0070405D03*
X0327975Y0062298D03*
D55*
X0325815Y0072027D03*
X0329595Y0077973D03*
X0330135Y0079054D03*
X0330675Y0080135D03*
X0331215Y0081216D03*
X0332295Y0082838D03*
X0332835Y0083919D03*
X0333915Y0086081D03*
X0336085Y0089865D03*
X0336625Y0090946D03*
X0337165Y0092027D03*
X0323645Y0099054D03*
X0323105Y0097973D03*
X0322565Y0096892D03*
X0313375Y0081216D03*
X0312835Y0080135D03*
X0312295Y0079054D03*
X0311755Y0077973D03*
X0299865Y0086081D03*
X0297705Y0082838D03*
X0297165Y0081216D03*
X0283645Y0088784D03*
X0284185Y0089865D03*
X0282025Y0086081D03*
X0279325Y0081216D03*
X0277165Y0077973D03*
X0252295Y0092027D03*
X0252835Y0093108D03*
X0256085Y0099054D03*
X0256625Y0100135D03*
X0258245Y0102838D03*
X0258785Y0103919D03*
X0260405Y0106081D03*
X0260945Y0107162D03*
X0262565Y0109865D03*
X0240945Y0090946D03*
X0245815Y0081216D03*
X0243645Y0076892D03*
X0243105Y0068784D03*
X0244185Y0067162D03*
X0219865Y0082838D03*
X0220405Y0083919D03*
X0218785Y0081216D03*
X0218245Y0080135D03*
X0217705Y0079054D03*
X0217165Y0077973D03*
X0204185Y0086081D03*
X0202025Y0082838D03*
X0199865Y0079054D03*
X0199325Y0077973D03*
X0206355Y0089865D03*
X0223105Y0088784D03*
X0184185Y0090946D03*
X0184185Y0086081D03*
X0183105Y0083919D03*
X0182565Y0082838D03*
X0180945Y0080135D03*
X0180405Y0079054D03*
X0179865Y0077973D03*
X0179325Y0076892D03*
X0177165Y0073108D03*
X0153915Y0088784D03*
X0152835Y0087162D03*
X0152295Y0086081D03*
X0151215Y0083919D03*
X0149595Y0081216D03*
X0149055Y0080135D03*
X0147435Y0077973D03*
X0146895Y0076892D03*
X0133375Y0083919D03*
X0132835Y0082838D03*
X0131755Y0081216D03*
X0131215Y0080135D03*
X0130675Y0079054D03*
X0136085Y0088784D03*
X0136625Y0089865D03*
X0137705Y0090946D03*
X0122565Y0099054D03*
X0122025Y0097973D03*
X0121485Y0096892D03*
X0119325Y0093108D03*
X0118785Y0092027D03*
X0118245Y0090946D03*
X0116625Y0088784D03*
X0116085Y0087162D03*
X0113915Y0083919D03*
X0113375Y0082838D03*
X0112295Y0081216D03*
X0111755Y0080135D03*
X0111215Y0079054D03*
X0110675Y0077973D03*
X0110135Y0076892D03*
X0107975Y0073108D03*
X0097165Y0083919D03*
X0098245Y0086081D03*
X0098785Y0087162D03*
X0099865Y0088784D03*
X0100405Y0089865D03*
X0100945Y0090946D03*
X0101485Y0092027D03*
X0105815Y0099054D03*
X0106355Y0100135D03*
X0106895Y0101216D03*
X0107975Y0102838D03*
X0108515Y0103919D03*
X0109595Y0106081D03*
X0111215Y0108784D03*
X0111755Y0109865D03*
X0093375Y0077973D03*
X0092835Y0076892D03*
X0090675Y0073108D03*
X0090135Y0072027D03*
X0089595Y0070946D03*
X0089055Y0069865D03*
X0063105Y0062838D03*
X0176085Y0137973D03*
X0179325Y0097973D03*
X0303105Y0062838D03*
X0303645Y0063919D03*
D56*
X0269865Y0090946D03*
X0272025Y0119054D03*
X0223915Y0092027D03*
X0195815Y0073108D03*
X0154725Y0092027D03*
X0082835Y0062838D03*
D57*
X0109055Y0062838D03*
X0180945Y0093108D03*
X0209595Y0067162D03*
X0306895Y0073108D03*
D58*
X0327975Y0062838D03*
X0128515Y0062838D03*
D59*
X0146350Y0062838D03*
X0215540Y0062838D03*
D60*
X0197975Y0062838D03*
X0192025Y0068784D03*
X0140135Y0067162D03*
X0122835Y0068784D03*
X0266625Y0088784D03*
X0271485Y0070946D03*
D61*
X0252030Y0062838D03*
X0252030Y0082838D03*
D62*
X0269865Y0068784D03*
X0280135Y0062838D03*
X0328785Y0063919D03*
X0198515Y0063919D03*
X0109865Y0063919D03*
D63*
X0133105Y0083378D03*
X0063915Y0072567D03*
X0062295Y0063378D03*
X0243915Y0077432D03*
X0246085Y0081756D03*
X0300135Y0086621D03*
D64*
X0109325Y0063378D03*
D65*
X0129055Y0063378D03*
X0180945Y0092567D03*
X0209055Y0066621D03*
X0198245Y0063378D03*
X0270135Y0069324D03*
X0229595Y0128243D03*
D66*
X0215810Y0097432D03*
X0215810Y0063378D03*
X0176350Y0117432D03*
X0146080Y0097432D03*
X0146620Y0063378D03*
X0305540Y0072567D03*
D67*
X0328245Y0063378D03*
X0178515Y0063378D03*
X0139595Y0066621D03*
X0080135Y0108243D03*
D68*
X0252300Y0063378D03*
D69*
X0269325Y0068243D03*
X0280135Y0063378D03*
D70*
X0287975Y0067162D03*
X0316625Y0086081D03*
X0324725Y0066081D03*
X0224185Y0090946D03*
X0216085Y0099054D03*
X0207975Y0092027D03*
X0213915Y0073108D03*
X0213375Y0072027D03*
X0127975Y0107162D03*
X0127975Y0108784D03*
X0077165Y0107162D03*
X0084185Y0063919D03*
D71*
X0129055Y0063919D03*
X0180945Y0092027D03*
D72*
X0176350Y0116892D03*
X0147160Y0063919D03*
X0216350Y0063919D03*
D73*
X0179055Y0063919D03*
D74*
X0252840Y0063919D03*
D75*
X0280405Y0063919D03*
D76*
X0277165Y0099595D03*
X0062565Y0070405D03*
X0062025Y0064459D03*
D77*
X0084725Y0064459D03*
X0085815Y0065541D03*
X0127435Y0074730D03*
X0127975Y0075270D03*
X0142565Y0070405D03*
X0127975Y0107702D03*
X0197165Y0075270D03*
X0230675Y0116352D03*
X0276085Y0076352D03*
X0316625Y0085541D03*
X0337165Y0093648D03*
D78*
X0198785Y0064459D03*
X0110135Y0064459D03*
D79*
X0129325Y0064459D03*
X0179595Y0064459D03*
X0328785Y0064459D03*
D80*
X0215270Y0096352D03*
X0146080Y0096352D03*
X0147160Y0064459D03*
D81*
X0216620Y0064459D03*
D82*
X0252840Y0064459D03*
D83*
X0280680Y0064459D03*
D84*
X0303915Y0064459D03*
X0310405Y0076352D03*
X0314185Y0082298D03*
X0315815Y0084459D03*
X0333105Y0084459D03*
X0284455Y0090405D03*
X0282835Y0087702D03*
X0281755Y0085541D03*
X0272565Y0093648D03*
X0253645Y0094730D03*
X0253105Y0093648D03*
X0262835Y0110405D03*
X0223915Y0090405D03*
X0219595Y0082298D03*
X0214185Y0073648D03*
X0182295Y0082298D03*
X0180135Y0096352D03*
X0146085Y0075270D03*
X0128785Y0076352D03*
X0113105Y0082298D03*
X0111485Y0079595D03*
X0119595Y0093648D03*
X0121215Y0096352D03*
X0108785Y0104459D03*
X0075815Y0093648D03*
D85*
X0061755Y0065000D03*
X0279055Y0105000D03*
D86*
X0316085Y0085000D03*
X0196625Y0074189D03*
X0085275Y0065000D03*
D87*
X0110135Y0065000D03*
X0329055Y0065000D03*
D88*
X0138515Y0065000D03*
D89*
X0179595Y0065000D03*
D90*
X0207705Y0065000D03*
D91*
X0253110Y0065000D03*
D92*
X0280680Y0065000D03*
X0214730Y0094189D03*
X0145540Y0094189D03*
D93*
X0151755Y0085000D03*
X0146355Y0075811D03*
X0133915Y0085000D03*
X0119865Y0094189D03*
X0120945Y0095811D03*
X0109055Y0105000D03*
X0103645Y0095811D03*
X0097705Y0085000D03*
X0092295Y0075811D03*
X0091215Y0074189D03*
X0108515Y0074189D03*
X0177705Y0074189D03*
X0178785Y0075811D03*
X0220945Y0085000D03*
X0253375Y0094189D03*
X0281485Y0085000D03*
X0299325Y0085000D03*
X0304185Y0065000D03*
X0327975Y0075811D03*
X0333375Y0085000D03*
D94*
X0279055Y0104459D03*
X0279055Y0105541D03*
X0279055Y0110405D03*
X0239055Y0093648D03*
X0127705Y0104459D03*
X0061755Y0067702D03*
X0061755Y0065541D03*
D95*
X0110675Y0065541D03*
X0179865Y0065541D03*
D96*
X0138785Y0065541D03*
D97*
X0208245Y0065541D03*
D98*
X0253380Y0065541D03*
D99*
X0280950Y0065541D03*
D100*
X0264730Y0067702D03*
X0244730Y0079595D03*
X0254460Y0096352D03*
X0304730Y0065541D03*
X0325270Y0070405D03*
X0194460Y0116352D03*
X0184730Y0090405D03*
X0175540Y0070405D03*
X0135540Y0087702D03*
X0134460Y0085541D03*
X0114460Y0084459D03*
X0094460Y0079595D03*
X0075540Y0105541D03*
D101*
X0329325Y0065541D03*
D102*
X0328785Y0076892D03*
X0310945Y0076892D03*
X0337435Y0093108D03*
X0285545Y0092027D03*
X0282835Y0087162D03*
X0280135Y0082838D03*
X0278515Y0080135D03*
X0276355Y0076892D03*
X0270945Y0092027D03*
X0257435Y0101216D03*
X0261755Y0108784D03*
X0251485Y0090946D03*
X0222295Y0087162D03*
X0221755Y0086081D03*
X0216355Y0076892D03*
X0202835Y0083919D03*
X0201215Y0081216D03*
X0198515Y0076892D03*
X0205545Y0088784D03*
X0207165Y0090946D03*
X0181755Y0081216D03*
X0176355Y0072027D03*
X0175815Y0070946D03*
X0153105Y0066081D03*
X0143915Y0072027D03*
X0144455Y0073108D03*
X0148245Y0079054D03*
X0150405Y0082838D03*
X0154185Y0089865D03*
X0138515Y0092027D03*
X0127705Y0106081D03*
X0127705Y0109865D03*
X0110405Y0107162D03*
X0104455Y0096892D03*
X0102295Y0093108D03*
X0096355Y0082838D03*
X0094185Y0079054D03*
X0107165Y0072027D03*
X0106085Y0066081D03*
X0115815Y0066081D03*
X0125545Y0066081D03*
X0129865Y0077973D03*
X0117435Y0089865D03*
X0088245Y0068784D03*
X0087165Y0067162D03*
X0086085Y0066081D03*
X0075815Y0106081D03*
X0180135Y0096892D03*
X0222295Y0066081D03*
D103*
X0139325Y0066081D03*
D104*
X0115270Y0086081D03*
X0175270Y0066081D03*
X0194730Y0066081D03*
X0315270Y0083919D03*
X0334730Y0087162D03*
X0335270Y0099054D03*
X0334730Y0066081D03*
D105*
X0285000Y0090946D03*
X0185000Y0066081D03*
X0105000Y0097973D03*
D106*
X0208785Y0066081D03*
D107*
X0260675Y0066081D03*
X0272025Y0117973D03*
X0229325Y0128784D03*
D108*
X0280950Y0066081D03*
D109*
X0295540Y0079054D03*
X0305270Y0067162D03*
X0304730Y0066081D03*
X0324730Y0069865D03*
X0325270Y0070946D03*
X0314460Y0082838D03*
X0335540Y0088784D03*
X0255540Y0097973D03*
X0245270Y0080135D03*
X0244730Y0079054D03*
X0204730Y0087162D03*
X0134460Y0086081D03*
X0095540Y0081216D03*
D110*
X0086625Y0066621D03*
X0106625Y0100675D03*
X0137975Y0091486D03*
X0223375Y0089324D03*
X0312025Y0078513D03*
D111*
X0324460Y0068243D03*
X0335810Y0066621D03*
X0185000Y0088243D03*
X0185000Y0089324D03*
X0174730Y0068243D03*
X0174730Y0066621D03*
X0154190Y0066621D03*
X0105540Y0066621D03*
X0105540Y0068243D03*
D112*
X0120945Y0066621D03*
X0190135Y0066621D03*
D113*
X0223375Y0066621D03*
X0300675Y0088243D03*
X0063375Y0071486D03*
D114*
X0141215Y0068243D03*
X0210405Y0068243D03*
X0262295Y0066621D03*
X0273105Y0072567D03*
X0230405Y0117432D03*
D115*
X0255270Y0097432D03*
X0274730Y0066621D03*
X0335270Y0088243D03*
X0194730Y0137432D03*
D116*
X0205270Y0088243D03*
X0184730Y0086621D03*
X0115540Y0086621D03*
X0104730Y0097432D03*
X0105270Y0098513D03*
X0295540Y0078513D03*
X0305270Y0066621D03*
X0324730Y0069324D03*
X0334460Y0086621D03*
D117*
X0324460Y0068784D03*
X0275270Y0096892D03*
X0275810Y0097973D03*
X0274190Y0067162D03*
X0185000Y0087162D03*
X0185000Y0088784D03*
X0185000Y0089865D03*
X0175270Y0069865D03*
X0174730Y0068784D03*
X0174730Y0067162D03*
X0135270Y0087162D03*
X0105540Y0068784D03*
X0105540Y0067162D03*
X0075810Y0093108D03*
D118*
X0121215Y0067162D03*
X0190945Y0067162D03*
D119*
X0211755Y0069865D03*
X0212295Y0070946D03*
X0223645Y0089865D03*
X0194455Y0116892D03*
X0154455Y0090946D03*
X0146895Y0099054D03*
X0143105Y0070946D03*
X0263645Y0067162D03*
X0317705Y0087162D03*
D120*
X0300135Y0087162D03*
X0298515Y0083919D03*
X0296355Y0080135D03*
X0323915Y0067162D03*
X0278515Y0112027D03*
X0241215Y0110946D03*
X0243915Y0077973D03*
X0242835Y0069865D03*
X0178515Y0099054D03*
X0106085Y0069865D03*
X0063915Y0073108D03*
X0062835Y0070946D03*
D121*
X0074190Y0096352D03*
X0105540Y0067702D03*
X0174730Y0067702D03*
X0185000Y0087702D03*
X0274730Y0096352D03*
D122*
X0290945Y0067702D03*
X0121755Y0067702D03*
D123*
X0155810Y0067702D03*
X0225000Y0067702D03*
X0073650Y0102298D03*
D124*
X0108515Y0115270D03*
X0191215Y0067702D03*
D125*
X0273920Y0067702D03*
X0335540Y0099595D03*
X0074460Y0104459D03*
D126*
X0110405Y0116352D03*
X0130945Y0079595D03*
X0178515Y0104459D03*
X0216355Y0099595D03*
X0242835Y0074730D03*
X0242835Y0073648D03*
X0242835Y0070405D03*
X0273645Y0094730D03*
X0323915Y0067702D03*
X0210945Y0135270D03*
D127*
X0211485Y0136352D03*
X0237435Y0104459D03*
X0237975Y0095270D03*
X0277975Y0102298D03*
X0301215Y0090405D03*
X0337435Y0067702D03*
X0177435Y0102298D03*
D128*
X0179595Y0097432D03*
X0180135Y0078513D03*
X0179595Y0077432D03*
X0199055Y0077432D03*
X0213645Y0072567D03*
X0220135Y0083378D03*
X0245545Y0080675D03*
X0255815Y0098513D03*
X0263915Y0111486D03*
X0271485Y0092567D03*
X0282295Y0086621D03*
X0283915Y0089324D03*
X0286085Y0092567D03*
X0276895Y0077432D03*
X0306085Y0068243D03*
X0330945Y0080675D03*
X0154185Y0089324D03*
X0152565Y0086621D03*
X0121755Y0097432D03*
X0127705Y0109324D03*
X0110945Y0108243D03*
X0107165Y0101756D03*
X0100135Y0089324D03*
X0098515Y0086621D03*
X0095815Y0081756D03*
X0089865Y0071486D03*
X0087705Y0068243D03*
X0110945Y0078513D03*
X0113645Y0083378D03*
X0076355Y0106621D03*
D129*
X0122295Y0068243D03*
D130*
X0156350Y0068243D03*
X0225540Y0068243D03*
X0075810Y0092567D03*
X0073650Y0098513D03*
X0073650Y0101756D03*
D131*
X0191755Y0068243D03*
D132*
X0177435Y0101756D03*
X0232565Y0137432D03*
X0241215Y0111486D03*
X0277435Y0100675D03*
X0278515Y0103378D03*
X0301215Y0092567D03*
X0301215Y0091486D03*
X0337975Y0068243D03*
D133*
X0273375Y0073108D03*
X0210675Y0068784D03*
D134*
X0226350Y0068784D03*
X0175000Y0089865D03*
D135*
X0297975Y0068784D03*
D136*
X0242565Y0071486D03*
X0242565Y0072567D03*
X0239865Y0109324D03*
X0278785Y0111486D03*
X0062025Y0069324D03*
D137*
X0123375Y0069324D03*
X0192565Y0069324D03*
X0272025Y0118513D03*
X0321215Y0091486D03*
D138*
X0341485Y0071486D03*
X0342565Y0072567D03*
X0238245Y0106621D03*
X0237165Y0103378D03*
X0237165Y0098513D03*
X0237165Y0097432D03*
X0221485Y0092567D03*
X0230135Y0072567D03*
X0229055Y0071486D03*
X0226895Y0069324D03*
X0170135Y0083378D03*
X0160945Y0072567D03*
X0159865Y0071486D03*
X0157705Y0069324D03*
X0152295Y0092567D03*
D139*
X0135000Y0086621D03*
X0095000Y0080675D03*
X0175000Y0069324D03*
X0315000Y0083378D03*
D140*
X0293915Y0077432D03*
X0211215Y0069324D03*
X0194455Y0071486D03*
X0194455Y0117432D03*
X0125815Y0072567D03*
D141*
X0298515Y0069324D03*
D142*
X0339325Y0069324D03*
X0279325Y0108243D03*
X0279325Y0109324D03*
X0167975Y0080675D03*
X0127975Y0111486D03*
D143*
X0123645Y0069865D03*
X0320945Y0090946D03*
D144*
X0340945Y0070946D03*
X0339865Y0069865D03*
X0343105Y0073108D03*
X0237165Y0097973D03*
X0237165Y0103919D03*
X0229595Y0072027D03*
X0228515Y0070946D03*
X0227435Y0069865D03*
X0168515Y0081216D03*
X0166895Y0079054D03*
X0161485Y0073108D03*
X0160405Y0072027D03*
X0158245Y0069865D03*
X0111215Y0116892D03*
D145*
X0193375Y0069865D03*
D146*
X0298785Y0069865D03*
D147*
X0340405Y0070405D03*
X0238245Y0094730D03*
X0237705Y0096352D03*
X0237705Y0105541D03*
X0238785Y0107702D03*
X0229055Y0135270D03*
X0178245Y0105541D03*
X0171755Y0085541D03*
X0163105Y0074730D03*
X0158785Y0070405D03*
X0231215Y0073648D03*
X0232295Y0074730D03*
D148*
X0212025Y0070405D03*
X0180675Y0095270D03*
X0126625Y0073648D03*
X0269325Y0090405D03*
X0274725Y0074730D03*
X0274185Y0073648D03*
X0309325Y0075270D03*
X0317975Y0087702D03*
D149*
X0279325Y0107702D03*
X0227975Y0070405D03*
X0162025Y0073648D03*
D150*
X0271215Y0070405D03*
D151*
X0299055Y0070405D03*
D152*
X0280675Y0083919D03*
X0277975Y0079054D03*
X0272025Y0093108D03*
X0286625Y0093108D03*
X0263375Y0110946D03*
X0326625Y0073108D03*
X0200675Y0080135D03*
X0129325Y0076892D03*
X0106625Y0070946D03*
D153*
X0124460Y0070946D03*
D154*
X0159325Y0070946D03*
X0230675Y0073108D03*
X0279325Y0107162D03*
X0279325Y0108784D03*
X0279325Y0109865D03*
X0342025Y0072027D03*
D155*
X0319595Y0089865D03*
X0293105Y0076892D03*
X0272565Y0072027D03*
X0268245Y0089865D03*
X0194185Y0070946D03*
X0175815Y0136892D03*
D156*
X0299055Y0070946D03*
D157*
X0125000Y0071486D03*
D158*
X0177975Y0100135D03*
X0232025Y0136892D03*
X0063375Y0072027D03*
D159*
X0125270Y0072027D03*
D160*
X0195000Y0072027D03*
D161*
X0304730Y0072027D03*
D162*
X0323920Y0099595D03*
X0063920Y0073648D03*
D163*
X0145000Y0073648D03*
X0205000Y0087702D03*
D164*
X0196895Y0074730D03*
X0196355Y0073648D03*
X0288245Y0094730D03*
D165*
X0343650Y0073648D03*
X0225810Y0127702D03*
X0164190Y0076352D03*
D166*
X0063650Y0074189D03*
X0344190Y0074189D03*
D167*
X0309865Y0075811D03*
X0127165Y0074189D03*
X0109865Y0115811D03*
D168*
X0114460Y0085000D03*
X0145270Y0074189D03*
X0254460Y0095811D03*
X0274460Y0095811D03*
D169*
X0237705Y0105000D03*
X0231755Y0074189D03*
X0162565Y0074189D03*
D170*
X0214730Y0074189D03*
D171*
X0242835Y0074189D03*
X0273105Y0094189D03*
X0210945Y0135811D03*
X0127705Y0105000D03*
D172*
X0197705Y0075811D03*
X0274455Y0074189D03*
D173*
X0291485Y0074189D03*
X0308245Y0074189D03*
D174*
X0327165Y0074189D03*
X0275815Y0075811D03*
X0259595Y0105000D03*
X0230945Y0135811D03*
X0183915Y0085000D03*
X0215815Y0075811D03*
X0128245Y0075811D03*
X0102835Y0094189D03*
X0075815Y0094189D03*
D175*
X0063650Y0074730D03*
X0234460Y0127702D03*
D176*
X0215000Y0074730D03*
X0115000Y0085541D03*
X0075000Y0095270D03*
X0335000Y0087702D03*
D177*
X0344730Y0074730D03*
X0073380Y0099595D03*
D178*
X0063650Y0075270D03*
X0194460Y0115270D03*
X0224190Y0122298D03*
X0224190Y0125541D03*
X0226890Y0133648D03*
X0232840Y0076352D03*
D179*
X0236890Y0099595D03*
X0236890Y0102298D03*
X0175270Y0090405D03*
X0163380Y0075270D03*
D180*
X0215270Y0075270D03*
X0075270Y0094730D03*
D181*
X0167165Y0079595D03*
X0169325Y0082298D03*
X0170945Y0084459D03*
X0232565Y0075270D03*
D182*
X0275545Y0075270D03*
X0286895Y0093648D03*
X0154455Y0090405D03*
D183*
X0173650Y0087702D03*
X0345000Y0075270D03*
D184*
X0063650Y0075811D03*
D185*
X0109325Y0075811D03*
X0180675Y0095811D03*
X0203375Y0085000D03*
D186*
X0163920Y0075811D03*
D187*
X0232840Y0075811D03*
X0345270Y0075811D03*
D188*
X0243375Y0075811D03*
D189*
X0292295Y0075811D03*
X0180945Y0094189D03*
D190*
X0063650Y0076352D03*
D191*
X0146625Y0099595D03*
X0177975Y0099595D03*
X0240675Y0110405D03*
X0243375Y0076352D03*
X0300675Y0087702D03*
X0300675Y0094730D03*
D192*
X0345270Y0076352D03*
X0236080Y0125541D03*
X0173380Y0119595D03*
D193*
X0063650Y0076892D03*
D194*
X0073380Y0100135D03*
X0073380Y0101216D03*
X0164730Y0076892D03*
D195*
X0213110Y0116892D03*
X0213110Y0117973D03*
X0213110Y0119054D03*
X0213110Y0120135D03*
X0213110Y0121216D03*
X0213110Y0122838D03*
X0213110Y0123919D03*
X0213110Y0126081D03*
X0213110Y0127162D03*
X0213110Y0128784D03*
X0213110Y0129865D03*
X0213110Y0130946D03*
X0213110Y0132027D03*
X0213110Y0133108D03*
X0225000Y0130946D03*
X0225540Y0132027D03*
X0224460Y0121216D03*
X0225000Y0120135D03*
X0235810Y0120135D03*
X0236350Y0121216D03*
X0236350Y0122838D03*
X0236350Y0123919D03*
X0235810Y0126081D03*
X0233110Y0076892D03*
X0345540Y0076892D03*
D196*
X0165270Y0077432D03*
X0073380Y0100675D03*
D197*
X0213380Y0138513D03*
X0232840Y0077432D03*
X0345270Y0077432D03*
D198*
X0236890Y0099054D03*
X0236890Y0100135D03*
X0236890Y0101216D03*
X0236890Y0102838D03*
X0233110Y0137973D03*
X0175810Y0090946D03*
X0174190Y0088784D03*
X0173110Y0087162D03*
X0165540Y0077973D03*
X0075810Y0092027D03*
D199*
X0177970Y0108784D03*
X0232570Y0077973D03*
D200*
X0255000Y0096892D03*
X0295000Y0100135D03*
X0295000Y0077973D03*
X0095000Y0080135D03*
D201*
X0345270Y0077973D03*
D202*
X0166350Y0078513D03*
D203*
X0167705Y0080135D03*
X0169865Y0082838D03*
X0170405Y0083919D03*
X0172025Y0086081D03*
X0177975Y0106081D03*
X0212025Y0136892D03*
X0241215Y0112027D03*
X0127705Y0103919D03*
D204*
X0168785Y0081756D03*
X0172565Y0086621D03*
X0241215Y0112567D03*
D205*
X0255270Y0082298D03*
X0175810Y0122298D03*
D206*
X0252840Y0083378D03*
D207*
X0253650Y0083919D03*
D208*
X0254460Y0084459D03*
D209*
X0171485Y0085000D03*
D210*
X0255000Y0085000D03*
D211*
X0255270Y0085541D03*
D212*
X0255270Y0086081D03*
D213*
X0255270Y0086621D03*
D214*
X0255270Y0087162D03*
D215*
X0255270Y0087702D03*
D216*
X0173650Y0088243D03*
D217*
X0246620Y0088243D03*
D218*
X0264730Y0088243D03*
D219*
X0246350Y0088784D03*
X0294460Y0097973D03*
D220*
X0300945Y0089865D03*
X0300945Y0088784D03*
X0277705Y0101216D03*
X0278245Y0102838D03*
X0240405Y0109865D03*
X0178245Y0103919D03*
X0177705Y0102838D03*
X0151755Y0093108D03*
D221*
X0076350Y0089324D03*
D222*
X0174730Y0089324D03*
X0236890Y0100675D03*
X0236890Y0101756D03*
D223*
X0246350Y0089324D03*
X0294460Y0097432D03*
D224*
X0300945Y0089324D03*
X0277705Y0101756D03*
X0177705Y0100675D03*
X0177705Y0103378D03*
D225*
X0319325Y0089324D03*
D226*
X0076080Y0089865D03*
D227*
X0246350Y0089865D03*
D228*
X0076080Y0090405D03*
D229*
X0076080Y0090946D03*
X0225270Y0119054D03*
D230*
X0224730Y0126621D03*
X0176080Y0138513D03*
X0076080Y0091486D03*
D231*
X0285000Y0091486D03*
D232*
X0321755Y0092027D03*
D233*
X0323110Y0093108D03*
X0334460Y0096892D03*
X0176620Y0117973D03*
D234*
X0145270Y0093648D03*
X0214460Y0093648D03*
X0293920Y0095270D03*
D235*
X0181215Y0093648D03*
D236*
X0123105Y0099595D03*
X0272295Y0119595D03*
X0300945Y0093648D03*
D237*
X0323920Y0093648D03*
D238*
X0238515Y0094189D03*
X0237975Y0095811D03*
D239*
X0287705Y0094189D03*
D240*
X0300945Y0094189D03*
X0178245Y0105000D03*
D241*
X0329325Y0094189D03*
D242*
X0293920Y0096352D03*
X0145810Y0094730D03*
D243*
X0215000Y0094730D03*
D244*
X0329595Y0094730D03*
X0329595Y0095270D03*
D245*
X0271490Y0115270D03*
X0145540Y0095270D03*
D246*
X0215000Y0095270D03*
D247*
X0074730Y0095811D03*
X0074730Y0105000D03*
D248*
X0146080Y0095811D03*
X0215270Y0095811D03*
D249*
X0271220Y0114189D03*
X0293920Y0095811D03*
D250*
X0329865Y0095811D03*
D251*
X0329595Y0096352D03*
D252*
X0215270Y0096892D03*
X0146080Y0096892D03*
D253*
X0073920Y0097432D03*
X0073920Y0103378D03*
X0275540Y0097432D03*
X0276080Y0098513D03*
D254*
X0334730Y0097432D03*
D255*
X0073650Y0097973D03*
X0073650Y0099054D03*
D256*
X0146350Y0097973D03*
D257*
X0215810Y0097973D03*
D258*
X0334730Y0097973D03*
D259*
X0294460Y0098513D03*
D260*
X0335000Y0098513D03*
D261*
X0294730Y0099054D03*
D262*
X0294730Y0099595D03*
D263*
X0335540Y0100135D03*
X0146890Y0100135D03*
D264*
X0173650Y0120135D03*
X0176350Y0122838D03*
X0216350Y0100135D03*
D265*
X0223920Y0123378D03*
X0226080Y0132567D03*
X0295270Y0100675D03*
D266*
X0236350Y0121756D03*
X0236350Y0123378D03*
X0224460Y0121756D03*
X0224460Y0120675D03*
X0224460Y0129324D03*
X0213110Y0129324D03*
X0213110Y0128243D03*
X0213110Y0126621D03*
X0213110Y0123378D03*
X0213110Y0121756D03*
X0213110Y0120675D03*
X0213110Y0118513D03*
X0213110Y0117432D03*
X0213110Y0131486D03*
X0213110Y0132567D03*
X0234190Y0138513D03*
X0176890Y0123378D03*
X0127700Y0112567D03*
X0127700Y0103378D03*
D267*
X0177975Y0106621D03*
D268*
X0177970Y0107162D03*
X0177430Y0123919D03*
X0223920Y0123919D03*
X0223920Y0122838D03*
X0235270Y0119054D03*
D269*
X0241760Y0114730D03*
X0177970Y0107702D03*
D270*
X0095270Y0108243D03*
D271*
X0112570Y0118513D03*
X0177970Y0108243D03*
D272*
X0088245Y0108784D03*
D273*
X0089325Y0109324D03*
D274*
X0090405Y0109865D03*
D275*
X0095810Y0110405D03*
D276*
X0096350Y0110946D03*
D277*
X0096890Y0111486D03*
D278*
X0097160Y0112027D03*
D279*
X0127975Y0112027D03*
D280*
X0097430Y0112567D03*
D281*
X0265270Y0112567D03*
D282*
X0097970Y0113108D03*
D283*
X0241215Y0113108D03*
D284*
X0270945Y0113108D03*
D285*
X0098515Y0113648D03*
D286*
X0178785Y0125541D03*
X0190135Y0134730D03*
X0190675Y0135270D03*
X0198785Y0135270D03*
X0199325Y0134730D03*
X0231215Y0130405D03*
X0241485Y0113648D03*
D287*
X0271220Y0113648D03*
D288*
X0099325Y0114189D03*
D289*
X0208515Y0134189D03*
X0241485Y0114189D03*
D290*
X0100135Y0114730D03*
D291*
X0194460Y0114730D03*
D292*
X0230680Y0114730D03*
X0242030Y0115270D03*
D293*
X0271490Y0114730D03*
D294*
X0230405Y0115270D03*
X0228245Y0134730D03*
D295*
X0176080Y0115811D03*
D296*
X0194730Y0115811D03*
D297*
X0213110Y0115811D03*
X0213110Y0125000D03*
X0213110Y0134189D03*
X0236350Y0125000D03*
D298*
X0230675Y0115811D03*
D299*
X0271760Y0115811D03*
D300*
X0176350Y0116352D03*
D301*
X0213110Y0116352D03*
X0213110Y0119595D03*
X0213110Y0122298D03*
X0213110Y0124459D03*
X0213110Y0125541D03*
X0213110Y0127702D03*
X0213110Y0130405D03*
X0213110Y0133648D03*
X0213110Y0134730D03*
X0225000Y0130405D03*
X0236350Y0124459D03*
X0236350Y0122298D03*
X0235810Y0119595D03*
X0225000Y0119595D03*
D302*
X0271755Y0116892D03*
D303*
X0111755Y0117432D03*
D304*
X0112300Y0117973D03*
X0272300Y0120135D03*
D305*
X0191215Y0117973D03*
X0190135Y0119054D03*
X0179325Y0126081D03*
X0179865Y0127162D03*
D306*
X0198245Y0117973D03*
D307*
X0224460Y0126081D03*
X0226620Y0117973D03*
X0234190Y0117973D03*
X0234730Y0127162D03*
D308*
X0212295Y0137432D03*
X0172295Y0118513D03*
D309*
X0175540Y0121756D03*
X0225810Y0118513D03*
X0235000Y0118513D03*
X0235540Y0126621D03*
D310*
X0226350Y0133108D03*
X0212840Y0137973D03*
X0175000Y0121216D03*
X0172840Y0119054D03*
D311*
X0181215Y0129865D03*
X0181215Y0130946D03*
X0181215Y0132027D03*
X0181215Y0133108D03*
X0188785Y0130946D03*
X0188785Y0129865D03*
X0188785Y0128784D03*
X0188245Y0127162D03*
X0188245Y0126081D03*
X0188785Y0123919D03*
X0188785Y0122838D03*
X0199055Y0119054D03*
X0199595Y0120135D03*
X0200135Y0121216D03*
X0200135Y0132027D03*
X0200135Y0133108D03*
D312*
X0199595Y0133648D03*
X0208785Y0134730D03*
X0200135Y0122298D03*
X0199595Y0119595D03*
X0189865Y0119595D03*
X0188785Y0122298D03*
X0188785Y0124459D03*
X0188245Y0125541D03*
X0188245Y0127702D03*
X0188785Y0130405D03*
X0189865Y0133648D03*
X0181215Y0133648D03*
X0181215Y0130405D03*
X0171485Y0135270D03*
D313*
X0180675Y0128784D03*
X0189325Y0132027D03*
X0189325Y0133108D03*
X0200675Y0129865D03*
X0200675Y0128784D03*
X0200675Y0127162D03*
X0200675Y0126081D03*
X0200675Y0123919D03*
X0189325Y0121216D03*
X0189325Y0120135D03*
D314*
X0174190Y0120675D03*
X0194730Y0138513D03*
D315*
X0189325Y0132567D03*
X0180675Y0128243D03*
X0189325Y0121756D03*
X0189325Y0120675D03*
X0200675Y0126621D03*
X0200675Y0128243D03*
X0200675Y0129324D03*
D316*
X0200135Y0131486D03*
X0200135Y0132567D03*
X0200135Y0121756D03*
X0200135Y0120675D03*
X0188785Y0123378D03*
X0188245Y0126621D03*
X0188245Y0128243D03*
X0188785Y0129324D03*
X0181215Y0129324D03*
X0181215Y0131486D03*
X0181215Y0132567D03*
X0179595Y0126621D03*
D317*
X0177975Y0124459D03*
X0180135Y0135270D03*
D318*
X0200675Y0130405D03*
X0200675Y0127702D03*
X0200675Y0125541D03*
X0200675Y0124459D03*
D319*
X0223920Y0124459D03*
D320*
X0178245Y0125000D03*
D321*
X0188515Y0125000D03*
D322*
X0200675Y0125000D03*
D323*
X0224190Y0125000D03*
D324*
X0225000Y0127162D03*
D325*
X0180405Y0127702D03*
X0180945Y0134730D03*
D326*
X0224730Y0129865D03*
D327*
X0207970Y0133648D03*
D328*
X0170410Y0134189D03*
D329*
X0181215Y0134189D03*
X0189865Y0134189D03*
X0199595Y0134189D03*
D330*
X0227430Y0134189D03*
D331*
X0170950Y0134730D03*
D332*
X0176080Y0135811D03*
D333*
X0191485Y0135811D03*
X0197975Y0135811D03*
D334*
X0175810Y0136352D03*
D335*
X0195000Y0136352D03*
D336*
X0195000Y0136892D03*
M02*
