G75*
%MOIN*%
%OFA0B0*%
%FSLAX25Y25*%
%IPPOS*%
%LPD*%
%AMOC8*
5,1,8,0,0,1.08239X$1,22.5*
%
%ADD10C,0.07677*%
%ADD11C,0.07400*%
%ADD12OC8,0.06800*%
%ADD13C,0.01600*%
%ADD14C,0.43370*%
D10*
X0204961Y0063543D03*
X0204961Y0142283D03*
D11*
X0127913Y0113465D03*
X0127913Y0103465D03*
X0111339Y0124016D03*
X0071339Y0124016D03*
X0044567Y0125984D03*
X0044567Y0115984D03*
X0107795Y0189370D03*
X0107795Y0199370D03*
X0183622Y0206693D03*
X0198622Y0223858D03*
X0208622Y0223858D03*
X0223622Y0206693D03*
X0300433Y0197205D03*
X0300433Y0187205D03*
X0364803Y0124370D03*
X0364803Y0114370D03*
X0340197Y0122874D03*
X0300197Y0122874D03*
X0217524Y0044924D03*
X0217524Y0027124D03*
X0191924Y0027124D03*
X0191924Y0044924D03*
D12*
X0189606Y0157598D03*
X0189606Y0167598D03*
X0189606Y0177598D03*
X0189606Y0187598D03*
X0219606Y0187598D03*
X0219606Y0177598D03*
X0219606Y0167598D03*
X0219606Y0157598D03*
D13*
X0127913Y0068622D02*
X0162402Y0034134D01*
X0260512Y0034134D01*
X0340197Y0113819D01*
X0340197Y0122874D01*
X0300433Y0162638D01*
X0300433Y0187205D01*
X0296716Y0183426D02*
X0230156Y0183426D01*
X0230156Y0181828D02*
X0298033Y0181828D01*
X0298033Y0182462D02*
X0298033Y0162160D01*
X0298398Y0161278D01*
X0335146Y0124530D01*
X0334897Y0123928D01*
X0334897Y0121820D01*
X0335704Y0119872D01*
X0337195Y0118381D01*
X0337797Y0118131D01*
X0337797Y0114813D01*
X0259518Y0036534D01*
X0163396Y0036534D01*
X0130313Y0069616D01*
X0130313Y0098722D01*
X0130916Y0098971D01*
X0132406Y0100462D01*
X0133213Y0102410D01*
X0133213Y0104519D01*
X0132406Y0106467D01*
X0130916Y0107958D01*
X0129692Y0108465D01*
X0130916Y0108971D01*
X0132406Y0110462D01*
X0133213Y0112410D01*
X0133213Y0114519D01*
X0132406Y0116467D01*
X0130916Y0117958D01*
X0128968Y0118765D01*
X0126859Y0118765D01*
X0124911Y0117958D01*
X0123420Y0116467D01*
X0122613Y0114519D01*
X0122613Y0112410D01*
X0122863Y0111808D01*
X0117234Y0106180D01*
X0038750Y0106180D01*
X0035156Y0109774D01*
X0035156Y0112785D01*
X0039267Y0116896D01*
X0039267Y0114930D01*
X0040074Y0112982D01*
X0041565Y0111491D01*
X0043513Y0110684D01*
X0045621Y0110684D01*
X0047569Y0111491D01*
X0049060Y0112982D01*
X0049309Y0113584D01*
X0063784Y0113584D01*
X0064667Y0113950D01*
X0069682Y0118965D01*
X0070284Y0118716D01*
X0072393Y0118716D01*
X0074341Y0119523D01*
X0075832Y0121014D01*
X0076639Y0122962D01*
X0076639Y0125070D01*
X0076389Y0125672D01*
X0109155Y0158438D01*
X0109830Y0159113D01*
X0110195Y0159995D01*
X0110195Y0184628D01*
X0110797Y0184877D01*
X0112288Y0186368D01*
X0112538Y0186970D01*
X0175899Y0186970D01*
X0115865Y0126937D01*
X0115832Y0127018D01*
X0114341Y0128509D01*
X0112393Y0129316D01*
X0110284Y0129316D01*
X0108336Y0128509D01*
X0106845Y0127018D01*
X0106039Y0125070D01*
X0106039Y0122962D01*
X0106845Y0121014D01*
X0108336Y0119523D01*
X0110284Y0118716D01*
X0112393Y0118716D01*
X0114341Y0119523D01*
X0115832Y0121014D01*
X0116081Y0121616D01*
X0116816Y0121616D01*
X0117698Y0121981D01*
X0184606Y0188889D01*
X0184606Y0185527D01*
X0187535Y0182598D01*
X0184606Y0179669D01*
X0184606Y0175527D01*
X0187535Y0172598D01*
X0184606Y0169669D01*
X0184606Y0165527D01*
X0187535Y0162598D01*
X0184606Y0159669D01*
X0184606Y0155527D01*
X0187535Y0152598D01*
X0191677Y0152598D01*
X0194606Y0155527D01*
X0194606Y0159669D01*
X0191677Y0162598D01*
X0187535Y0162598D01*
X0191677Y0162598D01*
X0193610Y0164531D01*
X0195356Y0162785D01*
X0195356Y0059992D01*
X0195312Y0059821D01*
X0195356Y0059519D01*
X0195356Y0059215D01*
X0195424Y0059051D01*
X0195449Y0058876D01*
X0195605Y0058614D01*
X0195721Y0058333D01*
X0195847Y0058207D01*
X0195937Y0058055D01*
X0196181Y0057873D01*
X0196396Y0057658D01*
X0196560Y0057590D01*
X0212224Y0045887D01*
X0212224Y0043869D01*
X0213031Y0041921D01*
X0214522Y0040430D01*
X0216470Y0039624D01*
X0218579Y0039624D01*
X0220527Y0040430D01*
X0222018Y0041921D01*
X0222824Y0043869D01*
X0222824Y0045978D01*
X0222018Y0047926D01*
X0220527Y0049417D01*
X0218579Y0050224D01*
X0216470Y0050224D01*
X0215164Y0049683D01*
X0203891Y0058105D01*
X0206042Y0058105D01*
X0208041Y0058933D01*
X0209571Y0060463D01*
X0210399Y0062461D01*
X0210399Y0064625D01*
X0209571Y0066624D01*
X0208041Y0068154D01*
X0206042Y0068982D01*
X0203879Y0068982D01*
X0201880Y0068154D01*
X0200350Y0066624D01*
X0200156Y0066155D01*
X0200156Y0139304D01*
X0200660Y0138610D01*
X0201287Y0137983D01*
X0202005Y0137461D01*
X0202796Y0137058D01*
X0203640Y0136784D01*
X0204481Y0136651D01*
X0204481Y0141804D01*
X0205440Y0141804D01*
X0205440Y0136651D01*
X0206281Y0136784D01*
X0207125Y0137058D01*
X0207916Y0137461D01*
X0208634Y0137983D01*
X0209261Y0138610D01*
X0209783Y0139328D01*
X0210186Y0140119D01*
X0210460Y0140963D01*
X0210594Y0141804D01*
X0205440Y0141804D01*
X0205440Y0142763D01*
X0204481Y0142763D01*
X0204481Y0147916D01*
X0203640Y0147783D01*
X0202796Y0147509D01*
X0202005Y0147106D01*
X0201287Y0146584D01*
X0200660Y0145957D01*
X0200156Y0145263D01*
X0200156Y0164257D01*
X0199791Y0165139D01*
X0199115Y0165814D01*
X0195296Y0169633D01*
X0194414Y0169998D01*
X0194277Y0169998D01*
X0191677Y0172598D01*
X0194606Y0175527D01*
X0194606Y0179669D01*
X0191677Y0182598D01*
X0187535Y0182598D01*
X0191677Y0182598D01*
X0194606Y0185527D01*
X0194606Y0189669D01*
X0191677Y0192598D01*
X0188315Y0192598D01*
X0189065Y0193348D01*
X0210463Y0193348D01*
X0214606Y0189204D01*
X0214606Y0185527D01*
X0217535Y0182598D01*
X0214606Y0179669D01*
X0214606Y0175993D01*
X0210721Y0172108D01*
X0210356Y0171225D01*
X0210356Y0153302D01*
X0210721Y0152420D01*
X0211396Y0151745D01*
X0242302Y0120839D01*
X0243184Y0120474D01*
X0295454Y0120474D01*
X0295704Y0119872D01*
X0297195Y0118381D01*
X0299143Y0117574D01*
X0301251Y0117574D01*
X0303199Y0118381D01*
X0304690Y0119872D01*
X0305497Y0121820D01*
X0305497Y0123928D01*
X0304690Y0125876D01*
X0303199Y0127367D01*
X0301251Y0128174D01*
X0299143Y0128174D01*
X0297195Y0127367D01*
X0295704Y0125876D01*
X0295454Y0125274D01*
X0244656Y0125274D01*
X0217531Y0152398D01*
X0219606Y0152398D01*
X0219606Y0157598D01*
X0219606Y0157598D01*
X0219606Y0152398D01*
X0221760Y0152398D01*
X0224806Y0155445D01*
X0224806Y0157598D01*
X0219606Y0157598D01*
X0219606Y0157598D01*
X0224806Y0157598D01*
X0224806Y0159752D01*
X0221819Y0162740D01*
X0224606Y0165527D01*
X0224606Y0169204D01*
X0229115Y0173713D01*
X0229791Y0174389D01*
X0230156Y0175271D01*
X0230156Y0199508D01*
X0230200Y0199684D01*
X0230156Y0199981D01*
X0230156Y0200281D01*
X0230086Y0200449D01*
X0230059Y0200629D01*
X0229905Y0200886D01*
X0229791Y0201163D01*
X0229662Y0201291D01*
X0228159Y0203796D01*
X0228922Y0205639D01*
X0228922Y0207747D01*
X0228115Y0209695D01*
X0226624Y0211186D01*
X0226157Y0211380D01*
X0236762Y0211380D01*
X0246396Y0201745D01*
X0247279Y0201380D01*
X0292864Y0201380D01*
X0295383Y0198861D01*
X0295133Y0198259D01*
X0295133Y0196150D01*
X0295940Y0194203D01*
X0297431Y0192712D01*
X0298655Y0192205D01*
X0297431Y0191698D01*
X0295940Y0190207D01*
X0295133Y0188259D01*
X0295133Y0186150D01*
X0295940Y0184203D01*
X0297431Y0182712D01*
X0298033Y0182462D01*
X0298033Y0180229D02*
X0230156Y0180229D01*
X0230156Y0178631D02*
X0298033Y0178631D01*
X0298033Y0177032D02*
X0230156Y0177032D01*
X0230156Y0175434D02*
X0298033Y0175434D01*
X0298033Y0173835D02*
X0229237Y0173835D01*
X0227639Y0172237D02*
X0298033Y0172237D01*
X0298033Y0170638D02*
X0226040Y0170638D01*
X0224606Y0169040D02*
X0298033Y0169040D01*
X0298033Y0167441D02*
X0224606Y0167441D01*
X0224606Y0165843D02*
X0298033Y0165843D01*
X0298033Y0164244D02*
X0223323Y0164244D01*
X0221913Y0162646D02*
X0298033Y0162646D01*
X0298630Y0161047D02*
X0223512Y0161047D01*
X0224806Y0159449D02*
X0300228Y0159449D01*
X0301827Y0157850D02*
X0224806Y0157850D01*
X0224806Y0156252D02*
X0303425Y0156252D01*
X0305024Y0154653D02*
X0224015Y0154653D01*
X0222416Y0153054D02*
X0306622Y0153054D01*
X0308221Y0151456D02*
X0218474Y0151456D01*
X0219606Y0153054D02*
X0219606Y0153054D01*
X0219606Y0154653D02*
X0219606Y0154653D01*
X0219606Y0156252D02*
X0219606Y0156252D01*
X0220072Y0149857D02*
X0309819Y0149857D01*
X0311418Y0148259D02*
X0221671Y0148259D01*
X0223269Y0146660D02*
X0313016Y0146660D01*
X0314615Y0145062D02*
X0224868Y0145062D01*
X0226466Y0143463D02*
X0316213Y0143463D01*
X0317812Y0141865D02*
X0228065Y0141865D01*
X0229663Y0140266D02*
X0319410Y0140266D01*
X0321009Y0138668D02*
X0231262Y0138668D01*
X0232860Y0137069D02*
X0322607Y0137069D01*
X0324206Y0135471D02*
X0234459Y0135471D01*
X0236057Y0133872D02*
X0325804Y0133872D01*
X0327403Y0132274D02*
X0237656Y0132274D01*
X0239254Y0130675D02*
X0329001Y0130675D01*
X0330600Y0129077D02*
X0240853Y0129077D01*
X0242451Y0127478D02*
X0297463Y0127478D01*
X0295707Y0125880D02*
X0244050Y0125880D01*
X0243661Y0122874D02*
X0212756Y0153780D01*
X0212756Y0170748D01*
X0219606Y0177598D01*
X0214606Y0177032D02*
X0194606Y0177032D01*
X0194606Y0178631D02*
X0214606Y0178631D01*
X0215166Y0180229D02*
X0194047Y0180229D01*
X0192448Y0181828D02*
X0216765Y0181828D01*
X0217535Y0182598D02*
X0221677Y0182598D01*
X0224606Y0179669D01*
X0224606Y0175993D01*
X0225356Y0176742D01*
X0225356Y0199138D01*
X0224003Y0201393D01*
X0222568Y0201393D01*
X0220620Y0202200D01*
X0219129Y0203691D01*
X0218322Y0205639D01*
X0218322Y0207747D01*
X0219129Y0209695D01*
X0220620Y0211186D01*
X0221087Y0211380D01*
X0208750Y0211380D01*
X0204115Y0206745D01*
X0203233Y0206380D01*
X0195994Y0206380D01*
X0187763Y0198148D01*
X0211934Y0198148D01*
X0212816Y0197783D01*
X0213491Y0197108D01*
X0218000Y0192598D01*
X0221677Y0192598D01*
X0224606Y0189669D01*
X0224606Y0185527D01*
X0221677Y0182598D01*
X0217535Y0182598D01*
X0216707Y0183426D02*
X0192505Y0183426D01*
X0194104Y0185025D02*
X0215109Y0185025D01*
X0214606Y0186623D02*
X0194606Y0186623D01*
X0194606Y0188222D02*
X0214606Y0188222D01*
X0213990Y0189820D02*
X0194456Y0189820D01*
X0192857Y0191419D02*
X0212392Y0191419D01*
X0210793Y0193017D02*
X0188734Y0193017D01*
X0188071Y0195748D02*
X0211457Y0195748D01*
X0219606Y0187598D01*
X0222857Y0191419D02*
X0225356Y0191419D01*
X0225356Y0193017D02*
X0217582Y0193017D01*
X0215983Y0194616D02*
X0225356Y0194616D01*
X0225356Y0196214D02*
X0214385Y0196214D01*
X0212743Y0197813D02*
X0225356Y0197813D01*
X0225192Y0199411D02*
X0189026Y0199411D01*
X0190624Y0201010D02*
X0224233Y0201010D01*
X0227756Y0199803D02*
X0223622Y0206693D01*
X0220035Y0210601D02*
X0207971Y0210601D01*
X0206373Y0209002D02*
X0218842Y0209002D01*
X0218322Y0207404D02*
X0204774Y0207404D01*
X0202756Y0208780D02*
X0207756Y0213780D01*
X0237756Y0213780D01*
X0247756Y0203780D01*
X0293858Y0203780D01*
X0300433Y0197205D01*
X0318858Y0178780D01*
X0372756Y0178780D01*
X0382756Y0168780D01*
X0382756Y0133780D01*
X0373346Y0124370D01*
X0364803Y0124370D01*
X0364803Y0114370D02*
X0365394Y0113780D01*
X0377756Y0113780D01*
X0387756Y0123780D01*
X0387756Y0173780D01*
X0377756Y0183780D01*
X0322756Y0183780D01*
X0297756Y0208780D01*
X0252756Y0208780D01*
X0237677Y0223858D01*
X0208622Y0223858D01*
X0198622Y0223858D02*
X0183425Y0208661D01*
X0183622Y0206693D01*
X0178661Y0199370D01*
X0107795Y0199370D01*
X0092205Y0183780D01*
X0032756Y0183780D01*
X0022756Y0173780D01*
X0022756Y0147795D01*
X0044567Y0125984D01*
X0044567Y0125591D01*
X0032756Y0113780D01*
X0032756Y0108780D01*
X0037756Y0103780D01*
X0118228Y0103780D01*
X0127913Y0113465D01*
X0127598Y0113780D01*
X0123347Y0116289D02*
X0067006Y0116289D01*
X0068604Y0117887D02*
X0124841Y0117887D01*
X0122684Y0114690D02*
X0065407Y0114690D01*
X0063307Y0115984D02*
X0071339Y0124016D01*
X0107795Y0160472D01*
X0107795Y0189370D01*
X0175591Y0189370D01*
X0195000Y0208780D01*
X0202756Y0208780D01*
X0195420Y0205805D02*
X0218322Y0205805D01*
X0218915Y0204207D02*
X0193821Y0204207D01*
X0192223Y0202608D02*
X0220211Y0202608D01*
X0227756Y0199803D02*
X0227756Y0175748D01*
X0219606Y0167598D01*
X0210356Y0167441D02*
X0197488Y0167441D01*
X0195890Y0169040D02*
X0210356Y0169040D01*
X0210356Y0170638D02*
X0193638Y0170638D01*
X0192039Y0172237D02*
X0210850Y0172237D01*
X0212449Y0173835D02*
X0192914Y0173835D01*
X0191677Y0172598D02*
X0187535Y0172598D01*
X0191677Y0172598D01*
X0194513Y0175434D02*
X0214047Y0175434D01*
X0222448Y0181828D02*
X0225356Y0181828D01*
X0225356Y0183426D02*
X0222505Y0183426D01*
X0224104Y0185025D02*
X0225356Y0185025D01*
X0225356Y0186623D02*
X0224606Y0186623D01*
X0224606Y0188222D02*
X0225356Y0188222D01*
X0225356Y0189820D02*
X0224456Y0189820D01*
X0230156Y0189820D02*
X0295780Y0189820D01*
X0295133Y0188222D02*
X0230156Y0188222D01*
X0230156Y0186623D02*
X0295133Y0186623D01*
X0295599Y0185025D02*
X0230156Y0185025D01*
X0230156Y0191419D02*
X0297152Y0191419D01*
X0297125Y0193017D02*
X0230156Y0193017D01*
X0230156Y0194616D02*
X0295769Y0194616D01*
X0295133Y0196214D02*
X0230156Y0196214D01*
X0230156Y0197813D02*
X0295133Y0197813D01*
X0294832Y0199411D02*
X0230156Y0199411D01*
X0229854Y0201010D02*
X0293234Y0201010D01*
X0245533Y0202608D02*
X0228872Y0202608D01*
X0228329Y0204207D02*
X0243934Y0204207D01*
X0242336Y0205805D02*
X0228922Y0205805D01*
X0228922Y0207404D02*
X0240737Y0207404D01*
X0239139Y0209002D02*
X0228402Y0209002D01*
X0227209Y0210601D02*
X0237540Y0210601D01*
X0225356Y0180229D02*
X0224047Y0180229D01*
X0224606Y0178631D02*
X0225356Y0178631D01*
X0225356Y0177032D02*
X0224606Y0177032D01*
X0210356Y0165843D02*
X0199087Y0165843D01*
X0200156Y0164244D02*
X0210356Y0164244D01*
X0210356Y0162646D02*
X0200156Y0162646D01*
X0200156Y0161047D02*
X0210356Y0161047D01*
X0210356Y0159449D02*
X0200156Y0159449D01*
X0200156Y0157850D02*
X0210356Y0157850D01*
X0210356Y0156252D02*
X0200156Y0156252D01*
X0200156Y0154653D02*
X0210356Y0154653D01*
X0210458Y0153054D02*
X0200156Y0153054D01*
X0200156Y0151456D02*
X0211685Y0151456D01*
X0213284Y0149857D02*
X0200156Y0149857D01*
X0200156Y0148259D02*
X0214882Y0148259D01*
X0216481Y0146660D02*
X0208529Y0146660D01*
X0208634Y0146584D02*
X0207916Y0147106D01*
X0207125Y0147509D01*
X0206281Y0147783D01*
X0205440Y0147916D01*
X0205440Y0142763D01*
X0210594Y0142763D01*
X0210460Y0143604D01*
X0210186Y0144448D01*
X0209783Y0145239D01*
X0209261Y0145957D01*
X0208634Y0146584D01*
X0209873Y0145062D02*
X0218079Y0145062D01*
X0219678Y0143463D02*
X0210483Y0143463D01*
X0210234Y0140266D02*
X0222875Y0140266D01*
X0224473Y0138668D02*
X0209303Y0138668D01*
X0207147Y0137069D02*
X0226072Y0137069D01*
X0227670Y0135471D02*
X0200156Y0135471D01*
X0200156Y0137069D02*
X0202774Y0137069D01*
X0204481Y0137069D02*
X0205440Y0137069D01*
X0205440Y0138668D02*
X0204481Y0138668D01*
X0204481Y0140266D02*
X0205440Y0140266D01*
X0205440Y0141865D02*
X0221276Y0141865D01*
X0229269Y0133872D02*
X0200156Y0133872D01*
X0200156Y0132274D02*
X0230867Y0132274D01*
X0232466Y0130675D02*
X0200156Y0130675D01*
X0200156Y0129077D02*
X0234065Y0129077D01*
X0235663Y0127478D02*
X0200156Y0127478D01*
X0200156Y0125880D02*
X0237262Y0125880D01*
X0238860Y0124281D02*
X0200156Y0124281D01*
X0200156Y0122683D02*
X0240459Y0122683D01*
X0242057Y0121084D02*
X0200156Y0121084D01*
X0200156Y0119486D02*
X0296090Y0119486D01*
X0298386Y0117887D02*
X0200156Y0117887D01*
X0200156Y0116289D02*
X0337797Y0116289D01*
X0337797Y0117887D02*
X0302007Y0117887D01*
X0304304Y0119486D02*
X0336090Y0119486D01*
X0335202Y0121084D02*
X0305192Y0121084D01*
X0305497Y0122683D02*
X0334897Y0122683D01*
X0335043Y0124281D02*
X0305351Y0124281D01*
X0304686Y0125880D02*
X0333797Y0125880D01*
X0332198Y0127478D02*
X0302931Y0127478D01*
X0300197Y0122874D02*
X0243661Y0122874D01*
X0205440Y0143463D02*
X0204481Y0143463D01*
X0204481Y0145062D02*
X0205440Y0145062D01*
X0205440Y0146660D02*
X0204481Y0146660D01*
X0201392Y0146660D02*
X0200156Y0146660D01*
X0195356Y0146660D02*
X0142377Y0146660D01*
X0140779Y0145062D02*
X0195356Y0145062D01*
X0195356Y0143463D02*
X0139180Y0143463D01*
X0137582Y0141865D02*
X0195356Y0141865D01*
X0195356Y0140266D02*
X0135983Y0140266D01*
X0134385Y0138668D02*
X0195356Y0138668D01*
X0195356Y0137069D02*
X0132786Y0137069D01*
X0131188Y0135471D02*
X0195356Y0135471D01*
X0195356Y0133872D02*
X0129589Y0133872D01*
X0127991Y0132274D02*
X0195356Y0132274D01*
X0195356Y0130675D02*
X0126392Y0130675D01*
X0124794Y0129077D02*
X0195356Y0129077D01*
X0195356Y0127478D02*
X0123195Y0127478D01*
X0121597Y0125880D02*
X0195356Y0125880D01*
X0195356Y0124281D02*
X0119998Y0124281D01*
X0118400Y0122683D02*
X0195356Y0122683D01*
X0195356Y0121084D02*
X0115861Y0121084D01*
X0114252Y0119486D02*
X0195356Y0119486D01*
X0195356Y0117887D02*
X0130986Y0117887D01*
X0132480Y0116289D02*
X0195356Y0116289D01*
X0195356Y0114690D02*
X0133142Y0114690D01*
X0133213Y0113092D02*
X0195356Y0113092D01*
X0195356Y0111493D02*
X0132833Y0111493D01*
X0131839Y0109895D02*
X0195356Y0109895D01*
X0195356Y0108296D02*
X0130098Y0108296D01*
X0132176Y0106698D02*
X0195356Y0106698D01*
X0195356Y0105099D02*
X0132973Y0105099D01*
X0133213Y0103501D02*
X0195356Y0103501D01*
X0195356Y0101902D02*
X0133003Y0101902D01*
X0132248Y0100304D02*
X0195356Y0100304D01*
X0195356Y0098705D02*
X0130313Y0098705D01*
X0130313Y0097107D02*
X0195356Y0097107D01*
X0195356Y0095508D02*
X0130313Y0095508D01*
X0130313Y0093910D02*
X0195356Y0093910D01*
X0195356Y0092311D02*
X0130313Y0092311D01*
X0130313Y0090713D02*
X0195356Y0090713D01*
X0195356Y0089114D02*
X0130313Y0089114D01*
X0130313Y0087516D02*
X0195356Y0087516D01*
X0195356Y0085917D02*
X0130313Y0085917D01*
X0130313Y0084318D02*
X0195356Y0084318D01*
X0195356Y0082720D02*
X0130313Y0082720D01*
X0130313Y0081121D02*
X0195356Y0081121D01*
X0195356Y0079523D02*
X0130313Y0079523D01*
X0130313Y0077924D02*
X0195356Y0077924D01*
X0195356Y0076326D02*
X0130313Y0076326D01*
X0130313Y0074727D02*
X0195356Y0074727D01*
X0195356Y0073129D02*
X0130313Y0073129D01*
X0130313Y0071530D02*
X0195356Y0071530D01*
X0195356Y0069932D02*
X0130313Y0069932D01*
X0131596Y0068333D02*
X0195356Y0068333D01*
X0195356Y0066735D02*
X0133195Y0066735D01*
X0134793Y0065136D02*
X0195356Y0065136D01*
X0195356Y0063538D02*
X0136392Y0063538D01*
X0137990Y0061939D02*
X0195356Y0061939D01*
X0195356Y0060341D02*
X0139589Y0060341D01*
X0141187Y0058742D02*
X0195528Y0058742D01*
X0197157Y0057144D02*
X0142786Y0057144D01*
X0144384Y0055545D02*
X0199297Y0055545D01*
X0201436Y0053947D02*
X0145983Y0053947D01*
X0147581Y0052348D02*
X0203576Y0052348D01*
X0205716Y0050750D02*
X0149180Y0050750D01*
X0150778Y0049151D02*
X0188657Y0049151D01*
X0188922Y0049417D02*
X0187431Y0047926D01*
X0186624Y0045978D01*
X0186624Y0043869D01*
X0187431Y0041921D01*
X0188922Y0040430D01*
X0190870Y0039624D01*
X0192979Y0039624D01*
X0194927Y0040430D01*
X0196418Y0041921D01*
X0197224Y0043869D01*
X0197224Y0045978D01*
X0196418Y0047926D01*
X0194927Y0049417D01*
X0192979Y0050224D01*
X0190870Y0050224D01*
X0188922Y0049417D01*
X0187277Y0047553D02*
X0152377Y0047553D01*
X0153975Y0045954D02*
X0186624Y0045954D01*
X0186624Y0044356D02*
X0155574Y0044356D01*
X0157172Y0042757D02*
X0187085Y0042757D01*
X0188194Y0041159D02*
X0158771Y0041159D01*
X0160369Y0039560D02*
X0262544Y0039560D01*
X0260946Y0037962D02*
X0161968Y0037962D01*
X0195655Y0041159D02*
X0213794Y0041159D01*
X0212685Y0042757D02*
X0196764Y0042757D01*
X0197224Y0044356D02*
X0212224Y0044356D01*
X0212135Y0045954D02*
X0197224Y0045954D01*
X0196572Y0047553D02*
X0209995Y0047553D01*
X0207855Y0049151D02*
X0195192Y0049151D01*
X0197756Y0059692D02*
X0217524Y0044924D01*
X0221255Y0041159D02*
X0264143Y0041159D01*
X0265741Y0042757D02*
X0222364Y0042757D01*
X0222824Y0044356D02*
X0267340Y0044356D01*
X0268938Y0045954D02*
X0222824Y0045954D01*
X0222172Y0047553D02*
X0270537Y0047553D01*
X0272135Y0049151D02*
X0220792Y0049151D01*
X0213736Y0050750D02*
X0273734Y0050750D01*
X0275332Y0052348D02*
X0211596Y0052348D01*
X0209456Y0053947D02*
X0276931Y0053947D01*
X0278529Y0055545D02*
X0207317Y0055545D01*
X0205177Y0057144D02*
X0280128Y0057144D01*
X0281726Y0058742D02*
X0207582Y0058742D01*
X0209449Y0060341D02*
X0283325Y0060341D01*
X0284923Y0061939D02*
X0210183Y0061939D01*
X0210399Y0063538D02*
X0286522Y0063538D01*
X0288120Y0065136D02*
X0210187Y0065136D01*
X0209460Y0066735D02*
X0289719Y0066735D01*
X0291317Y0068333D02*
X0207608Y0068333D01*
X0202313Y0068333D02*
X0200156Y0068333D01*
X0200156Y0066735D02*
X0200461Y0066735D01*
X0200156Y0069932D02*
X0292916Y0069932D01*
X0294514Y0071530D02*
X0200156Y0071530D01*
X0200156Y0073129D02*
X0296113Y0073129D01*
X0297711Y0074727D02*
X0200156Y0074727D01*
X0200156Y0076326D02*
X0299310Y0076326D01*
X0300908Y0077924D02*
X0200156Y0077924D01*
X0200156Y0079523D02*
X0302507Y0079523D01*
X0304105Y0081121D02*
X0200156Y0081121D01*
X0200156Y0082720D02*
X0305704Y0082720D01*
X0307302Y0084318D02*
X0200156Y0084318D01*
X0200156Y0085917D02*
X0308901Y0085917D01*
X0310499Y0087516D02*
X0200156Y0087516D01*
X0200156Y0089114D02*
X0312098Y0089114D01*
X0313696Y0090713D02*
X0200156Y0090713D01*
X0200156Y0092311D02*
X0315295Y0092311D01*
X0316893Y0093910D02*
X0200156Y0093910D01*
X0200156Y0095508D02*
X0318492Y0095508D01*
X0320090Y0097107D02*
X0200156Y0097107D01*
X0200156Y0098705D02*
X0321689Y0098705D01*
X0323287Y0100304D02*
X0200156Y0100304D01*
X0200156Y0101902D02*
X0324886Y0101902D01*
X0326484Y0103501D02*
X0200156Y0103501D01*
X0200156Y0105099D02*
X0328083Y0105099D01*
X0329681Y0106698D02*
X0200156Y0106698D01*
X0200156Y0108296D02*
X0331280Y0108296D01*
X0332879Y0109895D02*
X0200156Y0109895D01*
X0200156Y0111493D02*
X0334477Y0111493D01*
X0336076Y0113092D02*
X0200156Y0113092D01*
X0200156Y0114690D02*
X0337674Y0114690D01*
X0340197Y0122874D02*
X0348701Y0114370D01*
X0364803Y0114370D01*
X0200618Y0138668D02*
X0200156Y0138668D01*
X0195356Y0148259D02*
X0143976Y0148259D01*
X0145574Y0149857D02*
X0195356Y0149857D01*
X0195356Y0151456D02*
X0147173Y0151456D01*
X0148771Y0153054D02*
X0187079Y0153054D01*
X0185481Y0154653D02*
X0150370Y0154653D01*
X0151968Y0156252D02*
X0184606Y0156252D01*
X0184606Y0157850D02*
X0153567Y0157850D01*
X0155165Y0159449D02*
X0184606Y0159449D01*
X0185984Y0161047D02*
X0156764Y0161047D01*
X0158362Y0162646D02*
X0187488Y0162646D01*
X0185890Y0164244D02*
X0159961Y0164244D01*
X0161559Y0165843D02*
X0184606Y0165843D01*
X0184606Y0167441D02*
X0163158Y0167441D01*
X0164757Y0169040D02*
X0184606Y0169040D01*
X0185575Y0170638D02*
X0166355Y0170638D01*
X0167954Y0172237D02*
X0187173Y0172237D01*
X0186299Y0173835D02*
X0169552Y0173835D01*
X0171151Y0175434D02*
X0184700Y0175434D01*
X0184606Y0177032D02*
X0172749Y0177032D01*
X0174348Y0178631D02*
X0184606Y0178631D01*
X0185166Y0180229D02*
X0175946Y0180229D01*
X0177545Y0181828D02*
X0186765Y0181828D01*
X0186707Y0183426D02*
X0179143Y0183426D01*
X0180742Y0185025D02*
X0185109Y0185025D01*
X0184606Y0186623D02*
X0182340Y0186623D01*
X0183939Y0188222D02*
X0184606Y0188222D01*
X0188071Y0195748D02*
X0116339Y0124016D01*
X0111339Y0124016D01*
X0106374Y0125880D02*
X0076597Y0125880D01*
X0076639Y0124281D02*
X0106039Y0124281D01*
X0106154Y0122683D02*
X0076523Y0122683D01*
X0075861Y0121084D02*
X0106816Y0121084D01*
X0108425Y0119486D02*
X0074252Y0119486D01*
X0078195Y0127478D02*
X0107306Y0127478D01*
X0109708Y0129077D02*
X0079794Y0129077D01*
X0081392Y0130675D02*
X0119604Y0130675D01*
X0118006Y0129077D02*
X0112970Y0129077D01*
X0115371Y0127478D02*
X0116407Y0127478D01*
X0121203Y0132274D02*
X0082991Y0132274D01*
X0084589Y0133872D02*
X0122801Y0133872D01*
X0124400Y0135471D02*
X0086188Y0135471D01*
X0087786Y0137069D02*
X0125998Y0137069D01*
X0127597Y0138668D02*
X0089385Y0138668D01*
X0090983Y0140266D02*
X0129195Y0140266D01*
X0130794Y0141865D02*
X0092582Y0141865D01*
X0094180Y0143463D02*
X0132392Y0143463D01*
X0133991Y0145062D02*
X0095779Y0145062D01*
X0097377Y0146660D02*
X0135589Y0146660D01*
X0137188Y0148259D02*
X0098976Y0148259D01*
X0100574Y0149857D02*
X0138786Y0149857D01*
X0140385Y0151456D02*
X0102173Y0151456D01*
X0103771Y0153054D02*
X0141983Y0153054D01*
X0143582Y0154653D02*
X0105370Y0154653D01*
X0106968Y0156252D02*
X0145180Y0156252D01*
X0146779Y0157850D02*
X0108567Y0157850D01*
X0109969Y0159449D02*
X0148377Y0159449D01*
X0149976Y0161047D02*
X0110195Y0161047D01*
X0110195Y0162646D02*
X0151574Y0162646D01*
X0153173Y0164244D02*
X0110195Y0164244D01*
X0110195Y0165843D02*
X0154771Y0165843D01*
X0156370Y0167441D02*
X0110195Y0167441D01*
X0110195Y0169040D02*
X0157968Y0169040D01*
X0159567Y0170638D02*
X0110195Y0170638D01*
X0110195Y0172237D02*
X0161165Y0172237D01*
X0162764Y0173835D02*
X0110195Y0173835D01*
X0110195Y0175434D02*
X0164362Y0175434D01*
X0165961Y0177032D02*
X0110195Y0177032D01*
X0110195Y0178631D02*
X0167559Y0178631D01*
X0169158Y0180229D02*
X0110195Y0180229D01*
X0110195Y0181828D02*
X0170756Y0181828D01*
X0172355Y0183426D02*
X0110195Y0183426D01*
X0110945Y0185025D02*
X0173953Y0185025D01*
X0175552Y0186623D02*
X0112394Y0186623D01*
X0189606Y0167598D02*
X0193937Y0167598D01*
X0197756Y0163780D01*
X0197756Y0059692D01*
X0127913Y0068622D02*
X0127913Y0103465D01*
X0120949Y0109895D02*
X0035156Y0109895D01*
X0035156Y0111493D02*
X0041563Y0111493D01*
X0040028Y0113092D02*
X0035462Y0113092D01*
X0037061Y0114690D02*
X0039366Y0114690D01*
X0039267Y0116289D02*
X0038659Y0116289D01*
X0044567Y0115984D02*
X0063307Y0115984D01*
X0049105Y0113092D02*
X0122613Y0113092D01*
X0122548Y0111493D02*
X0047571Y0111493D01*
X0038232Y0106698D02*
X0117752Y0106698D01*
X0119351Y0108296D02*
X0036633Y0108296D01*
X0192133Y0153054D02*
X0195356Y0153054D01*
X0195356Y0154653D02*
X0193732Y0154653D01*
X0194606Y0156252D02*
X0195356Y0156252D01*
X0195356Y0157850D02*
X0194606Y0157850D01*
X0194606Y0159449D02*
X0195356Y0159449D01*
X0195356Y0161047D02*
X0193229Y0161047D01*
X0191724Y0162646D02*
X0195356Y0162646D01*
X0193897Y0164244D02*
X0193323Y0164244D01*
D14*
X0203346Y0251457D03*
X0058346Y0150669D03*
X0350669Y0150079D03*
M02*
