G75*
%MOIN*%
%OFA0B0*%
%FSLAX25Y25*%
%IPPOS*%
%LPD*%
%AMOC8*
5,1,8,0,0,1.08239X$1,22.5*
%
%ADD10C,0.08477*%
%ADD11C,0.08200*%
%ADD12R,0.09855X0.07099*%
%ADD13OC8,0.07600*%
%ADD14C,0.06706*%
%ADD15C,0.17398*%
D10*
X0176063Y0146929D03*
X0254803Y0146929D03*
D11*
X0301496Y0188780D03*
X0301496Y0198780D03*
X0338425Y0258425D03*
X0338425Y0268425D03*
X0338425Y0278425D03*
X0378425Y0278425D03*
X0378425Y0268425D03*
X0378425Y0258425D03*
X0223425Y0208425D03*
X0203425Y0223425D03*
X0203425Y0233425D03*
X0183425Y0208425D03*
X0108228Y0200157D03*
X0108228Y0190157D03*
X0044409Y0127323D03*
X0044409Y0117323D03*
X0066575Y0126575D03*
X0106575Y0126575D03*
X0128661Y0113543D03*
X0128661Y0103543D03*
X0313425Y0128425D03*
X0353425Y0128425D03*
X0363819Y0126929D03*
X0363819Y0116929D03*
D12*
X0215709Y0146496D03*
X0190906Y0146496D03*
D13*
X0188425Y0161339D03*
X0188425Y0171339D03*
X0188425Y0181339D03*
X0188425Y0191339D03*
X0218425Y0191339D03*
X0218425Y0181339D03*
X0218425Y0171339D03*
X0218425Y0161339D03*
D14*
X0020039Y0024370D03*
X0044370Y0016811D03*
X0056811Y0054370D03*
X0162480Y0016811D03*
X0275039Y0162480D03*
X0162480Y0190039D03*
X0039370Y0250039D03*
X0026811Y0247480D03*
D15*
X0083937Y0202638D03*
X0203543Y0255394D03*
X0323898Y0204016D03*
M02*
