%
M48
M72
T01C0.0320
T02C0.0354
T03C0.0394
T04C0.0400
T05C0.0512
T06C0.3937
%
T01
X12768Y10098
X12768Y11098
X18961Y15760
X18961Y16760
X18961Y17760
X18961Y18760
X21961Y18760
X21961Y17760
X21961Y16760
X21961Y15760
X20382Y21331
X20382Y22331
X10823Y19720
X10823Y18720
X4520Y12535
X4520Y11535
X30043Y18720
X30043Y19720
X36480Y12437
X36480Y11437
T02
X34020Y12287
X30020Y12287
X22343Y20429
X18343Y20429
X11134Y12402
X7134Y12402
X34118Y27220
X34118Y28220
X34118Y29220
X38118Y29220
X38118Y28220
X38118Y27220
T03
X5780Y26815
X4213Y26382
X2957Y26126
X4024Y24882
X2713Y24059
X3457Y22815
X4961Y23657
X5280Y25126
T04
X19192Y4492
X19192Y2712
X21752Y2712
X21752Y4492
T05
X17882Y16071
X25756Y16071
T06
X35067Y15008
X20335Y25146
X5795Y14988
M30
