G75*
%MOIN*%
%OFA0B0*%
%FSLAX25Y25*%
%IPPOS*%
%LPD*%
%AMOC8*
5,1,8,0,0,1.08239X$1,22.5*
%
%ADD10C,0.07677*%
%ADD11C,0.07400*%
%ADD12OC8,0.06800*%
%ADD13C,0.01600*%
%ADD14C,0.05906*%
%ADD15C,0.43370*%
D10*
X0178819Y0160709D03*
X0257559Y0160709D03*
D11*
X0300433Y0187205D03*
X0300433Y0197205D03*
X0223425Y0204291D03*
X0203819Y0213307D03*
X0203819Y0223307D03*
X0183425Y0204291D03*
X0108228Y0197205D03*
X0108228Y0187205D03*
X0111339Y0124016D03*
X0127677Y0110984D03*
X0127677Y0100984D03*
X0071339Y0124016D03*
X0045197Y0125354D03*
X0045197Y0115354D03*
X0191924Y0044924D03*
X0191924Y0027124D03*
X0217524Y0027124D03*
X0217524Y0044924D03*
X0300197Y0122874D03*
X0340197Y0122874D03*
X0364803Y0124370D03*
X0364803Y0114370D03*
X0381181Y0272205D03*
X0381181Y0282205D03*
X0381181Y0292205D03*
X0341181Y0292205D03*
X0341181Y0282205D03*
X0341181Y0272205D03*
D12*
X0219606Y0187598D03*
X0219606Y0177598D03*
X0219606Y0167598D03*
X0219606Y0157598D03*
X0189606Y0157598D03*
X0189606Y0167598D03*
X0189606Y0177598D03*
X0189606Y0187598D03*
D13*
X0061855Y0053218D02*
X0051509Y0062533D01*
X0042194Y0072878D01*
X0034012Y0084140D01*
X0027052Y0096196D01*
X0021389Y0108914D01*
X0017088Y0122153D01*
X0014193Y0135770D01*
X0012738Y0149614D01*
X0012560Y0156415D01*
X0012918Y0159975D01*
X0014542Y0167202D01*
X0017305Y0174075D01*
X0021134Y0180416D01*
X0025930Y0186060D01*
X0031570Y0190862D01*
X0037907Y0194697D01*
X0044778Y0197466D01*
X0052003Y0199096D01*
X0059397Y0199547D01*
X0066767Y0198806D01*
X0073922Y0196892D01*
X0080678Y0193855D01*
X0083820Y0191958D01*
X0084498Y0191477D01*
X0084579Y0191459D01*
X0084648Y0191413D01*
X0085507Y0191247D01*
X0086360Y0191053D01*
X0086442Y0191067D01*
X0086523Y0191051D01*
X0087380Y0191226D01*
X0088242Y0191373D01*
X0088312Y0191417D01*
X0088394Y0191434D01*
X0089118Y0191924D01*
X0089859Y0192389D01*
X0089907Y0192457D01*
X0089976Y0192503D01*
X0090458Y0193233D01*
X0090964Y0193947D01*
X0090982Y0194028D01*
X0091028Y0194097D01*
X0091194Y0194956D01*
X0091388Y0195809D01*
X0091374Y0195890D01*
X0091390Y0195972D01*
X0091224Y0196782D01*
X0090934Y0199216D01*
X0091088Y0204175D01*
X0092221Y0209006D01*
X0094289Y0213516D01*
X0097209Y0217527D01*
X0100867Y0220879D01*
X0105116Y0223441D01*
X0109789Y0225110D01*
X0114699Y0225819D01*
X0119653Y0225542D01*
X0124453Y0224289D01*
X0128911Y0222109D01*
X0132847Y0219090D01*
X0136108Y0215350D01*
X0137327Y0213436D01*
X0137545Y0212911D01*
X0137763Y0212693D01*
X0137915Y0212425D01*
X0138432Y0212024D01*
X0138895Y0211561D01*
X0139180Y0211443D01*
X0139423Y0211254D01*
X0140054Y0211080D01*
X0140659Y0210830D01*
X0140967Y0210830D01*
X0141265Y0210748D01*
X0141914Y0210830D01*
X0142569Y0210830D01*
X0142854Y0210948D01*
X0143159Y0210986D01*
X0143728Y0211310D01*
X0144333Y0211561D01*
X0144551Y0211779D01*
X0144819Y0211931D01*
X0145220Y0212448D01*
X0145683Y0212911D01*
X0145801Y0213196D01*
X0145990Y0213439D01*
X0146164Y0214070D01*
X0146414Y0214675D01*
X0146414Y0214983D01*
X0146496Y0215280D01*
X0146423Y0215863D01*
X0146562Y0219781D01*
X0147744Y0228000D01*
X0150083Y0235966D01*
X0153532Y0243518D01*
X0158021Y0250503D01*
X0163458Y0256778D01*
X0169733Y0262215D01*
X0176718Y0266704D01*
X0184270Y0270153D01*
X0192237Y0272492D01*
X0193841Y0272723D01*
X0192317Y0272092D01*
X0188503Y0269543D01*
X0185260Y0266300D01*
X0182712Y0262486D01*
X0180956Y0258249D01*
X0180061Y0253750D01*
X0180061Y0249163D01*
X0180956Y0244665D01*
X0182712Y0240427D01*
X0185260Y0236613D01*
X0188503Y0233370D01*
X0192317Y0230822D01*
X0196554Y0229066D01*
X0201053Y0228172D01*
X0201713Y0228172D01*
X0200817Y0227800D01*
X0199326Y0226309D01*
X0198519Y0224361D01*
X0198519Y0222253D01*
X0199326Y0220305D01*
X0200817Y0218814D01*
X0202040Y0218307D01*
X0200817Y0217800D01*
X0199326Y0216309D01*
X0198519Y0214361D01*
X0198519Y0212253D01*
X0199326Y0210305D01*
X0200817Y0208814D01*
X0202765Y0208007D01*
X0204873Y0208007D01*
X0206821Y0208814D01*
X0208312Y0210305D01*
X0209119Y0212253D01*
X0209119Y0214361D01*
X0208312Y0216309D01*
X0206821Y0217800D01*
X0205597Y0218307D01*
X0206821Y0218814D01*
X0208312Y0220305D01*
X0209119Y0222253D01*
X0209119Y0224361D01*
X0208312Y0226309D01*
X0206821Y0227800D01*
X0205832Y0228210D01*
X0210138Y0229066D01*
X0214376Y0230822D01*
X0218190Y0233370D01*
X0221433Y0236613D01*
X0223981Y0240427D01*
X0225737Y0244665D01*
X0226631Y0249163D01*
X0226631Y0253750D01*
X0225737Y0258249D01*
X0223981Y0262486D01*
X0221433Y0266300D01*
X0218190Y0269543D01*
X0214376Y0272092D01*
X0211513Y0273278D01*
X0216976Y0272492D01*
X0224942Y0270153D01*
X0232495Y0266704D01*
X0239480Y0262215D01*
X0245754Y0256778D01*
X0251191Y0250503D01*
X0255680Y0243518D01*
X0259129Y0235966D01*
X0261469Y0228000D01*
X0262650Y0219781D01*
X0262790Y0215863D01*
X0262717Y0215280D01*
X0262798Y0214983D01*
X0262798Y0214675D01*
X0263049Y0214070D01*
X0263222Y0213439D01*
X0263411Y0213196D01*
X0263529Y0212911D01*
X0263992Y0212448D01*
X0264394Y0211931D01*
X0264662Y0211779D01*
X0264879Y0211561D01*
X0265484Y0211310D01*
X0266053Y0210986D01*
X0266359Y0210948D01*
X0266644Y0210830D01*
X0267298Y0210830D01*
X0267948Y0210748D01*
X0268245Y0210830D01*
X0268553Y0210830D01*
X0269158Y0211080D01*
X0269789Y0211254D01*
X0270033Y0211443D01*
X0270317Y0211561D01*
X0270780Y0212024D01*
X0271297Y0212425D01*
X0271450Y0212693D01*
X0271668Y0212911D01*
X0271885Y0213436D01*
X0273105Y0215350D01*
X0276365Y0219090D01*
X0280302Y0222109D01*
X0284759Y0224289D01*
X0289560Y0225542D01*
X0294514Y0225819D01*
X0299424Y0225110D01*
X0304097Y0223441D01*
X0308346Y0220879D01*
X0312003Y0217527D01*
X0314924Y0213516D01*
X0316992Y0209006D01*
X0318125Y0204175D01*
X0318278Y0199216D01*
X0317988Y0196782D01*
X0317823Y0195972D01*
X0317838Y0195890D01*
X0317824Y0195809D01*
X0318019Y0194956D01*
X0318185Y0194097D01*
X0318231Y0194028D01*
X0318249Y0193947D01*
X0318755Y0193233D01*
X0319237Y0192503D01*
X0319306Y0192457D01*
X0319354Y0192389D01*
X0320094Y0191924D01*
X0320819Y0191434D01*
X0320900Y0191417D01*
X0320970Y0191373D01*
X0321833Y0191226D01*
X0322690Y0191051D01*
X0322771Y0191067D01*
X0322853Y0191053D01*
X0323706Y0191247D01*
X0324565Y0191413D01*
X0324634Y0191459D01*
X0324715Y0191477D01*
X0325392Y0191958D01*
X0328534Y0193855D01*
X0335290Y0196892D01*
X0342446Y0198806D01*
X0349816Y0199547D01*
X0357209Y0199096D01*
X0364435Y0197466D01*
X0371305Y0194697D01*
X0377642Y0190862D01*
X0383282Y0186060D01*
X0388079Y0180416D01*
X0391908Y0174075D01*
X0394670Y0167202D01*
X0396294Y0159975D01*
X0396653Y0156415D01*
X0396474Y0149614D01*
X0395019Y0135770D01*
X0392125Y0122153D01*
X0387823Y0108914D01*
X0382161Y0096196D01*
X0375201Y0084140D01*
X0367018Y0072878D01*
X0357703Y0062533D01*
X0347358Y0053218D01*
X0336096Y0045036D01*
X0324040Y0038075D01*
X0311323Y0032413D01*
X0298083Y0028111D01*
X0284466Y0025217D01*
X0270622Y0023762D01*
X0263661Y0023580D01*
X0221476Y0023580D01*
X0222018Y0024121D01*
X0222824Y0026069D01*
X0222824Y0028178D01*
X0222018Y0030126D01*
X0220527Y0031617D01*
X0218579Y0032424D01*
X0216470Y0032424D01*
X0214522Y0031617D01*
X0213031Y0030126D01*
X0212224Y0028178D01*
X0212224Y0026069D01*
X0213031Y0024121D01*
X0213573Y0023580D01*
X0195876Y0023580D01*
X0196418Y0024121D01*
X0197224Y0026069D01*
X0197224Y0028178D01*
X0196418Y0030126D01*
X0194927Y0031617D01*
X0192979Y0032424D01*
X0190870Y0032424D01*
X0188922Y0031617D01*
X0187431Y0030126D01*
X0186624Y0028178D01*
X0186624Y0026069D01*
X0187431Y0024121D01*
X0187973Y0023580D01*
X0145551Y0023580D01*
X0138591Y0023762D01*
X0124746Y0025217D01*
X0111129Y0028111D01*
X0097890Y0032413D01*
X0085173Y0038075D01*
X0073117Y0045036D01*
X0061855Y0053218D01*
X0061045Y0053947D02*
X0348167Y0053947D01*
X0347358Y0053218D02*
X0347358Y0053218D01*
X0346161Y0052348D02*
X0063052Y0052348D01*
X0065252Y0050750D02*
X0343961Y0050750D01*
X0341761Y0049151D02*
X0220792Y0049151D01*
X0220527Y0049417D02*
X0218579Y0050224D01*
X0216470Y0050224D01*
X0214522Y0049417D01*
X0213031Y0047926D01*
X0212224Y0045978D01*
X0212224Y0043869D01*
X0213031Y0041921D01*
X0214522Y0040430D01*
X0216470Y0039624D01*
X0218579Y0039624D01*
X0220527Y0040430D01*
X0222018Y0041921D01*
X0222824Y0043869D01*
X0222824Y0045978D01*
X0222018Y0047926D01*
X0220527Y0049417D01*
X0222172Y0047553D02*
X0339560Y0047553D01*
X0337360Y0045954D02*
X0222824Y0045954D01*
X0222824Y0044356D02*
X0334918Y0044356D01*
X0332150Y0042757D02*
X0222364Y0042757D01*
X0221255Y0041159D02*
X0329381Y0041159D01*
X0326612Y0039560D02*
X0082600Y0039560D01*
X0079832Y0041159D02*
X0188194Y0041159D01*
X0188922Y0040430D02*
X0187431Y0041921D01*
X0186624Y0043869D01*
X0186624Y0045978D01*
X0187431Y0047926D01*
X0188922Y0049417D01*
X0190870Y0050224D01*
X0192979Y0050224D01*
X0194927Y0049417D01*
X0196418Y0047926D01*
X0197224Y0045978D01*
X0197224Y0043869D01*
X0196418Y0041921D01*
X0194927Y0040430D01*
X0192979Y0039624D01*
X0190870Y0039624D01*
X0188922Y0040430D01*
X0187085Y0042757D02*
X0077063Y0042757D01*
X0074294Y0044356D02*
X0186624Y0044356D01*
X0186624Y0045954D02*
X0071852Y0045954D01*
X0069652Y0047553D02*
X0187277Y0047553D01*
X0188657Y0049151D02*
X0067452Y0049151D01*
X0059270Y0055545D02*
X0349943Y0055545D01*
X0351718Y0057144D02*
X0057495Y0057144D01*
X0055719Y0058742D02*
X0353493Y0058742D01*
X0355269Y0060341D02*
X0053944Y0060341D01*
X0052169Y0061939D02*
X0357044Y0061939D01*
X0358608Y0063538D02*
X0050604Y0063538D01*
X0049165Y0065136D02*
X0360047Y0065136D01*
X0361487Y0066735D02*
X0047726Y0066735D01*
X0046287Y0068333D02*
X0362926Y0068333D01*
X0364365Y0069932D02*
X0044847Y0069932D01*
X0043408Y0071530D02*
X0365805Y0071530D01*
X0367200Y0073129D02*
X0042012Y0073129D01*
X0040851Y0074727D02*
X0368362Y0074727D01*
X0369523Y0076326D02*
X0039689Y0076326D01*
X0038528Y0077924D02*
X0370685Y0077924D01*
X0371846Y0079523D02*
X0037367Y0079523D01*
X0036205Y0081121D02*
X0373007Y0081121D01*
X0374169Y0082720D02*
X0035044Y0082720D01*
X0033909Y0084318D02*
X0375303Y0084318D01*
X0376226Y0085917D02*
X0032986Y0085917D01*
X0032063Y0087516D02*
X0377149Y0087516D01*
X0378072Y0089114D02*
X0031140Y0089114D01*
X0030218Y0090713D02*
X0378995Y0090713D01*
X0379918Y0092311D02*
X0029295Y0092311D01*
X0028372Y0093910D02*
X0380841Y0093910D01*
X0381764Y0095508D02*
X0027449Y0095508D01*
X0026646Y0097107D02*
X0124059Y0097107D01*
X0124675Y0096491D02*
X0126623Y0095684D01*
X0128731Y0095684D01*
X0130679Y0096491D01*
X0132170Y0097982D01*
X0132977Y0099930D01*
X0132977Y0102038D01*
X0132170Y0103986D01*
X0130679Y0105477D01*
X0129456Y0105984D01*
X0130679Y0106491D01*
X0132170Y0107982D01*
X0132977Y0109930D01*
X0132977Y0112038D01*
X0132170Y0113986D01*
X0130679Y0115477D01*
X0128731Y0116284D01*
X0126623Y0116284D01*
X0124675Y0115477D01*
X0123184Y0113986D01*
X0122377Y0112038D01*
X0122377Y0109930D01*
X0123184Y0107982D01*
X0124675Y0106491D01*
X0125899Y0105984D01*
X0124675Y0105477D01*
X0123184Y0103986D01*
X0122377Y0102038D01*
X0122377Y0099930D01*
X0123184Y0097982D01*
X0124675Y0096491D01*
X0122885Y0098705D02*
X0025934Y0098705D01*
X0025223Y0100304D02*
X0122377Y0100304D01*
X0122377Y0101902D02*
X0024511Y0101902D01*
X0023799Y0103501D02*
X0122983Y0103501D01*
X0124297Y0105099D02*
X0023088Y0105099D01*
X0022376Y0106698D02*
X0124468Y0106698D01*
X0123054Y0108296D02*
X0021664Y0108296D01*
X0021071Y0109895D02*
X0122392Y0109895D01*
X0122377Y0111493D02*
X0048831Y0111493D01*
X0048199Y0110861D02*
X0049690Y0112352D01*
X0050497Y0114300D01*
X0050497Y0116409D01*
X0049690Y0118357D01*
X0048199Y0119847D01*
X0046975Y0120354D01*
X0048199Y0120861D01*
X0049690Y0122352D01*
X0050497Y0124300D01*
X0050497Y0126409D01*
X0049818Y0128048D01*
X0051161Y0127492D01*
X0055659Y0126597D01*
X0060246Y0126597D01*
X0064745Y0127492D01*
X0068982Y0129247D01*
X0072796Y0131795D01*
X0076039Y0135039D01*
X0078588Y0138852D01*
X0080343Y0143090D01*
X0081238Y0147588D01*
X0081238Y0152175D01*
X0080343Y0156674D01*
X0078588Y0160911D01*
X0076039Y0164725D01*
X0072796Y0167969D01*
X0068982Y0170517D01*
X0064745Y0172272D01*
X0060246Y0173167D01*
X0055659Y0173167D01*
X0051161Y0172272D01*
X0046923Y0170517D01*
X0043109Y0167969D01*
X0039866Y0164725D01*
X0037318Y0160911D01*
X0035563Y0156674D01*
X0034668Y0152175D01*
X0034668Y0147588D01*
X0035563Y0143090D01*
X0037318Y0138852D01*
X0039866Y0135039D01*
X0043109Y0131795D01*
X0044817Y0130654D01*
X0044143Y0130654D01*
X0042195Y0129847D01*
X0040704Y0128357D01*
X0039897Y0126409D01*
X0039897Y0124300D01*
X0040704Y0122352D01*
X0042195Y0120861D01*
X0043418Y0120354D01*
X0042195Y0119847D01*
X0040704Y0118357D01*
X0039897Y0116409D01*
X0039897Y0114300D01*
X0040704Y0112352D01*
X0042195Y0110861D01*
X0044143Y0110054D01*
X0046251Y0110054D01*
X0048199Y0110861D01*
X0049996Y0113092D02*
X0122813Y0113092D01*
X0123888Y0114690D02*
X0050497Y0114690D01*
X0050497Y0116289D02*
X0359861Y0116289D01*
X0359503Y0115424D02*
X0359503Y0113316D01*
X0360310Y0111368D01*
X0361801Y0109877D01*
X0363749Y0109070D01*
X0365857Y0109070D01*
X0367805Y0109877D01*
X0369296Y0111368D01*
X0370103Y0113316D01*
X0370103Y0115424D01*
X0369296Y0117372D01*
X0367805Y0118863D01*
X0366582Y0119370D01*
X0367805Y0119877D01*
X0369296Y0121368D01*
X0370103Y0123316D01*
X0370103Y0125424D01*
X0369296Y0127372D01*
X0367805Y0128863D01*
X0365857Y0129670D01*
X0363749Y0129670D01*
X0361801Y0128863D01*
X0360310Y0127372D01*
X0359503Y0125424D01*
X0359503Y0123316D01*
X0360310Y0121368D01*
X0361801Y0119877D01*
X0363025Y0119370D01*
X0361801Y0118863D01*
X0360310Y0117372D01*
X0359503Y0115424D01*
X0359503Y0114690D02*
X0131467Y0114690D01*
X0132541Y0113092D02*
X0359596Y0113092D01*
X0360258Y0111493D02*
X0132977Y0111493D01*
X0132963Y0109895D02*
X0361783Y0109895D01*
X0367823Y0109895D02*
X0388142Y0109895D01*
X0388661Y0111493D02*
X0369348Y0111493D01*
X0370010Y0113092D02*
X0389181Y0113092D01*
X0389700Y0114690D02*
X0370103Y0114690D01*
X0369745Y0116289D02*
X0390220Y0116289D01*
X0390739Y0117887D02*
X0368781Y0117887D01*
X0366861Y0119486D02*
X0391258Y0119486D01*
X0391778Y0121084D02*
X0369013Y0121084D01*
X0369841Y0122683D02*
X0392238Y0122683D01*
X0392577Y0124281D02*
X0370103Y0124281D01*
X0369914Y0125880D02*
X0392917Y0125880D01*
X0393257Y0127478D02*
X0369190Y0127478D01*
X0367290Y0129077D02*
X0393597Y0129077D01*
X0393936Y0130675D02*
X0363542Y0130675D01*
X0362317Y0129077D02*
X0360813Y0129077D01*
X0361699Y0129444D02*
X0365513Y0131992D01*
X0368756Y0135235D01*
X0371304Y0139049D01*
X0373059Y0143287D01*
X0373954Y0147785D01*
X0373954Y0152372D01*
X0373059Y0156871D01*
X0371304Y0161108D01*
X0368756Y0164922D01*
X0365513Y0168165D01*
X0361699Y0170714D01*
X0357461Y0172469D01*
X0352963Y0173364D01*
X0348376Y0173364D01*
X0343877Y0172469D01*
X0339640Y0170714D01*
X0335826Y0168165D01*
X0332583Y0164922D01*
X0330034Y0161108D01*
X0328279Y0156871D01*
X0327384Y0152372D01*
X0327384Y0147785D01*
X0328279Y0143287D01*
X0330034Y0139049D01*
X0332583Y0135235D01*
X0335826Y0131992D01*
X0339640Y0129444D01*
X0343877Y0127689D01*
X0348376Y0126794D01*
X0352963Y0126794D01*
X0357461Y0127689D01*
X0361699Y0129444D01*
X0360416Y0127478D02*
X0356404Y0127478D01*
X0359692Y0125880D02*
X0344686Y0125880D01*
X0344690Y0125876D02*
X0343199Y0127367D01*
X0341251Y0128174D01*
X0339143Y0128174D01*
X0337195Y0127367D01*
X0335704Y0125876D01*
X0334897Y0123928D01*
X0334897Y0121820D01*
X0335704Y0119872D01*
X0337195Y0118381D01*
X0339143Y0117574D01*
X0341251Y0117574D01*
X0343199Y0118381D01*
X0344690Y0119872D01*
X0345497Y0121820D01*
X0345497Y0123928D01*
X0344690Y0125876D01*
X0344934Y0127478D02*
X0342931Y0127478D01*
X0340526Y0129077D02*
X0112970Y0129077D01*
X0112393Y0129316D02*
X0114341Y0128509D01*
X0115832Y0127018D01*
X0116639Y0125070D01*
X0116639Y0122962D01*
X0115832Y0121014D01*
X0114341Y0119523D01*
X0112393Y0118716D01*
X0110284Y0118716D01*
X0108336Y0119523D01*
X0106845Y0121014D01*
X0106039Y0122962D01*
X0106039Y0125070D01*
X0106845Y0127018D01*
X0108336Y0128509D01*
X0110284Y0129316D01*
X0112393Y0129316D01*
X0109708Y0129077D02*
X0072970Y0129077D01*
X0072393Y0129316D02*
X0074341Y0128509D01*
X0075832Y0127018D01*
X0076639Y0125070D01*
X0076639Y0122962D01*
X0075832Y0121014D01*
X0074341Y0119523D01*
X0072393Y0118716D01*
X0070284Y0118716D01*
X0068336Y0119523D01*
X0066845Y0121014D01*
X0066039Y0122962D01*
X0066039Y0125070D01*
X0066845Y0127018D01*
X0068336Y0128509D01*
X0070284Y0129316D01*
X0072393Y0129316D01*
X0071120Y0130675D02*
X0337797Y0130675D01*
X0335544Y0132274D02*
X0073275Y0132274D01*
X0074873Y0133872D02*
X0333946Y0133872D01*
X0332425Y0135471D02*
X0076328Y0135471D01*
X0077396Y0137069D02*
X0331357Y0137069D01*
X0330289Y0138668D02*
X0078464Y0138668D01*
X0079173Y0140266D02*
X0329530Y0140266D01*
X0328868Y0141865D02*
X0079836Y0141865D01*
X0080417Y0143463D02*
X0328244Y0143463D01*
X0327926Y0145062D02*
X0080735Y0145062D01*
X0081053Y0146660D02*
X0327608Y0146660D01*
X0327384Y0148259D02*
X0081238Y0148259D01*
X0081238Y0149857D02*
X0327384Y0149857D01*
X0327384Y0151456D02*
X0081238Y0151456D01*
X0081063Y0153054D02*
X0187079Y0153054D01*
X0187535Y0152598D02*
X0191677Y0152598D01*
X0194606Y0155527D01*
X0194606Y0159669D01*
X0191677Y0162598D01*
X0194606Y0165527D01*
X0194606Y0169669D01*
X0191677Y0172598D01*
X0194606Y0175527D01*
X0194606Y0179669D01*
X0191677Y0182598D01*
X0194606Y0185527D01*
X0194606Y0189669D01*
X0191677Y0192598D01*
X0187535Y0192598D01*
X0184606Y0189669D01*
X0184606Y0185527D01*
X0187535Y0182598D01*
X0184606Y0179669D01*
X0184606Y0175527D01*
X0187535Y0172598D01*
X0184606Y0169669D01*
X0184606Y0165527D01*
X0187535Y0162598D01*
X0184606Y0159669D01*
X0184606Y0155527D01*
X0187535Y0152598D01*
X0185481Y0154653D02*
X0080745Y0154653D01*
X0080427Y0156252D02*
X0175585Y0156252D01*
X0175738Y0156098D02*
X0177737Y0155270D01*
X0179901Y0155270D01*
X0181900Y0156098D01*
X0183429Y0157628D01*
X0184257Y0159627D01*
X0184257Y0161790D01*
X0183429Y0163789D01*
X0181900Y0165319D01*
X0179901Y0166147D01*
X0177737Y0166147D01*
X0175738Y0165319D01*
X0174208Y0163789D01*
X0173380Y0161790D01*
X0173380Y0159627D01*
X0174208Y0157628D01*
X0175738Y0156098D01*
X0174116Y0157850D02*
X0079856Y0157850D01*
X0079194Y0159449D02*
X0173454Y0159449D01*
X0173380Y0161047D02*
X0078497Y0161047D01*
X0077429Y0162646D02*
X0173735Y0162646D01*
X0174663Y0164244D02*
X0076361Y0164244D01*
X0074922Y0165843D02*
X0177002Y0165843D01*
X0180636Y0165843D02*
X0184606Y0165843D01*
X0184606Y0167441D02*
X0073324Y0167441D01*
X0071193Y0169040D02*
X0184606Y0169040D01*
X0185575Y0170638D02*
X0068690Y0170638D01*
X0064830Y0172237D02*
X0187173Y0172237D01*
X0187535Y0172598D02*
X0191677Y0172598D01*
X0187535Y0172598D01*
X0186299Y0173835D02*
X0017208Y0173835D01*
X0016566Y0172237D02*
X0051075Y0172237D01*
X0047216Y0170638D02*
X0015923Y0170638D01*
X0015281Y0169040D02*
X0044712Y0169040D01*
X0042582Y0167441D02*
X0014638Y0167441D01*
X0014237Y0165843D02*
X0040983Y0165843D01*
X0039545Y0164244D02*
X0013877Y0164244D01*
X0013518Y0162646D02*
X0038476Y0162646D01*
X0037408Y0161047D02*
X0013159Y0161047D01*
X0012865Y0159449D02*
X0036712Y0159449D01*
X0036050Y0157850D02*
X0012704Y0157850D01*
X0012564Y0156252D02*
X0035479Y0156252D01*
X0035161Y0154653D02*
X0012606Y0154653D01*
X0012648Y0153054D02*
X0034843Y0153054D01*
X0034668Y0151456D02*
X0012690Y0151456D01*
X0012732Y0149857D02*
X0034668Y0149857D01*
X0034668Y0148259D02*
X0012881Y0148259D01*
X0013049Y0146660D02*
X0034852Y0146660D01*
X0035170Y0145062D02*
X0013217Y0145062D01*
X0013385Y0143463D02*
X0035488Y0143463D01*
X0036070Y0141865D02*
X0013553Y0141865D01*
X0013721Y0140266D02*
X0036732Y0140266D01*
X0037441Y0138668D02*
X0013889Y0138668D01*
X0014057Y0137069D02*
X0038509Y0137069D01*
X0039577Y0135471D02*
X0014257Y0135471D01*
X0014597Y0133872D02*
X0041032Y0133872D01*
X0042631Y0132274D02*
X0014936Y0132274D01*
X0015276Y0130675D02*
X0044785Y0130675D01*
X0041424Y0129077D02*
X0015616Y0129077D01*
X0015956Y0127478D02*
X0040340Y0127478D01*
X0039897Y0125880D02*
X0016295Y0125880D01*
X0016635Y0124281D02*
X0039905Y0124281D01*
X0040567Y0122683D02*
X0016975Y0122683D01*
X0017435Y0121084D02*
X0041972Y0121084D01*
X0041833Y0119486D02*
X0017954Y0119486D01*
X0018474Y0117887D02*
X0040509Y0117887D01*
X0039897Y0116289D02*
X0018993Y0116289D01*
X0019512Y0114690D02*
X0039897Y0114690D01*
X0040397Y0113092D02*
X0020032Y0113092D01*
X0020551Y0111493D02*
X0041563Y0111493D01*
X0049884Y0117887D02*
X0298386Y0117887D01*
X0299143Y0117574D02*
X0297195Y0118381D01*
X0295704Y0119872D01*
X0294897Y0121820D01*
X0294897Y0123928D01*
X0295704Y0125876D01*
X0297195Y0127367D01*
X0299143Y0128174D01*
X0301251Y0128174D01*
X0303199Y0127367D01*
X0304690Y0125876D01*
X0305497Y0123928D01*
X0305497Y0121820D01*
X0304690Y0119872D01*
X0303199Y0118381D01*
X0301251Y0117574D01*
X0299143Y0117574D01*
X0302007Y0117887D02*
X0338386Y0117887D01*
X0336090Y0119486D02*
X0304304Y0119486D01*
X0305192Y0121084D02*
X0335202Y0121084D01*
X0334897Y0122683D02*
X0305497Y0122683D01*
X0305351Y0124281D02*
X0335043Y0124281D01*
X0335707Y0125880D02*
X0304686Y0125880D01*
X0302931Y0127478D02*
X0337463Y0127478D01*
X0345351Y0124281D02*
X0359503Y0124281D01*
X0359765Y0122683D02*
X0345497Y0122683D01*
X0345192Y0121084D02*
X0360594Y0121084D01*
X0362745Y0119486D02*
X0344304Y0119486D01*
X0342007Y0117887D02*
X0360825Y0117887D01*
X0365794Y0132274D02*
X0394276Y0132274D01*
X0394616Y0133872D02*
X0367393Y0133872D01*
X0368913Y0135471D02*
X0394956Y0135471D01*
X0395156Y0137069D02*
X0369981Y0137069D01*
X0371049Y0138668D02*
X0395324Y0138668D01*
X0395492Y0140266D02*
X0371808Y0140266D01*
X0372471Y0141865D02*
X0395660Y0141865D01*
X0395828Y0143463D02*
X0373095Y0143463D01*
X0373413Y0145062D02*
X0395996Y0145062D01*
X0396164Y0146660D02*
X0373731Y0146660D01*
X0373954Y0148259D02*
X0396332Y0148259D01*
X0396481Y0149857D02*
X0373954Y0149857D01*
X0373954Y0151456D02*
X0396523Y0151456D01*
X0396565Y0153054D02*
X0373819Y0153054D01*
X0373501Y0154653D02*
X0396606Y0154653D01*
X0396648Y0156252D02*
X0373183Y0156252D01*
X0372654Y0157850D02*
X0396508Y0157850D01*
X0396347Y0159449D02*
X0371992Y0159449D01*
X0371330Y0161047D02*
X0396054Y0161047D01*
X0395694Y0162646D02*
X0370277Y0162646D01*
X0369209Y0164244D02*
X0395335Y0164244D01*
X0394976Y0165843D02*
X0367835Y0165843D01*
X0366237Y0167441D02*
X0394574Y0167441D01*
X0393932Y0169040D02*
X0364204Y0169040D01*
X0361812Y0170638D02*
X0393289Y0170638D01*
X0392647Y0172237D02*
X0358022Y0172237D01*
X0343316Y0172237D02*
X0222039Y0172237D01*
X0221677Y0172598D02*
X0224606Y0169669D01*
X0224606Y0165527D01*
X0221819Y0162740D01*
X0224806Y0159752D01*
X0224806Y0157598D01*
X0219606Y0157598D01*
X0219606Y0157598D01*
X0219606Y0152398D01*
X0217452Y0152398D01*
X0214406Y0155445D01*
X0214406Y0157598D01*
X0219606Y0157598D01*
X0219606Y0157598D01*
X0219606Y0152398D01*
X0221760Y0152398D01*
X0224806Y0155445D01*
X0224806Y0157598D01*
X0219606Y0157598D01*
X0214406Y0157598D01*
X0214406Y0159752D01*
X0217394Y0162740D01*
X0214606Y0165527D01*
X0214606Y0169669D01*
X0217535Y0172598D01*
X0221677Y0172598D01*
X0224606Y0175527D01*
X0224606Y0179669D01*
X0221677Y0182598D01*
X0217535Y0182598D01*
X0214606Y0179669D01*
X0214606Y0175527D01*
X0217535Y0172598D01*
X0221677Y0172598D01*
X0222914Y0173835D02*
X0392004Y0173835D01*
X0391087Y0175434D02*
X0224513Y0175434D01*
X0224606Y0177032D02*
X0390122Y0177032D01*
X0389157Y0178631D02*
X0224606Y0178631D01*
X0224047Y0180229D02*
X0388191Y0180229D01*
X0386879Y0181828D02*
X0222448Y0181828D01*
X0221677Y0182598D02*
X0224606Y0185527D01*
X0224606Y0189669D01*
X0221677Y0192598D01*
X0217535Y0192598D01*
X0214606Y0189669D01*
X0214606Y0185527D01*
X0217535Y0182598D01*
X0221677Y0182598D01*
X0222505Y0183426D02*
X0296716Y0183426D01*
X0297431Y0182712D02*
X0295940Y0184203D01*
X0295133Y0186150D01*
X0295133Y0188259D01*
X0295940Y0190207D01*
X0297431Y0191698D01*
X0298655Y0192205D01*
X0297431Y0192712D01*
X0295940Y0194203D01*
X0295133Y0196150D01*
X0295133Y0198259D01*
X0295940Y0200207D01*
X0297431Y0201698D01*
X0299379Y0202505D01*
X0301487Y0202505D01*
X0303435Y0201698D01*
X0304926Y0200207D01*
X0305733Y0198259D01*
X0305733Y0196150D01*
X0304926Y0194203D01*
X0303435Y0192712D01*
X0302212Y0192205D01*
X0303435Y0191698D01*
X0304926Y0190207D01*
X0305733Y0188259D01*
X0305733Y0186150D01*
X0304926Y0184203D01*
X0303435Y0182712D01*
X0301487Y0181905D01*
X0299379Y0181905D01*
X0297431Y0182712D01*
X0295599Y0185025D02*
X0224104Y0185025D01*
X0224606Y0186623D02*
X0295133Y0186623D01*
X0295133Y0188222D02*
X0224606Y0188222D01*
X0224456Y0189820D02*
X0295780Y0189820D01*
X0297152Y0191419D02*
X0222857Y0191419D01*
X0216356Y0191419D02*
X0192857Y0191419D01*
X0194456Y0189820D02*
X0214757Y0189820D01*
X0214606Y0188222D02*
X0194606Y0188222D01*
X0194606Y0186623D02*
X0214606Y0186623D01*
X0215109Y0185025D02*
X0194104Y0185025D01*
X0192505Y0183426D02*
X0216707Y0183426D01*
X0216765Y0181828D02*
X0192448Y0181828D01*
X0191677Y0182598D02*
X0187535Y0182598D01*
X0191677Y0182598D01*
X0194047Y0180229D02*
X0215166Y0180229D01*
X0214606Y0178631D02*
X0194606Y0178631D01*
X0194606Y0177032D02*
X0214606Y0177032D01*
X0214700Y0175434D02*
X0194513Y0175434D01*
X0192914Y0173835D02*
X0216299Y0173835D01*
X0217173Y0172237D02*
X0192039Y0172237D01*
X0193638Y0170638D02*
X0215575Y0170638D01*
X0214606Y0169040D02*
X0194606Y0169040D01*
X0194606Y0167441D02*
X0214606Y0167441D01*
X0214606Y0165843D02*
X0194606Y0165843D01*
X0193323Y0164244D02*
X0215890Y0164244D01*
X0217300Y0162646D02*
X0191724Y0162646D01*
X0191677Y0162598D02*
X0187535Y0162598D01*
X0191677Y0162598D01*
X0193229Y0161047D02*
X0215701Y0161047D01*
X0214406Y0159449D02*
X0194606Y0159449D01*
X0194606Y0157850D02*
X0214406Y0157850D01*
X0214406Y0156252D02*
X0194606Y0156252D01*
X0193732Y0154653D02*
X0215198Y0154653D01*
X0216796Y0153054D02*
X0192133Y0153054D01*
X0184606Y0156252D02*
X0182053Y0156252D01*
X0183521Y0157850D02*
X0184606Y0157850D01*
X0184606Y0159449D02*
X0184184Y0159449D01*
X0184257Y0161047D02*
X0185984Y0161047D01*
X0187488Y0162646D02*
X0183903Y0162646D01*
X0182975Y0164244D02*
X0185890Y0164244D01*
X0184700Y0175434D02*
X0018125Y0175434D01*
X0019090Y0177032D02*
X0184606Y0177032D01*
X0184606Y0178631D02*
X0020056Y0178631D01*
X0021021Y0180229D02*
X0185166Y0180229D01*
X0186765Y0181828D02*
X0022334Y0181828D01*
X0023692Y0183426D02*
X0104512Y0183426D01*
X0105226Y0182712D02*
X0103735Y0184203D01*
X0102928Y0186150D01*
X0102928Y0188259D01*
X0103735Y0190207D01*
X0105226Y0191698D01*
X0106450Y0192205D01*
X0105226Y0192712D01*
X0103735Y0194203D01*
X0102928Y0196150D01*
X0102928Y0198259D01*
X0103735Y0200207D01*
X0105226Y0201698D01*
X0107174Y0202505D01*
X0109283Y0202505D01*
X0111231Y0201698D01*
X0112721Y0200207D01*
X0113528Y0198259D01*
X0113528Y0196150D01*
X0112721Y0194203D01*
X0111231Y0192712D01*
X0110007Y0192205D01*
X0111231Y0191698D01*
X0112721Y0190207D01*
X0113528Y0188259D01*
X0113528Y0186150D01*
X0112721Y0184203D01*
X0111231Y0182712D01*
X0109283Y0181905D01*
X0107174Y0181905D01*
X0105226Y0182712D01*
X0103395Y0185025D02*
X0025050Y0185025D01*
X0026592Y0186623D02*
X0102928Y0186623D01*
X0102928Y0188222D02*
X0028469Y0188222D01*
X0030347Y0189820D02*
X0103575Y0189820D01*
X0104947Y0191419D02*
X0088320Y0191419D01*
X0090315Y0193017D02*
X0104920Y0193017D01*
X0103564Y0194616D02*
X0091128Y0194616D01*
X0091340Y0196214D02*
X0102928Y0196214D01*
X0102928Y0197813D02*
X0091101Y0197813D01*
X0090940Y0199411D02*
X0103406Y0199411D01*
X0104538Y0201010D02*
X0090990Y0201010D01*
X0091039Y0202608D02*
X0178386Y0202608D01*
X0178125Y0203237D02*
X0178932Y0201289D01*
X0180423Y0199798D01*
X0182371Y0198991D01*
X0184479Y0198991D01*
X0186427Y0199798D01*
X0187918Y0201289D01*
X0188725Y0203237D01*
X0188725Y0205346D01*
X0187918Y0207294D01*
X0186427Y0208784D01*
X0184479Y0209591D01*
X0182371Y0209591D01*
X0180423Y0208784D01*
X0178932Y0207294D01*
X0178125Y0205346D01*
X0178125Y0203237D01*
X0178125Y0204207D02*
X0091095Y0204207D01*
X0091470Y0205805D02*
X0178316Y0205805D01*
X0179042Y0207404D02*
X0091845Y0207404D01*
X0092220Y0209002D02*
X0180949Y0209002D01*
X0185901Y0209002D02*
X0200628Y0209002D01*
X0199203Y0210601D02*
X0092952Y0210601D01*
X0093685Y0212199D02*
X0138206Y0212199D01*
X0137097Y0213798D02*
X0094494Y0213798D01*
X0095658Y0215396D02*
X0136067Y0215396D01*
X0134673Y0216995D02*
X0096822Y0216995D01*
X0098373Y0218593D02*
X0133280Y0218593D01*
X0131410Y0220192D02*
X0100117Y0220192D01*
X0102378Y0221790D02*
X0129326Y0221790D01*
X0126294Y0223389D02*
X0105030Y0223389D01*
X0109447Y0224987D02*
X0121778Y0224987D01*
X0121168Y0235196D02*
X0127851Y0233452D01*
X0127851Y0233452D01*
X0134057Y0230417D01*
X0137827Y0227525D01*
X0138194Y0230077D01*
X0138194Y0230077D01*
X0140926Y0239381D01*
X0140926Y0239381D01*
X0144955Y0248202D01*
X0144955Y0248202D01*
X0150197Y0256360D01*
X0150197Y0256360D01*
X0156548Y0263689D01*
X0156548Y0263689D01*
X0163876Y0270039D01*
X0163876Y0270039D01*
X0172034Y0275282D01*
X0172034Y0275282D01*
X0180855Y0279310D01*
X0180855Y0279310D01*
X0190159Y0282042D01*
X0190159Y0282042D01*
X0199758Y0283422D01*
X0209455Y0283422D01*
X0219053Y0282042D01*
X0228358Y0279310D01*
X0237179Y0275282D01*
X0245336Y0270039D01*
X0245336Y0270039D01*
X0252665Y0263689D01*
X0252665Y0263689D01*
X0259015Y0256360D01*
X0259015Y0256360D01*
X0264258Y0248202D01*
X0264258Y0248202D01*
X0268286Y0239381D01*
X0268286Y0239381D01*
X0271018Y0230077D01*
X0271018Y0230077D01*
X0271385Y0227525D01*
X0275156Y0230417D01*
X0275156Y0230417D01*
X0281361Y0233452D01*
X0281361Y0233452D01*
X0288045Y0235196D01*
X0288045Y0235196D01*
X0294942Y0235582D01*
X0294942Y0235582D01*
X0301778Y0234594D01*
X0308283Y0232271D01*
X0314199Y0228705D01*
X0314199Y0228705D01*
X0319291Y0224037D01*
X0323357Y0218453D01*
X0326236Y0212174D01*
X0326236Y0212174D01*
X0327814Y0205449D01*
X0327814Y0205449D01*
X0327851Y0204237D01*
X0332011Y0206107D01*
X0332011Y0206107D01*
X0340687Y0208428D01*
X0340687Y0208428D01*
X0349624Y0209326D01*
X0349624Y0209326D01*
X0358588Y0208780D01*
X0358588Y0208780D01*
X0367349Y0206802D01*
X0367349Y0206802D01*
X0375679Y0203445D01*
X0375679Y0203445D01*
X0383363Y0198795D01*
X0383363Y0198795D01*
X0390202Y0192973D01*
X0390202Y0192973D01*
X0390202Y0192973D01*
X0396018Y0186129D01*
X0396018Y0186129D01*
X0400660Y0178441D01*
X0400660Y0178441D01*
X0401457Y0176460D01*
X0401457Y0314055D01*
X0007756Y0314055D01*
X0007756Y0176460D01*
X0008552Y0178441D01*
X0008552Y0178441D01*
X0013195Y0186129D01*
X0013195Y0186129D01*
X0019011Y0192973D01*
X0019011Y0192973D01*
X0025849Y0198795D01*
X0025849Y0198795D01*
X0033533Y0203445D01*
X0033533Y0203445D01*
X0041864Y0206802D01*
X0050624Y0208780D01*
X0059589Y0209326D01*
X0068525Y0208428D01*
X0077202Y0206107D01*
X0081361Y0204237D01*
X0081399Y0205449D01*
X0081399Y0205449D01*
X0082977Y0212174D01*
X0082977Y0212174D01*
X0085855Y0218453D01*
X0085855Y0218453D01*
X0089922Y0224037D01*
X0089922Y0224037D01*
X0095013Y0228705D01*
X0095013Y0228705D01*
X0100929Y0232271D01*
X0100929Y0232271D01*
X0107434Y0234594D01*
X0107434Y0234594D01*
X0114271Y0235582D01*
X0114271Y0235582D01*
X0121168Y0235196D01*
X0121168Y0235196D01*
X0123534Y0234579D02*
X0139516Y0234579D01*
X0139985Y0236177D02*
X0054159Y0236177D01*
X0054159Y0235669D02*
X0053466Y0233996D01*
X0052185Y0232715D01*
X0050512Y0232022D01*
X0048701Y0232022D01*
X0047027Y0232715D01*
X0045747Y0233996D01*
X0045054Y0235669D01*
X0045054Y0237480D01*
X0045747Y0239154D01*
X0047027Y0240434D01*
X0048701Y0241128D01*
X0050512Y0241128D01*
X0052185Y0240434D01*
X0053466Y0239154D01*
X0054159Y0237480D01*
X0054159Y0235669D01*
X0053707Y0234579D02*
X0107391Y0234579D01*
X0102915Y0232980D02*
X0052450Y0232980D01*
X0054037Y0237776D02*
X0140455Y0237776D01*
X0140924Y0239374D02*
X0053246Y0239374D01*
X0050886Y0240973D02*
X0141653Y0240973D01*
X0142383Y0242571D02*
X0031233Y0242571D01*
X0030986Y0243169D02*
X0029705Y0244450D01*
X0028032Y0245143D01*
X0026220Y0245143D01*
X0024547Y0244450D01*
X0023266Y0243169D01*
X0022573Y0241496D01*
X0022573Y0239685D01*
X0023266Y0238012D01*
X0024547Y0236731D01*
X0026220Y0236038D01*
X0028032Y0236038D01*
X0029705Y0236731D01*
X0030986Y0238012D01*
X0031679Y0239685D01*
X0031679Y0241496D01*
X0030986Y0243169D01*
X0029985Y0244170D02*
X0143113Y0244170D01*
X0143843Y0245768D02*
X0043624Y0245768D01*
X0044096Y0246240D02*
X0044789Y0247913D01*
X0044789Y0249724D01*
X0044096Y0251398D01*
X0042815Y0252679D01*
X0041142Y0253372D01*
X0039331Y0253372D01*
X0037657Y0252679D01*
X0036377Y0251398D01*
X0035683Y0249724D01*
X0035683Y0247913D01*
X0036377Y0246240D01*
X0037657Y0244959D01*
X0039331Y0244266D01*
X0041142Y0244266D01*
X0042815Y0244959D01*
X0044096Y0246240D01*
X0044563Y0247367D02*
X0050297Y0247367D01*
X0050216Y0247400D02*
X0051890Y0246707D01*
X0053701Y0246707D01*
X0055374Y0247400D01*
X0056655Y0248681D01*
X0057348Y0250354D01*
X0057348Y0252165D01*
X0056655Y0253839D01*
X0055374Y0255119D01*
X0053701Y0255813D01*
X0051890Y0255813D01*
X0050216Y0255119D01*
X0048936Y0253839D01*
X0048243Y0252165D01*
X0048243Y0250354D01*
X0048936Y0248681D01*
X0050216Y0247400D01*
X0048818Y0248965D02*
X0044789Y0248965D01*
X0044441Y0250564D02*
X0048243Y0250564D01*
X0048243Y0252162D02*
X0043331Y0252162D01*
X0037141Y0252162D02*
X0007756Y0252162D01*
X0007756Y0250564D02*
X0036031Y0250564D01*
X0035683Y0248965D02*
X0007756Y0248965D01*
X0007756Y0247367D02*
X0035910Y0247367D01*
X0036848Y0245768D02*
X0007756Y0245768D01*
X0007756Y0244170D02*
X0024266Y0244170D01*
X0023018Y0242571D02*
X0007756Y0242571D01*
X0007756Y0240973D02*
X0022573Y0240973D01*
X0022702Y0239374D02*
X0007756Y0239374D01*
X0007756Y0237776D02*
X0023502Y0237776D01*
X0025884Y0236177D02*
X0007756Y0236177D01*
X0007756Y0234579D02*
X0045505Y0234579D01*
X0045054Y0236177D02*
X0028368Y0236177D01*
X0030750Y0237776D02*
X0045176Y0237776D01*
X0045967Y0239374D02*
X0031550Y0239374D01*
X0031679Y0240973D02*
X0048327Y0240973D01*
X0055293Y0247367D02*
X0144573Y0247367D01*
X0145445Y0248965D02*
X0056773Y0248965D01*
X0057348Y0250564D02*
X0146472Y0250564D01*
X0147500Y0252162D02*
X0057348Y0252162D01*
X0056687Y0253761D02*
X0148527Y0253761D01*
X0149554Y0255359D02*
X0054795Y0255359D01*
X0050795Y0255359D02*
X0007756Y0255359D01*
X0007756Y0253761D02*
X0048903Y0253761D01*
X0044705Y0259959D02*
X0043032Y0259266D01*
X0041220Y0259266D01*
X0039547Y0259959D01*
X0038266Y0261240D01*
X0037573Y0262913D01*
X0037573Y0264724D01*
X0038266Y0266398D01*
X0039547Y0267679D01*
X0041220Y0268372D01*
X0043032Y0268372D01*
X0044705Y0267679D01*
X0045986Y0266398D01*
X0046679Y0264724D01*
X0046679Y0262913D01*
X0045986Y0261240D01*
X0044705Y0259959D01*
X0044900Y0260155D02*
X0153485Y0260155D01*
X0152100Y0258556D02*
X0033302Y0258556D01*
X0033427Y0258681D02*
X0034120Y0260354D01*
X0034120Y0262165D01*
X0033427Y0263839D01*
X0032146Y0265119D01*
X0030473Y0265813D01*
X0028661Y0265813D01*
X0026988Y0265119D01*
X0025707Y0263839D01*
X0025014Y0262165D01*
X0025014Y0260354D01*
X0025707Y0258681D01*
X0026988Y0257400D01*
X0028661Y0256707D01*
X0030473Y0256707D01*
X0032146Y0257400D01*
X0033427Y0258681D01*
X0034037Y0260155D02*
X0039352Y0260155D01*
X0038054Y0261753D02*
X0034120Y0261753D01*
X0033628Y0263352D02*
X0037573Y0263352D01*
X0037667Y0264950D02*
X0032315Y0264950D01*
X0038417Y0266549D02*
X0007756Y0266549D01*
X0007756Y0268147D02*
X0040679Y0268147D01*
X0043573Y0268147D02*
X0053243Y0268147D01*
X0053243Y0267244D02*
X0053936Y0265571D01*
X0055216Y0264290D01*
X0056890Y0263597D01*
X0058701Y0263597D01*
X0060374Y0264290D01*
X0061655Y0265571D01*
X0062348Y0267244D01*
X0062348Y0269055D01*
X0061655Y0270729D01*
X0060374Y0272009D01*
X0058701Y0272702D01*
X0056890Y0272702D01*
X0055216Y0272009D01*
X0053936Y0270729D01*
X0053243Y0269055D01*
X0053243Y0267244D01*
X0053530Y0266549D02*
X0045835Y0266549D01*
X0046585Y0264950D02*
X0054556Y0264950D01*
X0053529Y0269746D02*
X0007756Y0269746D01*
X0007756Y0271344D02*
X0054551Y0271344D01*
X0061039Y0271344D02*
X0165907Y0271344D01*
X0163538Y0269746D02*
X0062062Y0269746D01*
X0062348Y0268147D02*
X0161693Y0268147D01*
X0159848Y0266549D02*
X0062060Y0266549D01*
X0061035Y0264950D02*
X0158004Y0264950D01*
X0156256Y0263352D02*
X0046679Y0263352D01*
X0046198Y0261753D02*
X0154871Y0261753D01*
X0150715Y0256958D02*
X0031078Y0256958D01*
X0028056Y0256958D02*
X0007756Y0256958D01*
X0007756Y0258556D02*
X0025832Y0258556D01*
X0025097Y0260155D02*
X0007756Y0260155D01*
X0007756Y0261753D02*
X0025014Y0261753D01*
X0025506Y0263352D02*
X0007756Y0263352D01*
X0007756Y0264950D02*
X0026819Y0264950D01*
X0007756Y0272943D02*
X0168395Y0272943D01*
X0170882Y0274541D02*
X0007756Y0274541D01*
X0007756Y0276140D02*
X0173913Y0276140D01*
X0177414Y0277738D02*
X0007756Y0277738D01*
X0007756Y0279337D02*
X0180946Y0279337D01*
X0186391Y0280935D02*
X0007756Y0280935D01*
X0007756Y0282534D02*
X0193581Y0282534D01*
X0191198Y0271344D02*
X0188327Y0271344D01*
X0188806Y0269746D02*
X0183379Y0269746D01*
X0185509Y0266549D02*
X0176476Y0266549D01*
X0173989Y0264950D02*
X0184358Y0264950D01*
X0183290Y0263352D02*
X0171502Y0263352D01*
X0169200Y0261753D02*
X0182408Y0261753D01*
X0181746Y0260155D02*
X0167355Y0260155D01*
X0165510Y0258556D02*
X0181084Y0258556D01*
X0180699Y0256958D02*
X0163666Y0256958D01*
X0162229Y0255359D02*
X0180381Y0255359D01*
X0180064Y0253761D02*
X0160844Y0253761D01*
X0159459Y0252162D02*
X0180061Y0252162D01*
X0180061Y0250564D02*
X0158074Y0250564D01*
X0157033Y0248965D02*
X0180101Y0248965D01*
X0180419Y0247367D02*
X0156005Y0247367D01*
X0154978Y0245768D02*
X0180737Y0245768D01*
X0181161Y0244170D02*
X0153951Y0244170D01*
X0153100Y0242571D02*
X0181823Y0242571D01*
X0182486Y0240973D02*
X0152370Y0240973D01*
X0151640Y0239374D02*
X0183415Y0239374D01*
X0184483Y0237776D02*
X0150910Y0237776D01*
X0150180Y0236177D02*
X0185696Y0236177D01*
X0187295Y0234579D02*
X0149676Y0234579D01*
X0149206Y0232980D02*
X0189087Y0232980D01*
X0191479Y0231382D02*
X0148737Y0231382D01*
X0148268Y0229783D02*
X0194825Y0229783D01*
X0199602Y0226586D02*
X0147541Y0226586D01*
X0147311Y0224987D02*
X0198778Y0224987D01*
X0198519Y0223389D02*
X0147081Y0223389D01*
X0146851Y0221790D02*
X0198710Y0221790D01*
X0199439Y0220192D02*
X0146621Y0220192D01*
X0146520Y0218593D02*
X0201349Y0218593D01*
X0200011Y0216995D02*
X0146463Y0216995D01*
X0146481Y0215396D02*
X0198948Y0215396D01*
X0198519Y0213798D02*
X0146089Y0213798D01*
X0145027Y0212199D02*
X0198541Y0212199D01*
X0207010Y0209002D02*
X0220949Y0209002D01*
X0220423Y0208784D02*
X0218932Y0207294D01*
X0218125Y0205346D01*
X0218125Y0203237D01*
X0218932Y0201289D01*
X0220423Y0199798D01*
X0222371Y0198991D01*
X0224479Y0198991D01*
X0226427Y0199798D01*
X0227918Y0201289D01*
X0228725Y0203237D01*
X0228725Y0205346D01*
X0227918Y0207294D01*
X0226427Y0208784D01*
X0224479Y0209591D01*
X0222371Y0209591D01*
X0220423Y0208784D01*
X0219042Y0207404D02*
X0187808Y0207404D01*
X0188535Y0205805D02*
X0218316Y0205805D01*
X0218125Y0204207D02*
X0188725Y0204207D01*
X0188465Y0202608D02*
X0218386Y0202608D01*
X0219211Y0201010D02*
X0187639Y0201010D01*
X0185493Y0199411D02*
X0221357Y0199411D01*
X0225493Y0199411D02*
X0295610Y0199411D01*
X0295133Y0197813D02*
X0113528Y0197813D01*
X0113528Y0196214D02*
X0295133Y0196214D01*
X0295769Y0194616D02*
X0112893Y0194616D01*
X0111536Y0193017D02*
X0297125Y0193017D01*
X0303741Y0193017D02*
X0318898Y0193017D01*
X0318085Y0194616D02*
X0305097Y0194616D01*
X0305733Y0196214D02*
X0317872Y0196214D01*
X0318111Y0197813D02*
X0305733Y0197813D01*
X0305256Y0199411D02*
X0318272Y0199411D01*
X0318223Y0201010D02*
X0304123Y0201010D01*
X0296743Y0201010D02*
X0227639Y0201010D01*
X0228465Y0202608D02*
X0318173Y0202608D01*
X0318117Y0204207D02*
X0228725Y0204207D01*
X0228535Y0205805D02*
X0317742Y0205805D01*
X0317367Y0207404D02*
X0227808Y0207404D01*
X0225901Y0209002D02*
X0316992Y0209002D01*
X0316260Y0210601D02*
X0208435Y0210601D01*
X0209097Y0212199D02*
X0264185Y0212199D01*
X0263124Y0213798D02*
X0209119Y0213798D01*
X0208690Y0215396D02*
X0262731Y0215396D01*
X0262750Y0216995D02*
X0207626Y0216995D01*
X0206289Y0218593D02*
X0262693Y0218593D01*
X0262591Y0220192D02*
X0208199Y0220192D01*
X0208927Y0221790D02*
X0262361Y0221790D01*
X0262131Y0223389D02*
X0209119Y0223389D01*
X0208860Y0224987D02*
X0261902Y0224987D01*
X0261672Y0226586D02*
X0208035Y0226586D01*
X0205893Y0228185D02*
X0261414Y0228185D01*
X0260945Y0229783D02*
X0211868Y0229783D01*
X0215214Y0231382D02*
X0260476Y0231382D01*
X0260006Y0232980D02*
X0217606Y0232980D01*
X0219398Y0234579D02*
X0259537Y0234579D01*
X0259033Y0236177D02*
X0220997Y0236177D01*
X0222210Y0237776D02*
X0258303Y0237776D01*
X0257573Y0239374D02*
X0223278Y0239374D01*
X0224207Y0240973D02*
X0256843Y0240973D01*
X0256113Y0242571D02*
X0224869Y0242571D01*
X0225532Y0244170D02*
X0255262Y0244170D01*
X0254235Y0245768D02*
X0225956Y0245768D01*
X0226274Y0247367D02*
X0253207Y0247367D01*
X0252180Y0248965D02*
X0226592Y0248965D01*
X0226631Y0250564D02*
X0251139Y0250564D01*
X0249754Y0252162D02*
X0226631Y0252162D01*
X0226629Y0253761D02*
X0248369Y0253761D01*
X0246984Y0255359D02*
X0226311Y0255359D01*
X0225993Y0256958D02*
X0245547Y0256958D01*
X0243702Y0258556D02*
X0225609Y0258556D01*
X0224947Y0260155D02*
X0241857Y0260155D01*
X0240013Y0261753D02*
X0224285Y0261753D01*
X0223403Y0263352D02*
X0237711Y0263352D01*
X0235224Y0264950D02*
X0222335Y0264950D01*
X0221184Y0266549D02*
X0232736Y0266549D01*
X0229334Y0268147D02*
X0219586Y0268147D01*
X0217887Y0269746D02*
X0225834Y0269746D01*
X0220885Y0271344D02*
X0215494Y0271344D01*
X0213842Y0272943D02*
X0212321Y0272943D01*
X0215632Y0282534D02*
X0335881Y0282534D01*
X0335881Y0283259D02*
X0335881Y0281150D01*
X0336688Y0279203D01*
X0338179Y0277712D01*
X0339125Y0277320D01*
X0339070Y0277302D01*
X0338298Y0276909D01*
X0337598Y0276400D01*
X0336986Y0275788D01*
X0336477Y0275087D01*
X0336084Y0274316D01*
X0335817Y0273493D01*
X0335681Y0272638D01*
X0335681Y0272291D01*
X0341095Y0272291D01*
X0341095Y0272119D01*
X0335681Y0272119D01*
X0335681Y0271772D01*
X0335817Y0270917D01*
X0336084Y0270093D01*
X0336477Y0269322D01*
X0336986Y0268622D01*
X0337598Y0268010D01*
X0338298Y0267501D01*
X0339070Y0267108D01*
X0339893Y0266840D01*
X0340748Y0266705D01*
X0341095Y0266705D01*
X0341095Y0272119D01*
X0341267Y0272119D01*
X0341267Y0272291D01*
X0346681Y0272291D01*
X0346681Y0272638D01*
X0346546Y0273493D01*
X0346278Y0274316D01*
X0345885Y0275087D01*
X0345376Y0275788D01*
X0344764Y0276400D01*
X0344064Y0276909D01*
X0343292Y0277302D01*
X0343237Y0277320D01*
X0344183Y0277712D01*
X0345674Y0279203D01*
X0346481Y0281150D01*
X0346481Y0283259D01*
X0345674Y0285207D01*
X0344183Y0286698D01*
X0342960Y0287205D01*
X0344183Y0287712D01*
X0345674Y0289203D01*
X0346481Y0291150D01*
X0346481Y0293259D01*
X0345674Y0295207D01*
X0344183Y0296698D01*
X0342235Y0297505D01*
X0340127Y0297505D01*
X0338179Y0296698D01*
X0336688Y0295207D01*
X0335881Y0293259D01*
X0335881Y0291150D01*
X0336688Y0289203D01*
X0338179Y0287712D01*
X0339403Y0287205D01*
X0338179Y0286698D01*
X0336688Y0285207D01*
X0335881Y0283259D01*
X0336243Y0284132D02*
X0007756Y0284132D01*
X0007756Y0285731D02*
X0337212Y0285731D01*
X0339102Y0287329D02*
X0007756Y0287329D01*
X0007756Y0288928D02*
X0336963Y0288928D01*
X0336140Y0290526D02*
X0007756Y0290526D01*
X0007756Y0292125D02*
X0335881Y0292125D01*
X0336074Y0293723D02*
X0007756Y0293723D01*
X0007756Y0295322D02*
X0336803Y0295322D01*
X0338716Y0296920D02*
X0007756Y0296920D01*
X0007756Y0298519D02*
X0401457Y0298519D01*
X0401457Y0296920D02*
X0383646Y0296920D01*
X0384183Y0296698D02*
X0382235Y0297505D01*
X0380127Y0297505D01*
X0378179Y0296698D01*
X0376688Y0295207D01*
X0375881Y0293259D01*
X0375881Y0291150D01*
X0376688Y0289203D01*
X0378179Y0287712D01*
X0379403Y0287205D01*
X0378179Y0286698D01*
X0376688Y0285207D01*
X0375881Y0283259D01*
X0375881Y0281150D01*
X0376688Y0279203D01*
X0378179Y0277712D01*
X0379403Y0277205D01*
X0378179Y0276698D01*
X0376688Y0275207D01*
X0375881Y0273259D01*
X0375881Y0271150D01*
X0376688Y0269203D01*
X0378179Y0267712D01*
X0380127Y0266905D01*
X0382235Y0266905D01*
X0384183Y0267712D01*
X0385674Y0269203D01*
X0386481Y0271150D01*
X0386481Y0273259D01*
X0385674Y0275207D01*
X0384183Y0276698D01*
X0382960Y0277205D01*
X0384183Y0277712D01*
X0385674Y0279203D01*
X0386481Y0281150D01*
X0386481Y0283259D01*
X0385674Y0285207D01*
X0384183Y0286698D01*
X0382960Y0287205D01*
X0384183Y0287712D01*
X0385674Y0289203D01*
X0386481Y0291150D01*
X0386481Y0293259D01*
X0385674Y0295207D01*
X0384183Y0296698D01*
X0385559Y0295322D02*
X0401457Y0295322D01*
X0401457Y0293723D02*
X0386289Y0293723D01*
X0386481Y0292125D02*
X0401457Y0292125D01*
X0401457Y0290526D02*
X0386223Y0290526D01*
X0385400Y0288928D02*
X0401457Y0288928D01*
X0401457Y0287329D02*
X0383261Y0287329D01*
X0385150Y0285731D02*
X0401457Y0285731D01*
X0401457Y0284132D02*
X0386119Y0284132D01*
X0386481Y0282534D02*
X0401457Y0282534D01*
X0401457Y0280935D02*
X0386392Y0280935D01*
X0385730Y0279337D02*
X0401457Y0279337D01*
X0401457Y0277738D02*
X0384210Y0277738D01*
X0384741Y0276140D02*
X0401457Y0276140D01*
X0401457Y0274541D02*
X0385950Y0274541D01*
X0386481Y0272943D02*
X0401457Y0272943D01*
X0401457Y0271344D02*
X0386481Y0271344D01*
X0385899Y0269746D02*
X0401457Y0269746D01*
X0401457Y0268147D02*
X0384619Y0268147D01*
X0377743Y0268147D02*
X0344902Y0268147D01*
X0344764Y0268010D02*
X0345376Y0268622D01*
X0345885Y0269322D01*
X0346278Y0270093D01*
X0346546Y0270917D01*
X0346681Y0271772D01*
X0346681Y0272119D01*
X0341267Y0272119D01*
X0341267Y0266705D01*
X0341614Y0266705D01*
X0342469Y0266840D01*
X0343292Y0267108D01*
X0344064Y0267501D01*
X0344764Y0268010D01*
X0346101Y0269746D02*
X0376463Y0269746D01*
X0375881Y0271344D02*
X0346613Y0271344D01*
X0346633Y0272943D02*
X0375881Y0272943D01*
X0376412Y0274541D02*
X0346163Y0274541D01*
X0345024Y0276140D02*
X0377621Y0276140D01*
X0378152Y0277738D02*
X0344210Y0277738D01*
X0345730Y0279337D02*
X0376632Y0279337D01*
X0375970Y0280935D02*
X0346392Y0280935D01*
X0346481Y0282534D02*
X0375881Y0282534D01*
X0376243Y0284132D02*
X0346119Y0284132D01*
X0345150Y0285731D02*
X0377212Y0285731D01*
X0379102Y0287329D02*
X0343261Y0287329D01*
X0345400Y0288928D02*
X0376963Y0288928D01*
X0376140Y0290526D02*
X0346223Y0290526D01*
X0346481Y0292125D02*
X0375881Y0292125D01*
X0376074Y0293723D02*
X0346289Y0293723D01*
X0345559Y0295322D02*
X0376803Y0295322D01*
X0378716Y0296920D02*
X0343646Y0296920D01*
X0335970Y0280935D02*
X0222822Y0280935D01*
X0228266Y0279337D02*
X0336632Y0279337D01*
X0338152Y0277738D02*
X0231799Y0277738D01*
X0235299Y0276140D02*
X0337338Y0276140D01*
X0336199Y0274541D02*
X0238330Y0274541D01*
X0240818Y0272943D02*
X0335729Y0272943D01*
X0335749Y0271344D02*
X0243305Y0271344D01*
X0245675Y0269746D02*
X0336261Y0269746D01*
X0337460Y0268147D02*
X0247519Y0268147D01*
X0249364Y0266549D02*
X0401457Y0266549D01*
X0401457Y0264950D02*
X0251209Y0264950D01*
X0252957Y0263352D02*
X0401457Y0263352D01*
X0401457Y0261753D02*
X0254342Y0261753D01*
X0255727Y0260155D02*
X0401457Y0260155D01*
X0401457Y0258556D02*
X0257112Y0258556D01*
X0258497Y0256958D02*
X0401457Y0256958D01*
X0401457Y0255359D02*
X0259658Y0255359D01*
X0260686Y0253761D02*
X0401457Y0253761D01*
X0401457Y0252162D02*
X0261713Y0252162D01*
X0262740Y0250564D02*
X0401457Y0250564D01*
X0401457Y0248965D02*
X0263768Y0248965D01*
X0264640Y0247367D02*
X0401457Y0247367D01*
X0401457Y0245768D02*
X0265370Y0245768D01*
X0266100Y0244170D02*
X0401457Y0244170D01*
X0401457Y0242571D02*
X0266830Y0242571D01*
X0267560Y0240973D02*
X0401457Y0240973D01*
X0401457Y0239374D02*
X0268288Y0239374D01*
X0268758Y0237776D02*
X0401457Y0237776D01*
X0401457Y0236177D02*
X0269227Y0236177D01*
X0269697Y0234579D02*
X0285678Y0234579D01*
X0280397Y0232980D02*
X0270166Y0232980D01*
X0270635Y0231382D02*
X0277129Y0231382D01*
X0274330Y0229783D02*
X0271061Y0229783D01*
X0271290Y0228185D02*
X0272246Y0228185D01*
X0279887Y0221790D02*
X0306834Y0221790D01*
X0309096Y0220192D02*
X0277802Y0220192D01*
X0275933Y0218593D02*
X0310839Y0218593D01*
X0312003Y0217527D02*
X0312003Y0217527D01*
X0312390Y0216995D02*
X0274539Y0216995D01*
X0273145Y0215396D02*
X0313554Y0215396D01*
X0314718Y0213798D02*
X0272116Y0213798D01*
X0271007Y0212199D02*
X0315527Y0212199D01*
X0324026Y0216995D02*
X0401457Y0216995D01*
X0401457Y0218593D02*
X0323255Y0218593D01*
X0322091Y0220192D02*
X0401457Y0220192D01*
X0401457Y0221790D02*
X0320927Y0221790D01*
X0319763Y0223389D02*
X0401457Y0223389D01*
X0401457Y0224987D02*
X0318254Y0224987D01*
X0316510Y0226586D02*
X0401457Y0226586D01*
X0401457Y0228185D02*
X0314767Y0228185D01*
X0312410Y0229783D02*
X0401457Y0229783D01*
X0401457Y0231382D02*
X0309759Y0231382D01*
X0306298Y0232980D02*
X0401457Y0232980D01*
X0401457Y0234579D02*
X0301822Y0234579D01*
X0299766Y0224987D02*
X0287435Y0224987D01*
X0282919Y0223389D02*
X0304183Y0223389D01*
X0324759Y0215396D02*
X0401457Y0215396D01*
X0401457Y0213798D02*
X0325491Y0213798D01*
X0326224Y0212199D02*
X0401457Y0212199D01*
X0401457Y0210601D02*
X0326605Y0210601D01*
X0326980Y0209002D02*
X0346403Y0209002D01*
X0336860Y0207404D02*
X0327355Y0207404D01*
X0327730Y0205805D02*
X0331340Y0205805D01*
X0333782Y0196214D02*
X0367540Y0196214D01*
X0371439Y0194616D02*
X0330226Y0194616D01*
X0327146Y0193017D02*
X0374081Y0193017D01*
X0376722Y0191419D02*
X0324573Y0191419D01*
X0320892Y0191419D02*
X0303714Y0191419D01*
X0305086Y0189820D02*
X0378866Y0189820D01*
X0380743Y0188222D02*
X0305733Y0188222D01*
X0305733Y0186623D02*
X0382621Y0186623D01*
X0384162Y0185025D02*
X0305267Y0185025D01*
X0304150Y0183426D02*
X0385521Y0183426D01*
X0392881Y0189820D02*
X0401457Y0189820D01*
X0401457Y0188222D02*
X0394239Y0188222D01*
X0395598Y0186623D02*
X0401457Y0186623D01*
X0401457Y0185025D02*
X0396685Y0185025D01*
X0397650Y0183426D02*
X0401457Y0183426D01*
X0401457Y0181828D02*
X0398615Y0181828D01*
X0399581Y0180229D02*
X0401457Y0180229D01*
X0401457Y0178631D02*
X0400546Y0178631D01*
X0401227Y0177032D02*
X0401457Y0177032D01*
X0401457Y0191419D02*
X0391522Y0191419D01*
X0390150Y0193017D02*
X0401457Y0193017D01*
X0401457Y0194616D02*
X0388272Y0194616D01*
X0386395Y0196214D02*
X0401457Y0196214D01*
X0401457Y0197813D02*
X0384517Y0197813D01*
X0382345Y0199411D02*
X0401457Y0199411D01*
X0401457Y0201010D02*
X0379704Y0201010D01*
X0377062Y0202608D02*
X0401457Y0202608D01*
X0401457Y0204207D02*
X0373790Y0204207D01*
X0369823Y0205805D02*
X0401457Y0205805D01*
X0401457Y0207404D02*
X0364684Y0207404D01*
X0354936Y0209002D02*
X0401457Y0209002D01*
X0362897Y0197813D02*
X0338732Y0197813D01*
X0348465Y0199411D02*
X0352045Y0199411D01*
X0339527Y0170638D02*
X0223638Y0170638D01*
X0224606Y0169040D02*
X0337134Y0169040D01*
X0335102Y0167441D02*
X0224606Y0167441D01*
X0224606Y0165843D02*
X0255215Y0165843D01*
X0255395Y0165934D02*
X0254604Y0165531D01*
X0253886Y0165010D01*
X0253258Y0164382D01*
X0252737Y0163664D01*
X0252334Y0162873D01*
X0252059Y0162029D01*
X0251926Y0161188D01*
X0257079Y0161188D01*
X0257079Y0160229D01*
X0251926Y0160229D01*
X0252059Y0159388D01*
X0252334Y0158544D01*
X0252737Y0157753D01*
X0253258Y0157035D01*
X0253886Y0156408D01*
X0254604Y0155886D01*
X0255395Y0155483D01*
X0256239Y0155209D01*
X0257080Y0155076D01*
X0257080Y0160229D01*
X0258039Y0160229D01*
X0258039Y0161188D01*
X0263192Y0161188D01*
X0263059Y0162029D01*
X0262785Y0162873D01*
X0262382Y0163664D01*
X0261860Y0164382D01*
X0261232Y0165010D01*
X0260514Y0165531D01*
X0259724Y0165934D01*
X0258879Y0166208D01*
X0258039Y0166342D01*
X0258039Y0161188D01*
X0257080Y0161188D01*
X0257080Y0166342D01*
X0256239Y0166208D01*
X0255395Y0165934D01*
X0257080Y0165843D02*
X0258039Y0165843D01*
X0258039Y0164244D02*
X0257080Y0164244D01*
X0257080Y0162646D02*
X0258039Y0162646D01*
X0258039Y0161047D02*
X0330009Y0161047D01*
X0329347Y0159449D02*
X0263068Y0159449D01*
X0263059Y0159388D02*
X0263192Y0160229D01*
X0258039Y0160229D01*
X0258039Y0155076D01*
X0258879Y0155209D01*
X0259724Y0155483D01*
X0260514Y0155886D01*
X0261232Y0156408D01*
X0261860Y0157035D01*
X0262382Y0157753D01*
X0262785Y0158544D01*
X0263059Y0159388D01*
X0262431Y0157850D02*
X0328685Y0157850D01*
X0328156Y0156252D02*
X0261017Y0156252D01*
X0258039Y0156252D02*
X0257080Y0156252D01*
X0257080Y0157850D02*
X0258039Y0157850D01*
X0258039Y0159449D02*
X0257080Y0159449D01*
X0257079Y0161047D02*
X0223512Y0161047D01*
X0224806Y0159449D02*
X0252050Y0159449D01*
X0252687Y0157850D02*
X0224806Y0157850D01*
X0224806Y0156252D02*
X0254101Y0156252D01*
X0252260Y0162646D02*
X0221913Y0162646D01*
X0223323Y0164244D02*
X0253158Y0164244D01*
X0259903Y0165843D02*
X0333503Y0165843D01*
X0332130Y0164244D02*
X0261960Y0164244D01*
X0262858Y0162646D02*
X0331061Y0162646D01*
X0327838Y0154653D02*
X0224015Y0154653D01*
X0222416Y0153054D02*
X0327520Y0153054D01*
X0297463Y0127478D02*
X0115371Y0127478D01*
X0116303Y0125880D02*
X0295707Y0125880D01*
X0295043Y0124281D02*
X0116639Y0124281D01*
X0116523Y0122683D02*
X0294897Y0122683D01*
X0295202Y0121084D02*
X0115861Y0121084D01*
X0114252Y0119486D02*
X0296090Y0119486D01*
X0219606Y0153054D02*
X0219606Y0153054D01*
X0219606Y0154653D02*
X0219606Y0154653D01*
X0219606Y0156252D02*
X0219606Y0156252D01*
X0219606Y0157598D02*
X0219606Y0157598D01*
X0186707Y0183426D02*
X0111945Y0183426D01*
X0113062Y0185025D02*
X0185109Y0185025D01*
X0184606Y0186623D02*
X0113528Y0186623D01*
X0113528Y0188222D02*
X0184606Y0188222D01*
X0184757Y0189820D02*
X0112882Y0189820D01*
X0111510Y0191419D02*
X0186356Y0191419D01*
X0181357Y0199411D02*
X0113051Y0199411D01*
X0111919Y0201010D02*
X0179211Y0201010D01*
X0200988Y0228185D02*
X0147798Y0228185D01*
X0138577Y0231382D02*
X0132084Y0231382D01*
X0134057Y0230417D02*
X0134057Y0230417D01*
X0134883Y0229783D02*
X0138152Y0229783D01*
X0137922Y0228185D02*
X0136967Y0228185D01*
X0139047Y0232980D02*
X0128815Y0232980D01*
X0099454Y0231382D02*
X0037774Y0231382D01*
X0037146Y0232009D02*
X0035473Y0232702D01*
X0033661Y0232702D01*
X0031988Y0232009D01*
X0030707Y0230729D01*
X0030014Y0229055D01*
X0030014Y0227244D01*
X0030707Y0225571D01*
X0031988Y0224290D01*
X0033661Y0223597D01*
X0035473Y0223597D01*
X0037146Y0224290D01*
X0038427Y0225571D01*
X0039120Y0227244D01*
X0039120Y0229055D01*
X0038427Y0230729D01*
X0037146Y0232009D01*
X0038818Y0229783D02*
X0096802Y0229783D01*
X0094446Y0228185D02*
X0039120Y0228185D01*
X0038847Y0226586D02*
X0092702Y0226586D01*
X0090958Y0224987D02*
X0037843Y0224987D01*
X0031290Y0224987D02*
X0007756Y0224987D01*
X0007756Y0223389D02*
X0089450Y0223389D01*
X0089922Y0224037D02*
X0089922Y0224037D01*
X0088286Y0221790D02*
X0007756Y0221790D01*
X0007756Y0220192D02*
X0087122Y0220192D01*
X0085958Y0218593D02*
X0007756Y0218593D01*
X0007756Y0216995D02*
X0085187Y0216995D01*
X0084454Y0215396D02*
X0007756Y0215396D01*
X0007756Y0213798D02*
X0083721Y0213798D01*
X0082988Y0212199D02*
X0007756Y0212199D01*
X0007756Y0210601D02*
X0082607Y0210601D01*
X0082232Y0209002D02*
X0062809Y0209002D01*
X0054276Y0209002D02*
X0007756Y0209002D01*
X0007756Y0207404D02*
X0044528Y0207404D01*
X0039389Y0205805D02*
X0007756Y0205805D01*
X0007756Y0204207D02*
X0035423Y0204207D01*
X0032150Y0202608D02*
X0007756Y0202608D01*
X0007756Y0201010D02*
X0029509Y0201010D01*
X0026867Y0199411D02*
X0007756Y0199411D01*
X0007756Y0197813D02*
X0024695Y0197813D01*
X0022818Y0196214D02*
X0007756Y0196214D01*
X0007756Y0194616D02*
X0020940Y0194616D01*
X0019063Y0193017D02*
X0007756Y0193017D01*
X0007756Y0191419D02*
X0017690Y0191419D01*
X0016332Y0189820D02*
X0007756Y0189820D01*
X0007756Y0188222D02*
X0014973Y0188222D01*
X0013615Y0186623D02*
X0007756Y0186623D01*
X0007756Y0185025D02*
X0012528Y0185025D01*
X0011563Y0183426D02*
X0007756Y0183426D01*
X0007756Y0181828D02*
X0010597Y0181828D01*
X0009632Y0180229D02*
X0007756Y0180229D01*
X0007756Y0178631D02*
X0008667Y0178631D01*
X0007986Y0177032D02*
X0007756Y0177032D01*
X0032490Y0191419D02*
X0084640Y0191419D01*
X0082066Y0193017D02*
X0035132Y0193017D01*
X0037773Y0194616D02*
X0078987Y0194616D01*
X0075430Y0196214D02*
X0041673Y0196214D01*
X0046316Y0197813D02*
X0070480Y0197813D01*
X0060748Y0199411D02*
X0057168Y0199411D01*
X0072353Y0207404D02*
X0081857Y0207404D01*
X0081482Y0205805D02*
X0077873Y0205805D01*
X0046762Y0232980D02*
X0007756Y0232980D01*
X0007756Y0231382D02*
X0031360Y0231382D01*
X0030316Y0229783D02*
X0007756Y0229783D01*
X0007756Y0228185D02*
X0030014Y0228185D01*
X0030287Y0226586D02*
X0007756Y0226586D01*
X0007756Y0300118D02*
X0401457Y0300118D01*
X0401457Y0301716D02*
X0007756Y0301716D01*
X0007756Y0303315D02*
X0401457Y0303315D01*
X0401457Y0304913D02*
X0007756Y0304913D01*
X0007756Y0306512D02*
X0401457Y0306512D01*
X0401457Y0308110D02*
X0007756Y0308110D01*
X0007756Y0309709D02*
X0401457Y0309709D01*
X0401457Y0311307D02*
X0007756Y0311307D01*
X0007756Y0312906D02*
X0401457Y0312906D01*
X0341267Y0271344D02*
X0341095Y0271344D01*
X0341095Y0269746D02*
X0341267Y0269746D01*
X0341267Y0268147D02*
X0341095Y0268147D01*
X0187107Y0268147D02*
X0179878Y0268147D01*
X0107306Y0127478D02*
X0075371Y0127478D01*
X0076303Y0125880D02*
X0106374Y0125880D01*
X0106039Y0124281D02*
X0076639Y0124281D01*
X0076523Y0122683D02*
X0106154Y0122683D01*
X0106816Y0121084D02*
X0075861Y0121084D01*
X0074252Y0119486D02*
X0108425Y0119486D01*
X0130886Y0106698D02*
X0386837Y0106698D01*
X0387548Y0108296D02*
X0132300Y0108296D01*
X0131058Y0105099D02*
X0386125Y0105099D01*
X0385413Y0103501D02*
X0132372Y0103501D01*
X0132977Y0101902D02*
X0384702Y0101902D01*
X0383990Y0100304D02*
X0132977Y0100304D01*
X0132470Y0098705D02*
X0383278Y0098705D01*
X0382566Y0097107D02*
X0131295Y0097107D01*
X0069708Y0129077D02*
X0068572Y0129077D01*
X0067306Y0127478D02*
X0064677Y0127478D01*
X0066374Y0125880D02*
X0050497Y0125880D01*
X0050489Y0124281D02*
X0066039Y0124281D01*
X0066154Y0122683D02*
X0049827Y0122683D01*
X0048422Y0121084D02*
X0066816Y0121084D01*
X0068425Y0119486D02*
X0048561Y0119486D01*
X0050054Y0127478D02*
X0051228Y0127478D01*
X0085427Y0037962D02*
X0323785Y0037962D01*
X0320195Y0036363D02*
X0089018Y0036363D01*
X0092608Y0034765D02*
X0316605Y0034765D01*
X0313014Y0033166D02*
X0096198Y0033166D01*
X0100492Y0031568D02*
X0188873Y0031568D01*
X0187366Y0029969D02*
X0105411Y0029969D01*
X0110331Y0028371D02*
X0186704Y0028371D01*
X0186624Y0026772D02*
X0117430Y0026772D01*
X0125158Y0025174D02*
X0186995Y0025174D01*
X0196853Y0025174D02*
X0212595Y0025174D01*
X0212224Y0026772D02*
X0197224Y0026772D01*
X0197145Y0028371D02*
X0212304Y0028371D01*
X0212966Y0029969D02*
X0196482Y0029969D01*
X0194976Y0031568D02*
X0214473Y0031568D01*
X0220576Y0031568D02*
X0308721Y0031568D01*
X0303801Y0029969D02*
X0222082Y0029969D01*
X0222745Y0028371D02*
X0298881Y0028371D01*
X0291783Y0026772D02*
X0222824Y0026772D01*
X0222453Y0025174D02*
X0284054Y0025174D01*
X0213794Y0041159D02*
X0195655Y0041159D01*
X0196764Y0042757D02*
X0212685Y0042757D01*
X0212224Y0044356D02*
X0197224Y0044356D01*
X0197224Y0045954D02*
X0212224Y0045954D01*
X0212877Y0047553D02*
X0196572Y0047553D01*
X0195192Y0049151D02*
X0214257Y0049151D01*
D14*
X0034567Y0228150D03*
X0027126Y0240591D03*
X0040236Y0248819D03*
X0052795Y0251260D03*
X0042126Y0263819D03*
X0029567Y0261260D03*
X0057795Y0268150D03*
X0049606Y0236575D03*
D15*
X0057953Y0149882D03*
X0203346Y0251457D03*
X0350669Y0150079D03*
M02*
