G75*
%MOIN*%
%OFA0B0*%
%FSLAX25Y25*%
%IPPOS*%
%LPD*%
%AMOC8*
5,1,8,0,0,1.08239X$1,22.5*
%
%ADD10C,0.08477*%
%ADD11C,0.08200*%
%ADD12OC8,0.07600*%
%ADD13R,0.00540X0.00541*%
%ADD14R,0.02700X0.00540*%
%ADD15R,0.04320X0.00541*%
%ADD16R,0.01080X0.00540*%
%ADD17R,0.04860X0.00540*%
%ADD18R,0.01080X0.00540*%
%ADD19R,0.04870X0.00541*%
%ADD20R,0.05400X0.00541*%
%ADD21R,0.04330X0.00541*%
%ADD22R,0.17300X0.00540*%
%ADD23R,0.08110X0.00541*%
%ADD24R,0.08650X0.00541*%
%ADD25R,0.09730X0.00541*%
%ADD26R,0.09190X0.00541*%
%ADD27R,0.10270X0.00540*%
%ADD28R,0.09730X0.00540*%
%ADD29R,0.10810X0.00541*%
%ADD30R,0.03780X0.00540*%
%ADD31R,0.04870X0.00540*%
%ADD32R,0.03240X0.00540*%
%ADD33R,0.02700X0.00540*%
%ADD34R,0.04320X0.00540*%
%ADD35R,0.02710X0.00541*%
%ADD36R,0.07030X0.00541*%
%ADD37R,0.01080X0.00541*%
%ADD38R,0.11360X0.00541*%
%ADD39R,0.01080X0.00541*%
%ADD40R,0.07030X0.00541*%
%ADD41R,0.03240X0.00541*%
%ADD42R,0.02710X0.00540*%
%ADD43R,0.08650X0.00540*%
%ADD44R,0.12440X0.00540*%
%ADD45R,0.08110X0.00540*%
%ADD46R,0.03250X0.00540*%
%ADD47R,0.02710X0.00541*%
%ADD48R,0.14060X0.00541*%
%ADD49R,0.02710X0.00540*%
%ADD50R,0.01620X0.00540*%
%ADD51R,0.04320X0.00540*%
%ADD52R,0.01620X0.00540*%
%ADD53R,0.01620X0.00541*%
%ADD54R,0.00550X0.00541*%
%ADD55R,0.04320X0.00541*%
%ADD56R,0.01080X0.00541*%
%ADD57R,0.01630X0.00541*%
%ADD58R,0.03250X0.00541*%
%ADD59R,0.01620X0.00541*%
%ADD60R,0.03240X0.00540*%
%ADD61R,0.11890X0.00541*%
%ADD62R,0.02710X0.00541*%
%ADD63R,0.03780X0.00541*%
%ADD64R,0.02700X0.00541*%
%ADD65R,0.03780X0.00541*%
%ADD66R,0.11350X0.00541*%
%ADD67R,0.04860X0.00540*%
%ADD68R,0.05410X0.00540*%
%ADD69R,0.02710X0.00540*%
%ADD70R,0.02170X0.00540*%
%ADD71R,0.02160X0.00540*%
%ADD72R,0.02160X0.00540*%
%ADD73R,0.05400X0.00540*%
%ADD74R,0.04320X0.00540*%
%ADD75R,0.03250X0.00541*%
%ADD76R,0.02160X0.00541*%
%ADD77R,0.01620X0.00541*%
%ADD78R,0.03240X0.00541*%
%ADD79R,0.02710X0.00540*%
%ADD80R,0.01620X0.00540*%
%ADD81R,0.03240X0.00540*%
%ADD82R,0.01080X0.00540*%
%ADD83R,0.01620X0.00540*%
%ADD84R,0.01620X0.00541*%
%ADD85R,0.02170X0.00541*%
%ADD86R,0.05400X0.00540*%
%ADD87R,0.02160X0.00540*%
%ADD88R,0.00540X0.00540*%
%ADD89R,0.01630X0.00540*%
%ADD90R,0.07020X0.00541*%
%ADD91R,0.02160X0.00541*%
%ADD92R,0.00540X0.00541*%
%ADD93R,0.06480X0.00541*%
%ADD94R,0.01630X0.00541*%
%ADD95R,0.08100X0.00540*%
%ADD96R,0.03790X0.00540*%
%ADD97R,0.10270X0.00540*%
%ADD98R,0.07560X0.00540*%
%ADD99R,0.06480X0.00541*%
%ADD100R,0.08100X0.00541*%
%ADD101R,0.09730X0.00541*%
%ADD102R,0.02160X0.00541*%
%ADD103R,0.05950X0.00541*%
%ADD104R,0.03790X0.00541*%
%ADD105R,0.10270X0.00541*%
%ADD106R,0.00540X0.00541*%
%ADD107R,0.02170X0.00541*%
%ADD108R,0.13510X0.00540*%
%ADD109R,0.02160X0.00540*%
%ADD110R,0.12970X0.00540*%
%ADD111R,0.09190X0.00541*%
%ADD112R,0.14050X0.00541*%
%ADD113R,0.02160X0.00541*%
%ADD114R,0.07030X0.00540*%
%ADD115R,0.03780X0.00540*%
%ADD116R,0.07020X0.00540*%
%ADD117R,0.02710X0.00541*%
%ADD118R,0.03240X0.00541*%
%ADD119R,0.01080X0.00541*%
%ADD120R,0.03240X0.00541*%
%ADD121R,0.04860X0.00541*%
%ADD122R,0.05940X0.00541*%
%ADD123R,0.02700X0.00541*%
%ADD124R,0.07030X0.00540*%
%ADD125R,0.07020X0.00540*%
%ADD126R,0.07570X0.00541*%
%ADD127R,0.08110X0.00541*%
%ADD128R,0.17840X0.00541*%
%ADD129R,0.04330X0.00541*%
%ADD130R,0.04320X0.00541*%
%ADD131R,0.03790X0.00541*%
%ADD132R,0.23240X0.00540*%
%ADD133R,0.07570X0.00540*%
%ADD134R,0.02170X0.00540*%
%ADD135R,0.00540X0.00540*%
%ADD136R,0.04330X0.00540*%
%ADD137R,0.06490X0.00541*%
%ADD138R,0.05940X0.00541*%
%ADD139R,0.07030X0.00541*%
%ADD140R,0.02170X0.00541*%
%ADD141R,0.07030X0.00541*%
%ADD142R,0.04330X0.00540*%
%ADD143R,0.05950X0.00540*%
%ADD144R,0.01090X0.00541*%
%ADD145R,0.05410X0.00541*%
%ADD146R,0.02170X0.00541*%
%ADD147R,0.01630X0.00541*%
%ADD148R,0.04870X0.00541*%
%ADD149R,0.03790X0.00541*%
%ADD150R,0.03790X0.00540*%
%ADD151R,0.04330X0.00540*%
%ADD152R,0.01630X0.00540*%
%ADD153R,0.03250X0.00540*%
%ADD154R,0.03780X0.00540*%
%ADD155R,0.02170X0.00540*%
%ADD156R,0.04330X0.00540*%
%ADD157R,0.03240X0.00540*%
%ADD158R,0.01630X0.00541*%
%ADD159R,0.05410X0.00541*%
%ADD160R,0.12980X0.00540*%
%ADD161R,0.12430X0.00540*%
%ADD162R,0.03780X0.00541*%
%ADD163R,0.02170X0.00540*%
%ADD164R,0.10810X0.00540*%
%ADD165R,0.01090X0.00540*%
%ADD166R,0.03790X0.00540*%
%ADD167R,0.10810X0.00541*%
%ADD168R,0.07560X0.00541*%
%ADD169R,0.10270X0.00541*%
%ADD170R,0.10270X0.00541*%
%ADD171R,0.12440X0.00541*%
%ADD172R,0.12430X0.00541*%
%ADD173R,0.14600X0.00540*%
%ADD174R,0.05410X0.00540*%
%ADD175R,0.14050X0.00540*%
%ADD176R,0.04870X0.00541*%
%ADD177R,0.01090X0.00541*%
%ADD178R,0.12430X0.00541*%
%ADD179R,0.11890X0.00541*%
%ADD180R,0.04870X0.00540*%
%ADD181R,0.18380X0.00540*%
%ADD182R,0.22700X0.00540*%
%ADD183R,0.18380X0.00540*%
%ADD184R,0.04870X0.00541*%
%ADD185R,0.11890X0.00541*%
%ADD186R,0.05400X0.00541*%
%ADD187R,0.04860X0.00541*%
%ADD188R,0.10810X0.00540*%
%ADD189R,0.12970X0.00540*%
%ADD190R,0.05410X0.00541*%
%ADD191R,0.20000X0.00541*%
%ADD192R,0.09190X0.00541*%
%ADD193R,0.05410X0.00541*%
%ADD194R,0.28110X0.00540*%
%ADD195R,0.28650X0.00540*%
%ADD196R,0.01630X0.00540*%
%ADD197R,0.23780X0.00541*%
%ADD198R,0.23240X0.00541*%
%ADD199R,0.05950X0.00541*%
%ADD200R,0.07570X0.00540*%
%ADD201R,0.06490X0.00540*%
%ADD202R,0.05950X0.00540*%
%ADD203R,0.07570X0.00540*%
%ADD204R,0.08650X0.00540*%
%ADD205R,0.00540X0.00540*%
%ADD206R,0.08110X0.00540*%
%ADD207R,0.07570X0.00541*%
%ADD208R,0.07570X0.00541*%
%ADD209R,0.10270X0.00541*%
%ADD210R,0.14590X0.00541*%
%ADD211R,0.14590X0.00541*%
%ADD212R,0.17840X0.00540*%
%ADD213R,0.19460X0.00541*%
%ADD214R,0.11350X0.00540*%
%ADD215R,0.06480X0.00540*%
%ADD216R,0.06480X0.00540*%
%ADD217R,0.11890X0.00540*%
%ADD218R,0.07020X0.00540*%
%ADD219R,0.09730X0.00541*%
%ADD220R,0.09730X0.00541*%
%ADD221R,0.06480X0.00540*%
%ADD222R,0.11360X0.00540*%
%ADD223R,0.11350X0.00540*%
%ADD224R,0.05940X0.00541*%
%ADD225R,0.12440X0.00541*%
%ADD226R,0.12430X0.00541*%
%ADD227R,0.05940X0.00540*%
%ADD228R,0.12980X0.00540*%
%ADD229R,0.05940X0.00540*%
%ADD230R,0.14060X0.00541*%
%ADD231R,0.15140X0.00541*%
%ADD232R,0.15680X0.00540*%
%ADD233R,0.15680X0.00540*%
%ADD234R,0.16220X0.00541*%
%ADD235R,0.16220X0.00541*%
%ADD236R,0.04860X0.00541*%
%ADD237R,0.16760X0.00540*%
%ADD238R,0.16760X0.00540*%
%ADD239R,0.16760X0.00541*%
%ADD240R,0.16760X0.00541*%
%ADD241R,0.17300X0.00541*%
%ADD242R,0.17300X0.00541*%
%ADD243R,0.04330X0.00541*%
%ADD244R,0.04330X0.00541*%
%ADD245R,0.16760X0.00541*%
%ADD246R,0.04870X0.00540*%
%ADD247R,0.16220X0.00540*%
%ADD248R,0.16760X0.00540*%
%ADD249R,0.15680X0.00541*%
%ADD250R,0.09730X0.00540*%
%ADD251R,0.14600X0.00541*%
%ADD252R,0.14060X0.00540*%
%ADD253R,0.11890X0.00540*%
%ADD254R,0.13520X0.00541*%
%ADD255R,0.12970X0.00541*%
%ADD256R,0.12980X0.00541*%
%ADD257R,0.11900X0.00540*%
%ADD258R,0.15140X0.00540*%
%ADD259R,0.15140X0.00540*%
%ADD260R,0.11360X0.00540*%
%ADD261R,0.10280X0.00541*%
%ADD262R,0.16220X0.00541*%
%ADD263R,0.16220X0.00541*%
%ADD264R,0.08640X0.00540*%
%ADD265R,0.05940X0.00541*%
%ADD266R,0.18380X0.00541*%
%ADD267R,0.19460X0.00540*%
%ADD268R,0.04320X0.00541*%
%ADD269R,0.21630X0.00540*%
%ADD270R,0.21080X0.00540*%
%ADD271R,0.37840X0.00541*%
%ADD272R,0.41080X0.00540*%
%ADD273R,0.40540X0.00540*%
%ADD274R,0.43240X0.00541*%
%ADD275R,0.45950X0.00540*%
%ADD276R,0.45400X0.00540*%
%ADD277R,0.04870X0.00540*%
%ADD278R,0.48110X0.00541*%
%ADD279R,0.50270X0.00541*%
%ADD280R,0.50270X0.00541*%
%ADD281R,0.00540X0.00540*%
%ADD282R,0.52430X0.00540*%
%ADD283R,0.51890X0.00540*%
%ADD284R,0.01080X0.00540*%
%ADD285R,0.54050X0.00541*%
%ADD286R,0.54060X0.00541*%
%ADD287R,0.29190X0.00540*%
%ADD288R,0.29190X0.00540*%
%ADD289R,0.27570X0.00541*%
%ADD290R,0.11900X0.00541*%
%ADD291R,0.26480X0.00540*%
%ADD292R,0.25950X0.00540*%
%ADD293R,0.24860X0.00541*%
%ADD294R,0.25400X0.00541*%
%ADD295R,0.24320X0.00540*%
%ADD296R,0.09190X0.00540*%
%ADD297R,0.23780X0.00540*%
%ADD298R,0.23780X0.00541*%
%ADD299R,0.15670X0.00541*%
%ADD300R,0.16210X0.00541*%
%ADD301R,0.23780X0.00541*%
%ADD302R,0.23250X0.00540*%
%ADD303R,0.20000X0.00540*%
%ADD304R,0.19460X0.00540*%
%ADD305R,0.22710X0.00541*%
%ADD306R,0.23790X0.00541*%
%ADD307R,0.08110X0.00541*%
%ADD308R,0.23250X0.00541*%
%ADD309R,0.22700X0.00541*%
%ADD310R,0.22170X0.00540*%
%ADD311R,0.07560X0.00540*%
%ADD312R,0.22170X0.00540*%
%ADD313R,0.21620X0.00541*%
%ADD314R,0.11350X0.00541*%
%ADD315R,0.03780X0.00541*%
%ADD316R,0.07560X0.00541*%
%ADD317R,0.22170X0.00541*%
%ADD318R,0.21620X0.00541*%
%ADD319R,0.07020X0.00541*%
%ADD320R,0.21620X0.00541*%
%ADD321R,0.21080X0.00540*%
%ADD322R,0.21080X0.00541*%
%ADD323R,0.07570X0.00541*%
%ADD324R,0.21080X0.00541*%
%ADD325R,0.06490X0.00540*%
%ADD326R,0.06490X0.00540*%
%ADD327R,0.21080X0.00541*%
%ADD328R,0.20540X0.00541*%
%ADD329R,0.06490X0.00541*%
%ADD330R,0.20000X0.00541*%
%ADD331R,0.09190X0.00540*%
%ADD332R,0.20540X0.00540*%
%ADD333R,0.09190X0.00540*%
%ADD334R,0.24860X0.00540*%
%ADD335R,0.24320X0.00540*%
%ADD336R,0.21080X0.00541*%
%ADD337R,0.28110X0.00541*%
%ADD338R,0.28650X0.00541*%
%ADD339R,0.09190X0.00541*%
%ADD340R,0.20540X0.00540*%
%ADD341R,0.31350X0.00540*%
%ADD342R,0.30810X0.00540*%
%ADD343R,0.20540X0.00540*%
%ADD344R,0.20540X0.00541*%
%ADD345R,0.17840X0.00541*%
%ADD346R,0.08650X0.00541*%
%ADD347R,0.05410X0.00540*%
%ADD348R,0.21090X0.00541*%
%ADD349R,0.12430X0.00541*%
%ADD350R,0.22170X0.00541*%
%ADD351R,0.06490X0.00541*%
%ADD352R,0.28640X0.00540*%
%ADD353R,0.08110X0.00540*%
%ADD354R,0.27560X0.00541*%
%ADD355R,0.27020X0.00540*%
%ADD356R,0.26480X0.00541*%
%ADD357R,0.10810X0.00541*%
%ADD358R,0.08640X0.00541*%
%ADD359R,0.26480X0.00541*%
%ADD360R,0.08110X0.00541*%
%ADD361R,0.25940X0.00540*%
%ADD362R,0.25400X0.00540*%
%ADD363R,0.07570X0.00540*%
%ADD364R,0.10820X0.00541*%
%ADD365R,0.24860X0.00541*%
%ADD366R,0.23240X0.00541*%
%ADD367R,0.12980X0.00541*%
%ADD368R,0.13520X0.00540*%
%ADD369R,0.14060X0.00540*%
%ADD370R,0.14600X0.00541*%
%ADD371R,0.22160X0.00541*%
%ADD372R,0.07030X0.00540*%
%ADD373R,0.21080X0.00540*%
%ADD374R,0.15140X0.00540*%
%ADD375R,0.03780X0.00540*%
%ADD376R,0.04320X0.00540*%
%ADD377R,0.05410X0.00540*%
%ADD378R,0.21080X0.00540*%
%ADD379R,0.15680X0.00541*%
%ADD380R,0.19460X0.00541*%
%ADD381R,0.18920X0.00541*%
%ADD382R,0.18920X0.00541*%
%ADD383R,0.17300X0.00540*%
%ADD384R,0.03790X0.00540*%
%ADD385R,0.04860X0.00540*%
%ADD386R,0.17840X0.00540*%
%ADD387R,0.07030X0.00540*%
%ADD388R,0.06490X0.00541*%
%ADD389R,0.15130X0.00540*%
%ADD390R,0.14050X0.00541*%
%ADD391R,0.08640X0.00541*%
%ADD392R,0.03790X0.00541*%
%ADD393R,0.15670X0.00540*%
%ADD394R,0.06480X0.00541*%
%ADD395R,0.17290X0.00541*%
%ADD396R,0.06480X0.00541*%
%ADD397R,0.04860X0.00540*%
%ADD398R,0.07020X0.00541*%
%ADD399R,0.18920X0.00541*%
%ADD400R,0.19460X0.00541*%
%ADD401R,0.20540X0.00541*%
%ADD402R,0.04860X0.00541*%
%ADD403R,0.09180X0.00541*%
%ADD404R,0.06480X0.00540*%
%ADD405R,0.06490X0.00540*%
%ADD406R,0.08110X0.00540*%
%ADD407R,0.12430X0.00540*%
%ADD408R,0.10810X0.00540*%
%ADD409R,0.12980X0.00540*%
%ADD410R,0.13510X0.00540*%
%ADD411R,0.12430X0.00540*%
%ADD412R,0.11890X0.00540*%
%ADD413R,0.45940X0.00541*%
%ADD414R,0.43780X0.00541*%
%ADD415R,0.44320X0.00541*%
%ADD416R,0.42700X0.00540*%
%ADD417R,0.42160X0.00540*%
%ADD418R,0.40000X0.00541*%
%ADD419R,0.40540X0.00541*%
%ADD420R,0.37840X0.00540*%
%ADD421R,0.38380X0.00540*%
%ADD422R,0.36220X0.00541*%
%ADD423R,0.36220X0.00541*%
%ADD424R,0.34060X0.00540*%
%ADD425R,0.34060X0.00540*%
%ADD426R,0.30810X0.00541*%
%ADD427R,0.30820X0.00541*%
%ADD428R,0.27570X0.00540*%
%ADD429R,0.27560X0.00540*%
%ADD430R,0.24860X0.00541*%
%ADD431R,0.15140X0.00541*%
%ADD432R,0.15140X0.00541*%
%ADD433R,0.15680X0.00541*%
%ADD434R,0.14060X0.00541*%
%ADD435R,0.13520X0.00541*%
%ADD436R,0.13520X0.00540*%
%ADD437R,0.10820X0.00541*%
%ADD438R,0.07560X0.00540*%
%ADD439R,0.07020X0.00541*%
%ADD440R,0.09190X0.00540*%
%ADD441R,0.14060X0.00541*%
%ADD442R,0.11890X0.00541*%
%ADD443R,0.26480X0.00540*%
%ADD444R,0.25400X0.00541*%
%ADD445R,0.25940X0.00541*%
%ADD446R,0.24860X0.00540*%
%ADD447R,0.18380X0.00541*%
%ADD448R,0.18920X0.00540*%
%ADD449R,0.17840X0.00540*%
%ADD450R,0.18920X0.00540*%
%ADD451R,0.15670X0.00541*%
%ADD452R,0.15130X0.00541*%
%ADD453R,0.15670X0.00540*%
%ADD454R,0.15130X0.00540*%
%ADD455R,0.13510X0.00541*%
%ADD456R,0.15670X0.00541*%
%ADD457R,0.07560X0.00541*%
%ADD458R,0.08100X0.00541*%
%ADD459R,0.15670X0.00540*%
%ADD460R,0.20000X0.00540*%
%ADD461R,0.08100X0.00540*%
%ADD462R,0.15670X0.00540*%
%ADD463R,0.11890X0.00540*%
%ADD464R,0.07020X0.00540*%
%ADD465R,0.15130X0.00541*%
%ADD466R,0.14590X0.00540*%
%ADD467R,0.10810X0.00541*%
%ADD468R,0.13510X0.00541*%
%ADD469R,0.13510X0.00540*%
%ADD470R,0.12430X0.00540*%
%ADD471R,0.12970X0.00541*%
%ADD472R,0.18380X0.00541*%
%ADD473R,0.12970X0.00541*%
%ADD474R,0.25400X0.00540*%
%ADD475R,0.16210X0.00540*%
%ADD476R,0.20540X0.00540*%
%ADD477R,0.25940X0.00540*%
%ADD478R,0.24320X0.00541*%
%ADD479R,0.22700X0.00541*%
%ADD480R,0.25410X0.00541*%
%ADD481R,0.23240X0.00541*%
%ADD482R,0.52970X0.00540*%
%ADD483R,0.21620X0.00540*%
%ADD484R,0.51350X0.00541*%
%ADD485R,0.52430X0.00540*%
%ADD486R,0.51890X0.00541*%
%ADD487R,0.39460X0.00540*%
%ADD488R,0.35670X0.00541*%
%ADD489R,0.31890X0.00540*%
%ADD490R,0.12980X0.00541*%
%ADD491R,0.29190X0.00541*%
%ADD492R,0.23790X0.00540*%
%ADD493R,0.14590X0.00540*%
%ADD494R,0.18920X0.00541*%
%ADD495R,0.09730X0.00540*%
%ADD496R,0.13520X0.00541*%
%ADD497R,0.16220X0.00540*%
%ADD498R,0.08640X0.00541*%
%ADD499R,0.08640X0.00540*%
%ADD500C,0.44170*%
D10*
X0204961Y0063543D03*
X0204961Y0142283D03*
D11*
X0127913Y0113465D03*
X0127913Y0103465D03*
X0111339Y0124016D03*
X0071339Y0124016D03*
X0044567Y0125984D03*
X0044567Y0115984D03*
X0107795Y0189370D03*
X0107795Y0199370D03*
X0183622Y0206693D03*
X0198622Y0223858D03*
X0208622Y0223858D03*
X0223622Y0206693D03*
X0300433Y0197205D03*
X0300433Y0187205D03*
X0364803Y0124370D03*
X0364803Y0114370D03*
X0340197Y0122874D03*
X0300197Y0122874D03*
X0217524Y0044924D03*
X0217524Y0027124D03*
X0191924Y0027124D03*
X0191924Y0044924D03*
D12*
X0189606Y0157598D03*
X0189606Y0167598D03*
X0189606Y0177598D03*
X0189606Y0187598D03*
X0219606Y0187598D03*
X0219606Y0177598D03*
X0219606Y0167598D03*
X0219606Y0157598D03*
D13*
X0227160Y0174730D03*
X0227160Y0175270D03*
X0244460Y0187702D03*
X0266620Y0196352D03*
X0286080Y0195270D03*
X0206080Y0182298D03*
X0202840Y0182298D03*
X0164460Y0187702D03*
X0122840Y0195270D03*
X0042840Y0167702D03*
X0166620Y0042298D03*
X0204460Y0024459D03*
D14*
X0204460Y0025000D03*
X0204460Y0034189D03*
X0196350Y0045000D03*
X0212570Y0045000D03*
X0243920Y0035811D03*
X0253110Y0045000D03*
X0301760Y0054189D03*
X0227160Y0165000D03*
X0246620Y0174189D03*
X0207160Y0194189D03*
X0202300Y0194189D03*
X0185000Y0175811D03*
X0178510Y0225000D03*
X0164460Y0225000D03*
X0198510Y0255811D03*
X0106620Y0185000D03*
X0107160Y0054189D03*
X0155810Y0045000D03*
X0302300Y0185000D03*
X0312030Y0195811D03*
D15*
X0345270Y0185541D03*
X0285270Y0153648D03*
X0207430Y0185541D03*
X0164730Y0193648D03*
X0162570Y0205541D03*
X0216620Y0254730D03*
X0216620Y0255270D03*
X0122570Y0155270D03*
X0116080Y0155270D03*
X0087430Y0179595D03*
X0085270Y0182298D03*
X0173380Y0150405D03*
X0036620Y0110405D03*
X0204730Y0025541D03*
X0245270Y0034730D03*
X0296620Y0044459D03*
D16*
X0209050Y0047162D03*
X0195540Y0046081D03*
X0198240Y0026081D03*
X0120950Y0053108D03*
X0081490Y0146081D03*
X0132300Y0177973D03*
X0180950Y0172027D03*
X0181490Y0173108D03*
X0226890Y0176892D03*
X0226890Y0177973D03*
X0255000Y0200135D03*
X0266890Y0169865D03*
X0223110Y0232027D03*
X0212840Y0239054D03*
X0214460Y0241216D03*
X0215000Y0242838D03*
X0183650Y0232027D03*
X0363650Y0130946D03*
D17*
X0386620Y0120135D03*
X0386080Y0119054D03*
X0324460Y0182838D03*
X0345540Y0186081D03*
X0345540Y0192027D03*
X0297430Y0166081D03*
X0296890Y0163919D03*
X0295810Y0161216D03*
X0295270Y0159054D03*
X0294730Y0157973D03*
X0294190Y0156892D03*
X0236890Y0148784D03*
X0186620Y0176892D03*
X0187160Y0183919D03*
X0163920Y0206081D03*
X0194190Y0227162D03*
X0203380Y0229865D03*
X0203380Y0230946D03*
X0233110Y0236892D03*
X0234730Y0242838D03*
X0253110Y0221216D03*
X0227160Y0202838D03*
X0226620Y0201216D03*
X0202840Y0269865D03*
X0086080Y0181216D03*
X0083920Y0183919D03*
X0063380Y0187162D03*
X0112570Y0162838D03*
X0113110Y0161216D03*
X0114190Y0159054D03*
X0114730Y0157973D03*
X0115270Y0156892D03*
X0117430Y0153108D03*
X0126620Y0150946D03*
X0114190Y0043919D03*
X0162840Y0040135D03*
X0194730Y0041216D03*
X0204460Y0026081D03*
X0214190Y0041216D03*
X0246080Y0040135D03*
X0295270Y0043919D03*
D18*
X0287970Y0053108D03*
X0293380Y0057973D03*
X0213380Y0046081D03*
X0193920Y0043919D03*
X0210680Y0026081D03*
X0045270Y0130946D03*
X0182030Y0176892D03*
X0182570Y0177973D03*
X0227430Y0173108D03*
X0227970Y0172027D03*
X0213920Y0240135D03*
X0193920Y0240135D03*
X0193380Y0241216D03*
D19*
X0217975Y0258513D03*
X0158515Y0209324D03*
X0111485Y0166621D03*
X0118515Y0151486D03*
X0171485Y0148243D03*
X0218515Y0188243D03*
X0229865Y0192567D03*
X0249865Y0206621D03*
X0289325Y0177432D03*
X0297975Y0177432D03*
X0291485Y0152567D03*
X0249325Y0169324D03*
X0308785Y0208243D03*
X0309865Y0206621D03*
X0301215Y0218513D03*
X0391485Y0132567D03*
X0388785Y0123378D03*
X0198515Y0026621D03*
X0021215Y0121756D03*
X0018515Y0128243D03*
X0100135Y0208243D03*
D20*
X0063110Y0189324D03*
X0063110Y0188243D03*
X0113380Y0160675D03*
X0164730Y0206621D03*
X0184190Y0226621D03*
X0203650Y0231486D03*
X0203110Y0269324D03*
X0253380Y0220675D03*
X0236080Y0157432D03*
X0296620Y0151486D03*
X0345810Y0188243D03*
X0385810Y0118513D03*
X0384730Y0117432D03*
X0263110Y0046621D03*
X0223110Y0029324D03*
X0214460Y0041756D03*
X0204730Y0026621D03*
X0185810Y0029324D03*
X0194460Y0041756D03*
X0163110Y0040675D03*
X0145810Y0046621D03*
X0023650Y0118513D03*
D21*
X0087975Y0178513D03*
X0111215Y0178513D03*
X0130675Y0203378D03*
X0107975Y0218513D03*
X0099325Y0206621D03*
X0158785Y0208243D03*
X0179325Y0192567D03*
X0190675Y0188243D03*
X0201485Y0186621D03*
X0207975Y0188243D03*
X0191215Y0157432D03*
X0247975Y0172567D03*
X0248515Y0171486D03*
X0287975Y0218513D03*
X0241485Y0226621D03*
X0230675Y0228243D03*
X0201485Y0249324D03*
X0170135Y0232567D03*
X0390675Y0129324D03*
X0390675Y0128243D03*
X0390135Y0126621D03*
X0391215Y0131486D03*
X0387975Y0121756D03*
X0301485Y0049324D03*
X0241485Y0049324D03*
X0210675Y0026621D03*
X0199865Y0038513D03*
X0107975Y0048243D03*
D22*
X0044730Y0122838D03*
X0044730Y0123919D03*
X0106350Y0189865D03*
X0136620Y0129865D03*
X0204730Y0027162D03*
X0364190Y0121216D03*
X0364190Y0122838D03*
X0371760Y0112027D03*
D23*
X0308785Y0165541D03*
X0310945Y0176352D03*
X0378515Y0170405D03*
X0248245Y0204459D03*
X0240135Y0207702D03*
X0218515Y0167702D03*
X0172565Y0245541D03*
X0101215Y0164459D03*
X0093105Y0159595D03*
X0030405Y0170405D03*
X0019595Y0147702D03*
X0168245Y0053648D03*
X0200135Y0027702D03*
D24*
X0209055Y0027702D03*
X0240945Y0053648D03*
X0256085Y0039595D03*
X0288515Y0054730D03*
X0363105Y0114730D03*
X0378785Y0113648D03*
X0389595Y0145541D03*
X0389595Y0147702D03*
X0310675Y0174730D03*
X0310675Y0175270D03*
X0283645Y0187702D03*
X0253915Y0213648D03*
X0209595Y0224459D03*
X0197705Y0224459D03*
X0172835Y0244459D03*
X0153375Y0222298D03*
X0098245Y0175270D03*
X0098245Y0174730D03*
X0160405Y0139595D03*
X0162025Y0162298D03*
X0130675Y0125541D03*
X0045815Y0114730D03*
X0120945Y0055270D03*
X0120945Y0054730D03*
X0248515Y0139595D03*
X0278245Y0125541D03*
D25*
X0282565Y0143378D03*
X0287975Y0146621D03*
X0290135Y0148243D03*
X0310675Y0169324D03*
X0264725Y0189324D03*
X0144185Y0189324D03*
X0098785Y0168243D03*
X0118785Y0148243D03*
X0033375Y0172567D03*
X0019865Y0140675D03*
X0125275Y0041756D03*
X0185275Y0048243D03*
X0198785Y0028243D03*
D26*
X0189865Y0031486D03*
X0210405Y0028243D03*
X0219595Y0031486D03*
X0230945Y0051486D03*
X0283915Y0041756D03*
X0245545Y0149324D03*
X0310405Y0168243D03*
X0377435Y0171486D03*
X0126085Y0188243D03*
X0121215Y0146621D03*
X0019595Y0143378D03*
X0019595Y0141756D03*
D27*
X0020135Y0139054D03*
X0020135Y0137973D03*
X0097975Y0169865D03*
X0126625Y0188784D03*
X0197975Y0249865D03*
X0209325Y0249865D03*
X0301215Y0201216D03*
X0292025Y0149865D03*
X0247165Y0148784D03*
X0374725Y0173108D03*
X0389325Y0140135D03*
X0389325Y0139054D03*
X0372025Y0110946D03*
X0222835Y0047162D03*
X0198515Y0028784D03*
D28*
X0210675Y0028784D03*
X0256085Y0039054D03*
X0152835Y0039054D03*
X0131215Y0126081D03*
X0127975Y0142838D03*
X0092835Y0159054D03*
X0047975Y0173108D03*
X0019865Y0141216D03*
X0019865Y0140135D03*
X0165275Y0150946D03*
X0281485Y0142838D03*
X0287435Y0146081D03*
X0290675Y0148784D03*
X0310675Y0168784D03*
X0311215Y0169865D03*
X0302565Y0186081D03*
D29*
X0302565Y0186621D03*
X0300945Y0200675D03*
X0243645Y0151486D03*
X0278245Y0141756D03*
X0277165Y0126621D03*
X0186895Y0046621D03*
X0198785Y0029324D03*
X0210135Y0029324D03*
X0132295Y0126621D03*
X0106355Y0186621D03*
X0183105Y0241756D03*
X0231755Y0217432D03*
X0389055Y0137432D03*
D30*
X0107700Y0048784D03*
X0136890Y0039054D03*
X0145000Y0046081D03*
X0153650Y0047162D03*
X0174190Y0040135D03*
X0182840Y0029865D03*
X0193650Y0033108D03*
X0204460Y0029865D03*
X0234190Y0152027D03*
X0233650Y0153108D03*
X0247700Y0173108D03*
X0244460Y0193108D03*
X0225540Y0197973D03*
X0225000Y0196892D03*
X0207700Y0187162D03*
X0196350Y0157973D03*
X0164460Y0193108D03*
X0145000Y0172027D03*
X0124460Y0192027D03*
X0107700Y0219054D03*
X0173110Y0241216D03*
X0284460Y0192027D03*
X0287700Y0156892D03*
X0365000Y0169865D03*
D31*
X0391485Y0133108D03*
X0391485Y0132027D03*
X0297975Y0177973D03*
X0292025Y0153108D03*
X0280135Y0122838D03*
X0238515Y0147162D03*
X0249325Y0169865D03*
X0248785Y0170946D03*
X0249865Y0207162D03*
X0209865Y0222838D03*
X0200675Y0226081D03*
X0181215Y0203919D03*
X0178515Y0193108D03*
X0158515Y0209865D03*
X0129865Y0206081D03*
X0129325Y0207162D03*
X0100675Y0208784D03*
X0120135Y0177973D03*
X0117975Y0152027D03*
X0128785Y0122838D03*
X0172025Y0148784D03*
X0189325Y0168784D03*
X0231485Y0237973D03*
X0020675Y0122838D03*
X0121215Y0056892D03*
X0188785Y0029865D03*
X0220135Y0029865D03*
D32*
X0213920Y0042838D03*
X0204730Y0032027D03*
X0195540Y0029865D03*
X0174460Y0042838D03*
X0153920Y0033108D03*
X0233920Y0041216D03*
X0234460Y0042838D03*
X0247970Y0033108D03*
X0278240Y0039054D03*
X0287970Y0043919D03*
X0302570Y0052027D03*
X0175540Y0153108D03*
X0178240Y0156892D03*
X0178240Y0166081D03*
X0202030Y0183919D03*
X0206890Y0183919D03*
X0224190Y0193108D03*
X0227970Y0189865D03*
X0247970Y0209865D03*
X0247430Y0210946D03*
X0246890Y0212027D03*
X0256620Y0216892D03*
X0243110Y0223919D03*
X0216620Y0233108D03*
X0211760Y0232027D03*
X0205810Y0233108D03*
X0198240Y0252027D03*
X0192840Y0253108D03*
X0187970Y0253108D03*
X0198240Y0259054D03*
X0214460Y0252027D03*
X0216080Y0256892D03*
X0236620Y0249865D03*
X0178240Y0239054D03*
X0175540Y0236892D03*
X0174460Y0246081D03*
X0171760Y0248784D03*
X0165270Y0226081D03*
X0158240Y0206081D03*
X0158240Y0202838D03*
X0164190Y0192027D03*
X0184730Y0193108D03*
X0185270Y0192027D03*
X0185270Y0190946D03*
X0185270Y0189865D03*
X0118240Y0172027D03*
X0118240Y0170946D03*
X0118240Y0169865D03*
X0118240Y0168784D03*
X0118240Y0167162D03*
X0118240Y0166081D03*
X0098240Y0193108D03*
X0097160Y0196892D03*
X0097160Y0197973D03*
X0097160Y0199054D03*
X0097160Y0200135D03*
X0097160Y0201216D03*
X0265270Y0170946D03*
X0311760Y0201216D03*
X0302030Y0220135D03*
D33*
X0312030Y0200135D03*
X0312030Y0199054D03*
X0312030Y0197973D03*
X0312030Y0196892D03*
X0285000Y0193108D03*
X0253650Y0201216D03*
X0252030Y0209865D03*
X0253110Y0210946D03*
X0246620Y0213108D03*
X0245000Y0192027D03*
X0227700Y0188784D03*
X0227160Y0187162D03*
X0223380Y0187162D03*
X0223380Y0186081D03*
X0223380Y0188784D03*
X0223920Y0190946D03*
X0223920Y0192027D03*
X0224460Y0173108D03*
X0225000Y0170946D03*
X0226620Y0166081D03*
X0198510Y0161216D03*
X0188240Y0170946D03*
X0188240Y0172027D03*
X0188240Y0173108D03*
X0183380Y0168784D03*
X0182840Y0167162D03*
X0181760Y0163919D03*
X0185540Y0177973D03*
X0185540Y0186081D03*
X0185540Y0187162D03*
X0185540Y0188784D03*
X0182300Y0186081D03*
X0163920Y0190946D03*
X0143920Y0170946D03*
X0123920Y0193108D03*
X0107160Y0220135D03*
X0064460Y0183919D03*
X0043380Y0168784D03*
X0128240Y0121216D03*
X0106620Y0053108D03*
X0141760Y0041216D03*
X0155270Y0042838D03*
X0155270Y0043919D03*
X0156350Y0046081D03*
X0157430Y0047162D03*
X0164460Y0048784D03*
X0195270Y0042838D03*
X0198510Y0032027D03*
X0213650Y0029865D03*
X0227700Y0043919D03*
X0244460Y0048784D03*
X0251490Y0047162D03*
X0252570Y0046081D03*
X0253650Y0043919D03*
X0253650Y0042838D03*
X0267160Y0041216D03*
X0278510Y0040135D03*
X0302300Y0053108D03*
X0365540Y0168784D03*
X0344460Y0183919D03*
X0237430Y0248784D03*
X0217970Y0259054D03*
X0207700Y0260135D03*
X0203380Y0260135D03*
X0202840Y0270946D03*
X0186620Y0257973D03*
X0193650Y0248784D03*
X0198510Y0247162D03*
X0188240Y0230946D03*
X0187700Y0229865D03*
X0186620Y0228784D03*
X0183380Y0228784D03*
X0178510Y0226081D03*
X0177970Y0227162D03*
X0163920Y0223919D03*
X0163380Y0222838D03*
X0155270Y0220135D03*
X0174730Y0250946D03*
X0218510Y0230946D03*
D34*
X0206350Y0226081D03*
X0237700Y0233108D03*
X0245810Y0219054D03*
X0246350Y0216892D03*
X0226350Y0200135D03*
X0225810Y0199054D03*
X0183650Y0197973D03*
X0183110Y0200135D03*
X0155540Y0221216D03*
X0197700Y0256892D03*
X0217160Y0250946D03*
X0232840Y0252027D03*
X0323110Y0181216D03*
X0283650Y0152027D03*
X0264190Y0172027D03*
X0263110Y0173108D03*
X0212300Y0159054D03*
X0197700Y0160135D03*
X0197160Y0159054D03*
X0172840Y0149865D03*
X0145810Y0173108D03*
X0124190Y0153108D03*
X0097160Y0180135D03*
X0086890Y0180135D03*
X0063650Y0186081D03*
X0044190Y0169865D03*
X0017700Y0133108D03*
X0017700Y0132027D03*
X0017700Y0130946D03*
X0192840Y0032027D03*
X0215540Y0033108D03*
X0226350Y0029865D03*
X0226890Y0050946D03*
X0257700Y0046081D03*
X0272300Y0039054D03*
D35*
X0259055Y0035270D03*
X0248785Y0042298D03*
X0190945Y0034730D03*
X0181215Y0030405D03*
X0160135Y0042298D03*
X0130405Y0039595D03*
X0179595Y0159595D03*
X0179595Y0167702D03*
X0229865Y0167702D03*
X0290945Y0167702D03*
X0290945Y0170405D03*
X0228785Y0225541D03*
X0219055Y0230405D03*
X0229865Y0234730D03*
X0160135Y0215270D03*
X0160135Y0214730D03*
X0150945Y0219595D03*
X0070405Y0195270D03*
D36*
X0080675Y0170405D03*
X0102835Y0162298D03*
X0106625Y0185541D03*
X0127165Y0210405D03*
X0146625Y0187702D03*
X0180675Y0222298D03*
X0237435Y0156352D03*
X0277435Y0147702D03*
X0328785Y0170405D03*
X0301215Y0202298D03*
X0383375Y0165541D03*
X0189325Y0030405D03*
X0129865Y0124459D03*
X0132025Y0147702D03*
X0027165Y0115270D03*
X0020675Y0154730D03*
X0020675Y0155270D03*
X0021215Y0156352D03*
D37*
X0127970Y0119595D03*
X0182030Y0174730D03*
X0182030Y0175270D03*
X0182030Y0176352D03*
X0142570Y0196352D03*
X0213380Y0239595D03*
X0227430Y0173648D03*
X0302570Y0222298D03*
X0213380Y0045541D03*
X0202570Y0039595D03*
X0196080Y0036352D03*
X0196080Y0030405D03*
X0242570Y0042298D03*
D38*
X0204460Y0030405D03*
X0035270Y0173648D03*
D39*
X0106350Y0222298D03*
X0181490Y0173648D03*
X0226890Y0176352D03*
X0285810Y0194730D03*
X0215000Y0242298D03*
X0194460Y0239595D03*
X0192840Y0242298D03*
X0192300Y0244459D03*
X0280950Y0119595D03*
X0366350Y0167702D03*
X0289050Y0044459D03*
X0225810Y0039595D03*
X0212840Y0036352D03*
X0212840Y0030405D03*
X0195540Y0045541D03*
X0192840Y0042298D03*
X0183110Y0039595D03*
X0181490Y0035270D03*
D40*
X0219595Y0030405D03*
X0253105Y0047702D03*
X0279055Y0124459D03*
X0381755Y0115270D03*
X0388245Y0155270D03*
X0253105Y0224459D03*
X0228245Y0239595D03*
X0219055Y0239595D03*
X0210405Y0236352D03*
X0199595Y0242298D03*
X0173105Y0242298D03*
X0107705Y0202298D03*
X0027705Y0167702D03*
D41*
X0064190Y0184459D03*
X0097160Y0195270D03*
X0097160Y0196352D03*
X0097160Y0199595D03*
X0098240Y0204459D03*
X0107430Y0219595D03*
X0153380Y0225541D03*
X0164730Y0225541D03*
X0177160Y0227702D03*
X0173380Y0235270D03*
X0198240Y0259595D03*
X0207970Y0259595D03*
X0216080Y0256352D03*
X0233380Y0247702D03*
X0234460Y0236352D03*
X0216080Y0233648D03*
X0256080Y0216352D03*
X0224730Y0195270D03*
X0224730Y0194730D03*
X0224190Y0193648D03*
X0202570Y0194730D03*
X0202030Y0184459D03*
X0185270Y0190405D03*
X0184730Y0193648D03*
X0184730Y0194730D03*
X0184190Y0196352D03*
X0158240Y0205541D03*
X0162030Y0173648D03*
X0177160Y0155270D03*
X0176620Y0154730D03*
X0176080Y0153648D03*
X0118240Y0167702D03*
X0118240Y0170405D03*
X0246890Y0173648D03*
X0311760Y0194730D03*
X0311760Y0195270D03*
X0344730Y0184459D03*
X0385270Y0136352D03*
X0258240Y0034730D03*
X0233920Y0042298D03*
X0224730Y0050405D03*
X0216620Y0044459D03*
X0216620Y0036352D03*
X0227970Y0030405D03*
X0196620Y0044459D03*
X0164730Y0035270D03*
X0155540Y0044459D03*
X0138240Y0039595D03*
D42*
X0180675Y0030946D03*
X0269325Y0040135D03*
X0280675Y0121216D03*
X0229325Y0160135D03*
X0200675Y0189865D03*
D43*
X0170675Y0199054D03*
X0170675Y0209865D03*
X0153375Y0222838D03*
X0203105Y0262838D03*
X0238245Y0199054D03*
X0263645Y0188784D03*
X0284185Y0187162D03*
X0309595Y0167162D03*
X0309055Y0166081D03*
X0269055Y0139054D03*
X0283645Y0212027D03*
X0377705Y0170946D03*
X0389595Y0147162D03*
X0389595Y0146081D03*
X0364185Y0129865D03*
X0263105Y0047162D03*
X0224185Y0048784D03*
X0189595Y0030946D03*
X0145815Y0047162D03*
X0161485Y0140135D03*
X0133375Y0147162D03*
X0099325Y0167162D03*
X0031215Y0170946D03*
X0019325Y0146081D03*
D44*
X0155810Y0050946D03*
X0204460Y0030946D03*
X0243920Y0152027D03*
X0185540Y0181216D03*
X0183920Y0241216D03*
X0224460Y0241216D03*
D45*
X0233105Y0250946D03*
X0181215Y0223919D03*
X0170945Y0230946D03*
X0173105Y0243919D03*
X0100135Y0166081D03*
X0161215Y0162838D03*
X0247705Y0140135D03*
X0310945Y0176892D03*
X0219595Y0030946D03*
X0029865Y0169865D03*
X0019595Y0149865D03*
X0019595Y0148784D03*
X0019595Y0147162D03*
D46*
X0118785Y0163919D03*
X0119865Y0161216D03*
X0120405Y0159054D03*
X0120945Y0157973D03*
X0178785Y0157973D03*
X0179325Y0159054D03*
X0190135Y0157973D03*
X0220945Y0170946D03*
X0220945Y0172027D03*
X0230675Y0166081D03*
X0231215Y0156892D03*
X0219325Y0186081D03*
X0200945Y0188784D03*
X0191215Y0190946D03*
X0189595Y0186081D03*
X0181485Y0188784D03*
X0180945Y0189865D03*
X0180405Y0190946D03*
X0151215Y0219054D03*
X0120405Y0219054D03*
X0170135Y0246081D03*
X0189055Y0232027D03*
X0190135Y0233108D03*
X0201485Y0233108D03*
X0208515Y0252027D03*
X0208515Y0259054D03*
X0198785Y0260135D03*
X0219325Y0252027D03*
X0229595Y0227162D03*
X0249055Y0222838D03*
X0290675Y0173108D03*
X0290675Y0172027D03*
X0290675Y0167162D03*
X0290675Y0166081D03*
X0290135Y0163919D03*
X0290135Y0162838D03*
X0289595Y0161216D03*
X0289055Y0160135D03*
X0288515Y0159054D03*
X0299325Y0046081D03*
X0229055Y0032027D03*
X0228515Y0030946D03*
X0180405Y0033108D03*
X0160945Y0033108D03*
X0130675Y0040135D03*
X0121485Y0043919D03*
X0108515Y0047162D03*
D47*
X0180135Y0032567D03*
X0180135Y0031486D03*
X0228785Y0031486D03*
X0219595Y0158513D03*
X0228785Y0160675D03*
X0230405Y0166621D03*
X0221215Y0172567D03*
X0181215Y0163378D03*
X0180135Y0160675D03*
X0179055Y0158513D03*
X0181215Y0189324D03*
X0150405Y0220675D03*
X0150405Y0221756D03*
X0170405Y0246621D03*
X0190945Y0257432D03*
X0199055Y0260675D03*
X0220135Y0252567D03*
X0219595Y0229324D03*
X0220135Y0228243D03*
X0188785Y0231486D03*
X0119055Y0163378D03*
X0290945Y0168243D03*
X0290945Y0169324D03*
D48*
X0316620Y0157432D03*
X0234460Y0209324D03*
X0224190Y0240675D03*
X0125810Y0181756D03*
X0133920Y0128243D03*
X0045270Y0117432D03*
X0204730Y0031486D03*
D49*
X0210405Y0032027D03*
X0228785Y0033108D03*
X0180135Y0032027D03*
X0139595Y0040135D03*
X0130945Y0039054D03*
X0180135Y0160135D03*
X0181215Y0162838D03*
X0179055Y0167162D03*
X0210405Y0161216D03*
X0219055Y0157973D03*
X0220135Y0159054D03*
X0228785Y0161216D03*
X0229865Y0159054D03*
X0230405Y0157973D03*
X0229865Y0167162D03*
X0208785Y0189865D03*
X0228785Y0226081D03*
X0220135Y0228784D03*
X0229865Y0249865D03*
X0220135Y0256892D03*
X0190945Y0257973D03*
X0170405Y0247162D03*
X0150405Y0221216D03*
X0150945Y0220135D03*
X0119055Y0162838D03*
X0288785Y0219054D03*
X0290945Y0170946D03*
X0290945Y0169865D03*
X0290945Y0168784D03*
D50*
X0276890Y0177973D03*
X0245000Y0188784D03*
X0228240Y0170946D03*
X0221760Y0163919D03*
X0221760Y0162838D03*
X0188240Y0160135D03*
X0188240Y0177973D03*
X0156350Y0201216D03*
X0159050Y0226081D03*
X0178510Y0236892D03*
X0228240Y0246081D03*
X0228240Y0247162D03*
X0302300Y0221216D03*
X0327160Y0147162D03*
X0235810Y0043919D03*
X0225540Y0039054D03*
X0216350Y0040135D03*
X0214190Y0040135D03*
X0213110Y0043919D03*
X0202840Y0039054D03*
X0204460Y0033108D03*
X0194190Y0039054D03*
X0196350Y0043919D03*
X0185540Y0032027D03*
X0173110Y0043919D03*
X0148240Y0037973D03*
X0148240Y0036892D03*
X0115810Y0057973D03*
X0128240Y0120135D03*
X0065540Y0182838D03*
D51*
X0084730Y0182838D03*
X0087430Y0179054D03*
X0125270Y0152027D03*
X0173920Y0150946D03*
X0207430Y0186081D03*
X0182570Y0201216D03*
X0193920Y0237973D03*
X0213920Y0237973D03*
X0216620Y0239054D03*
X0284730Y0153108D03*
X0325270Y0183919D03*
X0236080Y0149865D03*
X0216080Y0032027D03*
D52*
X0214730Y0039054D03*
X0215270Y0043919D03*
X0206620Y0039054D03*
X0194730Y0040135D03*
X0192570Y0040135D03*
X0183380Y0039054D03*
X0223380Y0032027D03*
X0228780Y0169865D03*
X0208780Y0190946D03*
X0163920Y0188784D03*
X0183920Y0230946D03*
X0194730Y0239054D03*
X0192570Y0242838D03*
X0192570Y0243919D03*
X0192570Y0246081D03*
X0192570Y0247162D03*
X0186080Y0256892D03*
X0214730Y0247162D03*
X0215270Y0246081D03*
X0215270Y0243919D03*
X0228780Y0243919D03*
X0228780Y0242838D03*
X0223380Y0230946D03*
X0106620Y0221216D03*
X0343920Y0182838D03*
D53*
X0245000Y0189324D03*
X0228240Y0171486D03*
X0221760Y0163378D03*
X0187700Y0161756D03*
X0188240Y0177432D03*
X0188240Y0178513D03*
X0182300Y0177432D03*
X0156890Y0201756D03*
X0156890Y0228243D03*
X0214190Y0240675D03*
X0228240Y0246621D03*
X0244460Y0220675D03*
X0081760Y0146621D03*
X0196350Y0046621D03*
X0194190Y0043378D03*
X0194190Y0038513D03*
X0204460Y0032567D03*
X0213110Y0043378D03*
X0227160Y0043378D03*
X0181760Y0043378D03*
X0153650Y0032567D03*
X0148240Y0037432D03*
X0148240Y0041756D03*
D54*
X0160135Y0032567D03*
D55*
X0167430Y0049324D03*
X0193380Y0032567D03*
X0216080Y0032567D03*
X0236620Y0149324D03*
X0196620Y0158513D03*
X0207430Y0186621D03*
X0225270Y0197432D03*
X0182570Y0200675D03*
X0145270Y0172567D03*
X0124730Y0152567D03*
X0322570Y0180675D03*
D56*
X0327430Y0146621D03*
X0244730Y0188243D03*
X0227970Y0172567D03*
X0182570Y0178513D03*
X0171220Y0226621D03*
X0193380Y0240675D03*
X0302570Y0221756D03*
X0196080Y0043378D03*
X0198780Y0032567D03*
D57*
X0210405Y0032567D03*
X0179595Y0243378D03*
X0190405Y0251486D03*
D58*
X0208515Y0258513D03*
X0189595Y0232567D03*
X0171215Y0248243D03*
X0229055Y0226621D03*
X0208515Y0189324D03*
X0200945Y0189324D03*
X0220945Y0171486D03*
X0230135Y0158513D03*
X0230675Y0157432D03*
X0280945Y0121756D03*
X0289055Y0160675D03*
X0289595Y0161756D03*
X0290135Y0163378D03*
X0290675Y0166621D03*
X0290675Y0171486D03*
X0290675Y0172567D03*
X0311215Y0203378D03*
X0178785Y0166621D03*
X0128515Y0121756D03*
X0119865Y0160675D03*
X0119325Y0161756D03*
X0109055Y0046621D03*
X0190135Y0038513D03*
X0229055Y0032567D03*
D59*
X0215270Y0043378D03*
X0203380Y0038513D03*
X0248780Y0046621D03*
X0255270Y0032567D03*
X0221220Y0160675D03*
X0228780Y0169324D03*
X0226620Y0178513D03*
X0163920Y0189324D03*
X0106620Y0221756D03*
X0192570Y0243378D03*
X0192570Y0246621D03*
X0215270Y0243378D03*
X0228780Y0243378D03*
X0366080Y0168243D03*
D60*
X0297700Y0179054D03*
X0223650Y0189865D03*
X0217700Y0232027D03*
X0177700Y0248784D03*
X0097700Y0202838D03*
X0255000Y0033108D03*
D61*
X0158245Y0033648D03*
X0249595Y0147702D03*
X0156085Y0216352D03*
D62*
X0189325Y0185541D03*
X0220675Y0227702D03*
X0300675Y0055270D03*
X0180675Y0033648D03*
D63*
X0194190Y0033648D03*
X0184460Y0050405D03*
X0165540Y0054730D03*
X0227700Y0045541D03*
X0244460Y0035270D03*
X0265000Y0045541D03*
X0233110Y0153648D03*
X0207160Y0184459D03*
X0225000Y0196352D03*
X0244460Y0193648D03*
X0247700Y0210405D03*
X0242300Y0225541D03*
X0236350Y0234730D03*
X0235810Y0235270D03*
X0202840Y0270405D03*
X0155810Y0213648D03*
X0184460Y0195270D03*
X0122840Y0154730D03*
X0287160Y0156352D03*
D64*
X0297430Y0179595D03*
X0312030Y0196352D03*
X0312030Y0199595D03*
X0338510Y0195270D03*
X0326620Y0147702D03*
X0252570Y0210405D03*
X0248240Y0222298D03*
X0243920Y0222298D03*
X0242840Y0224459D03*
X0253650Y0225541D03*
X0234730Y0242298D03*
X0223920Y0227702D03*
X0216350Y0253648D03*
X0198510Y0255270D03*
X0178510Y0247702D03*
X0187700Y0230405D03*
X0178510Y0225541D03*
X0163920Y0224459D03*
X0201760Y0193648D03*
X0185540Y0187702D03*
X0181760Y0187702D03*
X0185000Y0175270D03*
X0183920Y0170405D03*
X0182300Y0165541D03*
X0163920Y0190405D03*
X0118510Y0165541D03*
X0111490Y0179595D03*
X0097430Y0194730D03*
X0082300Y0147702D03*
X0107700Y0054730D03*
X0156350Y0045541D03*
X0161760Y0047702D03*
X0192570Y0044459D03*
X0195270Y0042298D03*
X0192570Y0036352D03*
X0204460Y0034730D03*
X0204460Y0033648D03*
X0217970Y0034730D03*
X0228240Y0033648D03*
X0228240Y0044459D03*
X0253110Y0045541D03*
X0253650Y0044459D03*
X0278510Y0039595D03*
X0228240Y0162298D03*
X0227160Y0164459D03*
X0226620Y0165541D03*
X0226080Y0167702D03*
X0223920Y0176352D03*
X0223380Y0185541D03*
X0223380Y0187702D03*
X0227160Y0187702D03*
X0226620Y0185541D03*
D65*
X0217970Y0190405D03*
X0177970Y0165541D03*
X0232030Y0155270D03*
X0286080Y0154730D03*
X0286620Y0155270D03*
X0277970Y0199595D03*
X0237430Y0233648D03*
X0172570Y0234730D03*
X0154730Y0214730D03*
X0097430Y0202298D03*
X0123920Y0153648D03*
X0023920Y0136352D03*
X0143920Y0045541D03*
X0163920Y0034730D03*
X0214730Y0033648D03*
D66*
X0250945Y0033648D03*
X0255815Y0050405D03*
D67*
X0152570Y0034189D03*
X0017430Y0134189D03*
X0017430Y0135811D03*
X0082840Y0185000D03*
X0115810Y0155811D03*
X0146620Y0174189D03*
X0165540Y0195811D03*
X0183380Y0225000D03*
X0207160Y0234189D03*
X0243380Y0195811D03*
X0292570Y0154189D03*
X0326080Y0185000D03*
D68*
X0298245Y0175811D03*
X0298245Y0174189D03*
X0300945Y0155811D03*
X0262565Y0174189D03*
X0261485Y0175811D03*
X0187435Y0185000D03*
X0180945Y0205000D03*
X0147435Y0175811D03*
X0162565Y0034189D03*
D69*
X0181215Y0034189D03*
X0290405Y0165000D03*
X0160135Y0214189D03*
D70*
X0230135Y0234189D03*
X0259865Y0035811D03*
X0190675Y0034189D03*
D71*
X0195000Y0034189D03*
X0226350Y0185000D03*
X0186350Y0254189D03*
D72*
X0198780Y0254189D03*
X0208510Y0254189D03*
X0211760Y0254189D03*
X0228510Y0225000D03*
X0182570Y0185000D03*
X0187970Y0175811D03*
X0187970Y0174189D03*
X0184730Y0174189D03*
X0182030Y0165000D03*
X0187430Y0165000D03*
X0221490Y0165000D03*
X0224190Y0174189D03*
X0224190Y0175811D03*
X0165270Y0035811D03*
X0213920Y0034189D03*
X0218240Y0034189D03*
X0227970Y0034189D03*
D73*
X0246890Y0034189D03*
X0297160Y0165000D03*
X0235540Y0225000D03*
X0223650Y0225000D03*
X0204730Y0195811D03*
X0153380Y0225000D03*
D74*
X0164730Y0194189D03*
X0116620Y0154189D03*
X0256620Y0034189D03*
D75*
X0270675Y0039595D03*
X0298785Y0045541D03*
X0298785Y0056352D03*
X0191215Y0035270D03*
X0180945Y0044459D03*
X0151215Y0034730D03*
X0150135Y0035270D03*
X0140945Y0044459D03*
X0110135Y0056352D03*
X0231215Y0156352D03*
X0229595Y0159595D03*
X0219865Y0185541D03*
X0228515Y0190405D03*
X0188515Y0170405D03*
X0180945Y0162298D03*
X0180945Y0190405D03*
X0159865Y0213648D03*
X0178785Y0224459D03*
X0190675Y0233648D03*
X0200945Y0233648D03*
X0190675Y0254730D03*
X0170675Y0247702D03*
X0230675Y0250405D03*
X0230135Y0236352D03*
X0239865Y0230405D03*
X0290675Y0173648D03*
X0290675Y0165541D03*
X0290135Y0164459D03*
X0289055Y0159595D03*
X0311215Y0193648D03*
X0119325Y0162298D03*
X0118785Y0164459D03*
D76*
X0143110Y0170405D03*
X0182030Y0164459D03*
X0183110Y0167702D03*
X0187430Y0165541D03*
X0187430Y0164459D03*
X0187430Y0162298D03*
X0188510Y0159595D03*
X0187970Y0173648D03*
X0187970Y0174730D03*
X0187970Y0175270D03*
X0184730Y0174730D03*
X0184730Y0173648D03*
X0185810Y0182298D03*
X0188510Y0182298D03*
X0185810Y0185541D03*
X0182570Y0185541D03*
X0182570Y0184459D03*
X0182570Y0182298D03*
X0208510Y0190405D03*
X0207430Y0193648D03*
X0224190Y0175270D03*
X0224190Y0174730D03*
X0224190Y0173648D03*
X0225270Y0170405D03*
X0221490Y0165541D03*
X0245810Y0174730D03*
X0245270Y0190405D03*
X0265810Y0170405D03*
X0285270Y0193648D03*
X0228510Y0224459D03*
X0228510Y0244459D03*
X0228510Y0247702D03*
X0214460Y0247702D03*
X0208510Y0253648D03*
X0208510Y0254730D03*
X0208510Y0255270D03*
X0198780Y0254730D03*
X0198780Y0253648D03*
X0193920Y0253648D03*
X0192840Y0247702D03*
X0186890Y0253648D03*
X0163110Y0222298D03*
X0253920Y0142298D03*
X0301490Y0054730D03*
X0302030Y0053648D03*
X0265270Y0042298D03*
X0253380Y0042298D03*
X0247430Y0047702D03*
X0243110Y0036352D03*
X0211760Y0039595D03*
X0204730Y0035270D03*
X0197160Y0039595D03*
X0195540Y0034730D03*
X0181490Y0034730D03*
X0165810Y0036352D03*
X0155540Y0042298D03*
X0164730Y0055270D03*
X0108510Y0055270D03*
X0106890Y0053648D03*
D77*
X0195810Y0035270D03*
X0213650Y0035270D03*
X0213650Y0034730D03*
X0216890Y0039595D03*
X0227700Y0035270D03*
X0227700Y0034730D03*
X0244460Y0055270D03*
X0221760Y0162298D03*
X0221760Y0164459D03*
X0218510Y0165541D03*
X0228240Y0170405D03*
X0190950Y0165541D03*
X0228240Y0245541D03*
X0211490Y0254730D03*
X0210950Y0255270D03*
D78*
X0237700Y0247702D03*
X0246350Y0213648D03*
X0223650Y0190405D03*
X0206350Y0194730D03*
X0177700Y0156352D03*
X0232300Y0154730D03*
X0177700Y0235270D03*
X0097700Y0193648D03*
X0243650Y0054730D03*
X0217700Y0035270D03*
X0212300Y0044459D03*
X0175000Y0042298D03*
D79*
X0149325Y0035811D03*
X0109325Y0055811D03*
D80*
X0181220Y0035811D03*
X0123380Y0194189D03*
X0186080Y0255811D03*
X0194730Y0254189D03*
X0215270Y0245000D03*
X0221220Y0254189D03*
D81*
X0242570Y0225000D03*
X0184190Y0195811D03*
X0184730Y0194189D03*
X0162570Y0174189D03*
X0177160Y0155811D03*
X0193380Y0155811D03*
X0215540Y0155811D03*
X0231760Y0155811D03*
X0232840Y0154189D03*
X0097160Y0195811D03*
X0142570Y0045000D03*
X0191760Y0035811D03*
X0217160Y0035811D03*
X0227970Y0045000D03*
D82*
X0227970Y0035811D03*
X0196080Y0035811D03*
X0182030Y0174189D03*
X0182030Y0175811D03*
X0227430Y0174189D03*
D83*
X0285540Y0194189D03*
X0228240Y0245000D03*
X0195810Y0255811D03*
X0213110Y0035811D03*
D84*
X0214730Y0039595D03*
X0206620Y0039595D03*
X0194730Y0039595D03*
X0148780Y0036352D03*
X0155270Y0142298D03*
X0163380Y0174730D03*
X0123380Y0194730D03*
X0157430Y0227702D03*
X0186080Y0254730D03*
X0186080Y0255270D03*
X0186080Y0256352D03*
X0195270Y0255270D03*
X0192570Y0245541D03*
X0215270Y0245541D03*
X0215270Y0244459D03*
X0221220Y0254730D03*
X0221220Y0255270D03*
X0223380Y0230405D03*
D85*
X0229055Y0242298D03*
X0200405Y0190405D03*
X0220945Y0176352D03*
X0220945Y0175270D03*
X0220945Y0174730D03*
X0220945Y0173648D03*
X0220405Y0159595D03*
X0160405Y0222298D03*
X0260405Y0036352D03*
D86*
X0255000Y0036892D03*
X0153920Y0036892D03*
X0024190Y0117973D03*
X0023110Y0119054D03*
X0045270Y0170946D03*
X0063110Y0188784D03*
X0063110Y0189865D03*
X0063110Y0190946D03*
X0063650Y0192027D03*
X0173380Y0157973D03*
X0176620Y0163919D03*
X0224190Y0223919D03*
X0223110Y0226081D03*
X0203650Y0228784D03*
X0195000Y0226081D03*
X0184190Y0226081D03*
X0175540Y0228784D03*
X0203110Y0268784D03*
X0326890Y0186081D03*
X0345810Y0187162D03*
X0345810Y0190946D03*
X0295540Y0160135D03*
X0297160Y0152027D03*
X0385270Y0117973D03*
D87*
X0264190Y0042838D03*
X0247970Y0047162D03*
X0243110Y0037973D03*
X0243110Y0036892D03*
X0224730Y0037973D03*
X0216080Y0036892D03*
X0215540Y0037973D03*
X0211760Y0040135D03*
X0203110Y0040135D03*
X0197160Y0040135D03*
X0193920Y0037973D03*
X0192840Y0036892D03*
X0191220Y0039054D03*
X0184190Y0037973D03*
X0181490Y0043919D03*
X0165810Y0037973D03*
X0165810Y0036892D03*
X0082030Y0147162D03*
X0182570Y0166081D03*
X0187430Y0163919D03*
X0187430Y0162838D03*
X0187970Y0161216D03*
X0184190Y0170946D03*
X0184190Y0172027D03*
X0184730Y0173108D03*
X0185810Y0182838D03*
X0188510Y0182838D03*
X0182570Y0182838D03*
X0182570Y0183919D03*
X0182030Y0187162D03*
X0201490Y0193108D03*
X0207970Y0193108D03*
X0208510Y0192027D03*
X0202570Y0182838D03*
X0224730Y0172027D03*
X0225270Y0169865D03*
X0225810Y0168784D03*
X0227430Y0163919D03*
X0227970Y0162838D03*
X0221490Y0161216D03*
X0226890Y0186081D03*
X0245270Y0189865D03*
X0245270Y0190946D03*
X0253920Y0212027D03*
X0247430Y0220135D03*
X0247430Y0221216D03*
X0244730Y0220135D03*
X0244190Y0221216D03*
X0235540Y0226081D03*
X0228510Y0223919D03*
X0213920Y0248784D03*
X0212840Y0253108D03*
X0208510Y0253108D03*
X0198780Y0253108D03*
X0188510Y0260135D03*
X0178780Y0247162D03*
X0176620Y0237973D03*
X0158240Y0227162D03*
D88*
X0252030Y0142838D03*
X0216890Y0043919D03*
X0212570Y0036892D03*
X0205540Y0041216D03*
X0203380Y0041216D03*
X0193110Y0042838D03*
X0192030Y0043919D03*
D89*
X0160135Y0046081D03*
X0249325Y0046081D03*
X0249865Y0043919D03*
X0249325Y0042838D03*
X0260675Y0037973D03*
X0260675Y0036892D03*
X0180675Y0170946D03*
X0160135Y0222838D03*
X0220675Y0253108D03*
D90*
X0235810Y0223378D03*
X0235810Y0221756D03*
X0235810Y0220675D03*
X0305000Y0160675D03*
X0245000Y0141756D03*
X0154190Y0037432D03*
X0076350Y0191486D03*
D91*
X0097160Y0180675D03*
X0131760Y0178513D03*
X0106890Y0220675D03*
X0158780Y0226621D03*
X0163110Y0221756D03*
X0176080Y0237432D03*
X0193380Y0248243D03*
X0198780Y0252567D03*
X0213380Y0252567D03*
X0214460Y0248243D03*
X0228510Y0248243D03*
X0244190Y0221756D03*
X0247430Y0220675D03*
X0247970Y0221756D03*
X0254460Y0200675D03*
X0226890Y0186621D03*
X0224730Y0172567D03*
X0224730Y0171486D03*
X0225810Y0168243D03*
X0221490Y0161756D03*
X0187970Y0160675D03*
X0187430Y0163378D03*
X0182570Y0166621D03*
X0184190Y0171486D03*
X0182570Y0183378D03*
X0185810Y0183378D03*
X0188510Y0183378D03*
X0182030Y0186621D03*
X0207970Y0192567D03*
X0208510Y0191486D03*
X0277160Y0178513D03*
X0302030Y0220675D03*
X0344190Y0183378D03*
X0302570Y0052567D03*
X0278240Y0040675D03*
X0243110Y0037432D03*
X0225270Y0038513D03*
X0221490Y0037432D03*
X0215540Y0037432D03*
X0205810Y0040675D03*
X0203110Y0040675D03*
X0208510Y0046621D03*
X0193380Y0037432D03*
X0187970Y0037432D03*
X0173920Y0043378D03*
X0165810Y0037432D03*
X0148510Y0038513D03*
X0142570Y0041756D03*
X0131220Y0040675D03*
X0127970Y0120675D03*
X0043110Y0168243D03*
D92*
X0162300Y0038513D03*
X0185000Y0037432D03*
D93*
X0255000Y0037432D03*
X0275000Y0038513D03*
X0286350Y0043378D03*
X0166350Y0143378D03*
X0105810Y0158513D03*
X0085810Y0166621D03*
X0083650Y0168243D03*
X0045810Y0171486D03*
X0024190Y0163378D03*
X0195000Y0229324D03*
X0203650Y0248243D03*
X0235000Y0197432D03*
X0305810Y0211486D03*
X0363650Y0171486D03*
X0385810Y0161756D03*
X0386350Y0160675D03*
D94*
X0260675Y0041756D03*
X0260675Y0037432D03*
X0180135Y0169324D03*
X0200675Y0191486D03*
X0160135Y0223378D03*
D95*
X0145540Y0188784D03*
X0125000Y0187162D03*
X0105540Y0213108D03*
X0214730Y0193108D03*
X0275810Y0147162D03*
X0185000Y0048784D03*
X0154190Y0037973D03*
X0235270Y0247162D03*
D96*
X0238515Y0232027D03*
X0239595Y0230946D03*
X0241755Y0226081D03*
X0208245Y0241216D03*
X0199595Y0241216D03*
X0191485Y0239054D03*
X0171485Y0226081D03*
X0161215Y0220135D03*
X0158515Y0207162D03*
X0179595Y0192027D03*
X0190945Y0189865D03*
X0201755Y0186081D03*
X0208245Y0188784D03*
X0228785Y0190946D03*
X0248245Y0172027D03*
X0288245Y0157973D03*
X0310945Y0193108D03*
X0311485Y0202838D03*
X0310945Y0203919D03*
X0208785Y0256892D03*
X0208785Y0257973D03*
X0190945Y0256892D03*
X0130945Y0201216D03*
X0130945Y0200135D03*
X0130945Y0199054D03*
X0130945Y0197973D03*
X0130945Y0196892D03*
X0130945Y0179054D03*
X0118515Y0173108D03*
X0111485Y0179054D03*
X0120135Y0160135D03*
X0121755Y0156892D03*
X0161755Y0173108D03*
X0188785Y0169865D03*
X0099055Y0206081D03*
X0109865Y0046081D03*
X0151485Y0046081D03*
X0188785Y0037973D03*
X0198515Y0039054D03*
X0210405Y0039054D03*
X0220135Y0037973D03*
X0270405Y0043919D03*
D97*
X0204455Y0037973D03*
X0162295Y0148784D03*
X0116895Y0149865D03*
X0108245Y0201216D03*
X0036895Y0110946D03*
X0282295Y0188784D03*
X0316355Y0159054D03*
X0293105Y0150946D03*
D98*
X0175000Y0162838D03*
X0255000Y0037973D03*
D99*
X0293380Y0043378D03*
X0233380Y0163378D03*
X0173920Y0197432D03*
X0325270Y0168243D03*
X0384730Y0163378D03*
X0133920Y0038513D03*
D100*
X0154190Y0038513D03*
X0254730Y0038513D03*
X0185540Y0181756D03*
X0124460Y0186621D03*
X0074190Y0192567D03*
X0174730Y0249324D03*
X0235270Y0246621D03*
X0334730Y0192567D03*
D101*
X0375545Y0172567D03*
X0389595Y0143378D03*
X0389595Y0141756D03*
X0283105Y0188243D03*
X0158245Y0138513D03*
X0126355Y0143378D03*
X0098245Y0169324D03*
X0223645Y0048243D03*
X0169595Y0038513D03*
D102*
X0183650Y0038513D03*
X0215000Y0038513D03*
X0246350Y0048243D03*
X0266350Y0041756D03*
X0226350Y0166621D03*
X0226350Y0181756D03*
X0226350Y0183378D03*
X0252300Y0217432D03*
X0223650Y0228243D03*
X0223650Y0229324D03*
X0215000Y0246621D03*
X0186350Y0257432D03*
X0183650Y0229324D03*
X0163650Y0223378D03*
X0183650Y0169324D03*
D103*
X0148245Y0177432D03*
X0148785Y0180675D03*
X0148785Y0181756D03*
X0148785Y0183378D03*
X0128785Y0208243D03*
X0108785Y0217432D03*
X0080135Y0188243D03*
X0079055Y0189324D03*
X0089865Y0163378D03*
X0091485Y0161756D03*
X0128785Y0149324D03*
X0180135Y0206621D03*
X0158515Y0211486D03*
X0197435Y0223378D03*
X0208245Y0241756D03*
X0209325Y0251486D03*
X0197975Y0251486D03*
X0229865Y0208243D03*
X0249865Y0208243D03*
X0260135Y0183378D03*
X0260135Y0181756D03*
X0260135Y0180675D03*
X0260675Y0178513D03*
X0288785Y0178513D03*
X0302295Y0157432D03*
X0317435Y0161756D03*
X0300135Y0217432D03*
X0287165Y0217432D03*
X0160675Y0049324D03*
X0208245Y0038513D03*
X0272565Y0043378D03*
D104*
X0300135Y0046621D03*
X0301215Y0048243D03*
X0219055Y0038513D03*
X0121215Y0157432D03*
X0161215Y0172567D03*
X0180135Y0191486D03*
X0189865Y0186621D03*
X0190945Y0189324D03*
X0201215Y0188243D03*
X0219055Y0186621D03*
X0210945Y0160675D03*
X0158515Y0203378D03*
X0158515Y0206621D03*
X0161215Y0220675D03*
X0130945Y0201756D03*
X0130945Y0200675D03*
X0130945Y0198513D03*
X0130945Y0197432D03*
X0201215Y0226621D03*
X0208785Y0257432D03*
X0239055Y0231486D03*
X0249865Y0223378D03*
X0278515Y0203378D03*
X0310945Y0192567D03*
X0320135Y0177432D03*
X0288245Y0158513D03*
D105*
X0250945Y0138513D03*
X0284455Y0212567D03*
X0364455Y0129324D03*
X0239595Y0038513D03*
X0222295Y0046621D03*
X0116895Y0057432D03*
X0124455Y0212567D03*
D106*
X0155810Y0200675D03*
X0194730Y0232567D03*
X0212570Y0238513D03*
X0223380Y0232567D03*
X0246620Y0038513D03*
D107*
X0249595Y0043378D03*
X0260405Y0038513D03*
X0200945Y0046621D03*
X0160405Y0046621D03*
X0280945Y0120675D03*
X0229595Y0168243D03*
X0200945Y0192567D03*
X0160405Y0221756D03*
X0229595Y0241756D03*
D108*
X0178515Y0213108D03*
X0108245Y0199054D03*
X0168245Y0039054D03*
D109*
X0206350Y0040135D03*
X0217700Y0039054D03*
X0226350Y0167162D03*
X0223650Y0176892D03*
X0226350Y0182838D03*
X0226350Y0183919D03*
X0206350Y0182838D03*
X0183650Y0169865D03*
X0163650Y0189865D03*
X0183650Y0229865D03*
X0223650Y0229865D03*
X0223650Y0228784D03*
X0243650Y0222838D03*
D110*
X0231755Y0219054D03*
X0200405Y0221216D03*
X0240945Y0039054D03*
D111*
X0288245Y0055270D03*
X0284455Y0144459D03*
X0309865Y0167702D03*
X0339055Y0194730D03*
X0302295Y0213648D03*
X0247165Y0162298D03*
X0243915Y0150405D03*
X0174185Y0162298D03*
X0124455Y0144459D03*
X0099055Y0167702D03*
X0069865Y0194730D03*
X0019595Y0145541D03*
X0019595Y0144459D03*
X0019595Y0142298D03*
X0030405Y0113648D03*
X0153105Y0039595D03*
D112*
X0167975Y0039595D03*
X0240945Y0039595D03*
X0302565Y0187702D03*
X0231755Y0219595D03*
X0179865Y0213648D03*
D113*
X0183650Y0230405D03*
X0177700Y0234730D03*
X0195000Y0254730D03*
X0212300Y0253648D03*
X0157700Y0202298D03*
X0123650Y0193648D03*
X0226350Y0184459D03*
X0226350Y0182298D03*
X0143650Y0042298D03*
X0192300Y0039595D03*
D114*
X0153105Y0040135D03*
X0093105Y0160135D03*
X0102295Y0162838D03*
X0079595Y0170946D03*
X0053105Y0181216D03*
X0021755Y0157973D03*
X0327705Y0169865D03*
X0387705Y0156892D03*
D115*
X0277970Y0179054D03*
X0277970Y0196892D03*
X0277970Y0197973D03*
X0277970Y0199054D03*
X0277970Y0200135D03*
X0277970Y0201216D03*
X0246080Y0217973D03*
X0243380Y0196892D03*
X0217970Y0190946D03*
X0183920Y0196892D03*
X0183380Y0199054D03*
X0166080Y0196892D03*
X0152570Y0217973D03*
X0166080Y0227162D03*
X0195270Y0232027D03*
X0197430Y0222838D03*
X0197970Y0257973D03*
X0097970Y0203919D03*
X0174730Y0152027D03*
X0212570Y0157973D03*
X0235270Y0150946D03*
X0297430Y0056892D03*
X0263920Y0046081D03*
X0255270Y0047162D03*
X0234730Y0040135D03*
X0175270Y0041216D03*
X0112030Y0056892D03*
D116*
X0215810Y0156892D03*
X0215810Y0192027D03*
X0235810Y0221216D03*
X0235810Y0222838D03*
X0285000Y0186081D03*
X0305540Y0161216D03*
X0333650Y0192027D03*
X0305000Y0212027D03*
X0384460Y0163919D03*
X0255810Y0040135D03*
X0104460Y0160135D03*
D117*
X0180675Y0161756D03*
X0189325Y0158513D03*
X0229325Y0249324D03*
X0140675Y0040675D03*
D118*
X0175000Y0040675D03*
X0326350Y0148243D03*
X0223650Y0189324D03*
X0195000Y0237432D03*
X0192300Y0238513D03*
X0097700Y0203378D03*
X0043650Y0169324D03*
D119*
X0164190Y0188243D03*
X0181490Y0172567D03*
X0180950Y0171486D03*
X0226890Y0177432D03*
X0223110Y0231486D03*
X0214460Y0241756D03*
X0195000Y0238513D03*
X0192840Y0241756D03*
X0183650Y0232567D03*
X0183650Y0231486D03*
X0174460Y0246621D03*
X0268510Y0049324D03*
X0212840Y0046621D03*
X0192840Y0040675D03*
D120*
X0195540Y0040675D03*
X0233920Y0040675D03*
X0233920Y0041756D03*
X0256620Y0046621D03*
X0255540Y0141756D03*
X0264730Y0171486D03*
X0244730Y0192567D03*
X0243110Y0197432D03*
X0247430Y0211486D03*
X0246890Y0212567D03*
X0254460Y0212567D03*
X0253380Y0221756D03*
X0217160Y0232567D03*
X0215540Y0238513D03*
X0212840Y0237432D03*
X0213380Y0249324D03*
X0205810Y0226621D03*
X0165810Y0197432D03*
X0164190Y0192567D03*
X0185270Y0192567D03*
X0185270Y0191486D03*
X0155540Y0220675D03*
X0151760Y0218513D03*
X0124190Y0192567D03*
X0118240Y0172567D03*
X0118240Y0171486D03*
X0118240Y0169324D03*
X0118240Y0168243D03*
X0118240Y0166621D03*
X0098240Y0192567D03*
X0097160Y0197432D03*
X0097160Y0198513D03*
X0097160Y0200675D03*
X0224190Y0192567D03*
X0227430Y0188243D03*
X0284730Y0192567D03*
X0311760Y0201756D03*
X0365270Y0169324D03*
D121*
X0345540Y0186621D03*
X0346080Y0191486D03*
X0296890Y0163378D03*
X0295810Y0160675D03*
X0294730Y0158513D03*
X0294190Y0157432D03*
X0286620Y0131486D03*
X0237430Y0148243D03*
X0216890Y0191486D03*
X0194190Y0226621D03*
X0195270Y0231486D03*
X0203380Y0229324D03*
X0167160Y0228243D03*
X0085540Y0181756D03*
X0084460Y0183378D03*
X0063380Y0186621D03*
X0063380Y0191486D03*
X0112570Y0163378D03*
X0113110Y0161756D03*
X0114190Y0158513D03*
X0114730Y0157432D03*
X0117430Y0152567D03*
X0112570Y0151486D03*
X0126080Y0151486D03*
X0214190Y0040675D03*
X0387160Y0120675D03*
D122*
X0323380Y0166621D03*
X0346080Y0189324D03*
X0344460Y0192567D03*
X0234730Y0243378D03*
X0203380Y0232567D03*
X0203380Y0228243D03*
X0194730Y0228243D03*
X0173110Y0241756D03*
X0175810Y0163378D03*
X0173110Y0157432D03*
X0064460Y0192567D03*
X0024460Y0117432D03*
X0115810Y0043378D03*
X0246080Y0040675D03*
D123*
X0253650Y0043378D03*
X0252030Y0046621D03*
X0235270Y0043378D03*
X0268240Y0040675D03*
X0175270Y0041756D03*
X0162840Y0048243D03*
X0156890Y0046621D03*
X0155270Y0043378D03*
X0106620Y0052567D03*
X0178510Y0157432D03*
X0183380Y0168243D03*
X0184460Y0172567D03*
X0188240Y0172567D03*
X0188240Y0171486D03*
X0185540Y0177432D03*
X0185540Y0178513D03*
X0185540Y0186621D03*
X0185540Y0188243D03*
X0185540Y0189324D03*
X0181760Y0188243D03*
X0163920Y0191486D03*
X0202300Y0183378D03*
X0206620Y0183378D03*
X0223380Y0186621D03*
X0223380Y0188243D03*
X0223920Y0191486D03*
X0227700Y0189324D03*
X0245000Y0191486D03*
X0252570Y0201756D03*
X0253110Y0211486D03*
X0243380Y0223378D03*
X0217970Y0231486D03*
X0237430Y0248243D03*
X0236890Y0249324D03*
X0208240Y0252567D03*
X0207700Y0260675D03*
X0194190Y0249324D03*
X0177970Y0248243D03*
X0177430Y0238513D03*
X0183380Y0228243D03*
X0186620Y0228243D03*
X0187160Y0229324D03*
X0177970Y0226621D03*
X0225540Y0169324D03*
X0227700Y0163378D03*
X0228240Y0161756D03*
X0312030Y0180675D03*
X0312030Y0197432D03*
X0312030Y0198513D03*
X0312030Y0200675D03*
X0065000Y0183378D03*
D124*
X0103375Y0161216D03*
X0147165Y0187162D03*
X0160135Y0163919D03*
X0163375Y0141216D03*
X0189865Y0166081D03*
X0243375Y0142838D03*
X0249325Y0203919D03*
X0227165Y0221216D03*
X0212025Y0228784D03*
X0203375Y0227162D03*
X0197435Y0223919D03*
X0171485Y0223919D03*
X0171485Y0222838D03*
X0157975Y0213108D03*
X0109325Y0216892D03*
X0027165Y0167162D03*
X0021215Y0156892D03*
X0163375Y0041216D03*
X0362835Y0172027D03*
X0382835Y0166081D03*
X0386625Y0160135D03*
X0388785Y0153108D03*
D125*
X0246080Y0041216D03*
X0075270Y0192027D03*
X0103920Y0212027D03*
X0174730Y0196892D03*
X0226080Y0222838D03*
X0234730Y0243919D03*
X0203920Y0247162D03*
X0174730Y0249865D03*
X0026080Y0166081D03*
X0023920Y0162838D03*
D126*
X0020405Y0152567D03*
X0097705Y0178513D03*
X0203105Y0263378D03*
X0263105Y0188243D03*
X0306895Y0163378D03*
X0380945Y0168243D03*
X0389055Y0152567D03*
X0389055Y0151486D03*
X0163105Y0041756D03*
D127*
X0246085Y0041756D03*
X0162295Y0140675D03*
X0146085Y0188243D03*
X0126085Y0211486D03*
X0153645Y0223378D03*
X0169865Y0209324D03*
X0181215Y0223378D03*
X0173105Y0243378D03*
X0282835Y0211486D03*
X0332565Y0172567D03*
X0047165Y0172567D03*
X0019595Y0149324D03*
X0019595Y0148243D03*
X0019595Y0146621D03*
D128*
X0125540Y0042298D03*
X0283380Y0042298D03*
X0302840Y0190405D03*
D129*
X0322025Y0179595D03*
X0319325Y0176352D03*
X0278785Y0204459D03*
X0231215Y0165541D03*
X0207975Y0187702D03*
X0201485Y0187702D03*
X0178785Y0239595D03*
X0190675Y0256352D03*
X0130135Y0204459D03*
X0130675Y0195270D03*
X0130675Y0194730D03*
X0119325Y0176352D03*
X0091215Y0174730D03*
X0090675Y0175270D03*
X0098785Y0205541D03*
X0099865Y0207702D03*
X0018785Y0127702D03*
X0019325Y0125541D03*
X0019865Y0124459D03*
X0148515Y0042298D03*
X0150675Y0045541D03*
X0258785Y0045541D03*
X0390675Y0127702D03*
X0391215Y0130405D03*
D130*
X0372300Y0110405D03*
X0292300Y0153648D03*
X0292840Y0154730D03*
X0317700Y0174730D03*
X0243650Y0195270D03*
X0225810Y0199595D03*
X0245810Y0219595D03*
X0235540Y0225541D03*
X0206350Y0233648D03*
X0192300Y0234730D03*
X0166350Y0227702D03*
X0154460Y0215270D03*
X0165810Y0196352D03*
X0183110Y0199595D03*
X0197700Y0159595D03*
X0235540Y0150405D03*
X0235540Y0250405D03*
X0197700Y0256352D03*
X0063650Y0185541D03*
X0112300Y0044459D03*
X0214460Y0042298D03*
D131*
X0260675Y0042298D03*
X0300675Y0047702D03*
X0220675Y0170405D03*
X0160675Y0219595D03*
D132*
X0297430Y0140135D03*
X0283380Y0042838D03*
X0125540Y0042838D03*
D133*
X0147435Y0042838D03*
X0019865Y0150946D03*
X0019865Y0152027D03*
X0028515Y0168784D03*
X0101485Y0163919D03*
X0168515Y0208784D03*
X0179865Y0221216D03*
X0172835Y0242838D03*
X0153375Y0223919D03*
X0199865Y0242838D03*
X0207975Y0242838D03*
X0241485Y0207162D03*
X0282565Y0210946D03*
X0311215Y0177973D03*
X0307435Y0163919D03*
X0331215Y0172027D03*
X0379325Y0169865D03*
X0382025Y0167162D03*
X0247975Y0162838D03*
X0218785Y0167162D03*
X0193375Y0156892D03*
X0190675Y0167162D03*
D134*
X0179865Y0168784D03*
X0159865Y0223919D03*
X0179325Y0242838D03*
X0179325Y0246081D03*
X0219325Y0229865D03*
X0159325Y0043919D03*
X0159865Y0042838D03*
D135*
X0216350Y0042838D03*
X0327700Y0146081D03*
X0156350Y0228784D03*
X0142300Y0169865D03*
D136*
X0160405Y0170946D03*
X0160945Y0172027D03*
X0218245Y0188784D03*
X0218245Y0189865D03*
X0229595Y0192027D03*
X0278245Y0202838D03*
X0289595Y0176892D03*
X0311755Y0180135D03*
X0320405Y0177973D03*
X0309595Y0207162D03*
X0389055Y0123919D03*
X0260405Y0042838D03*
X0169595Y0232027D03*
X0018245Y0129865D03*
X0018245Y0128784D03*
D137*
X0021485Y0157432D03*
X0023105Y0160675D03*
X0023105Y0161756D03*
X0092835Y0160675D03*
X0106895Y0157432D03*
X0103105Y0211486D03*
X0171215Y0221756D03*
X0209595Y0223378D03*
X0211755Y0229324D03*
X0217165Y0251486D03*
X0203105Y0266621D03*
X0203105Y0268243D03*
X0188515Y0258513D03*
X0239865Y0228243D03*
X0280945Y0209324D03*
X0261485Y0186621D03*
X0303105Y0158513D03*
X0326895Y0169324D03*
X0332835Y0191486D03*
X0278245Y0148243D03*
X0242565Y0143378D03*
X0248515Y0049324D03*
X0251755Y0048243D03*
X0157165Y0048243D03*
X0122565Y0043378D03*
D138*
X0136350Y0043378D03*
X0316350Y0160675D03*
D139*
X0382295Y0166621D03*
X0387705Y0157432D03*
X0233105Y0251486D03*
X0190405Y0252567D03*
X0167705Y0208243D03*
X0147705Y0186621D03*
X0190405Y0168243D03*
X0190405Y0166621D03*
X0082295Y0169324D03*
X0021755Y0158513D03*
X0147705Y0043378D03*
D140*
X0159325Y0043378D03*
X0179865Y0168243D03*
X0179325Y0246621D03*
D141*
X0171485Y0223378D03*
X0180135Y0221756D03*
X0157975Y0212567D03*
X0212025Y0228243D03*
X0226625Y0221756D03*
X0249865Y0209324D03*
X0223375Y0241756D03*
X0217975Y0257432D03*
X0311485Y0178513D03*
X0387165Y0158513D03*
X0261215Y0043378D03*
X0146625Y0143378D03*
X0160675Y0163378D03*
X0103375Y0161756D03*
X0026625Y0166621D03*
D142*
X0018785Y0127162D03*
X0019325Y0126081D03*
X0019865Y0123919D03*
X0021485Y0121216D03*
X0088515Y0177973D03*
X0111215Y0177973D03*
X0119325Y0176892D03*
X0130675Y0202838D03*
X0130675Y0203919D03*
X0158785Y0208784D03*
X0159865Y0217973D03*
X0161485Y0221216D03*
X0170675Y0233108D03*
X0190675Y0188784D03*
X0201485Y0187162D03*
X0218785Y0187162D03*
X0250675Y0202838D03*
X0250135Y0206081D03*
X0250675Y0223919D03*
X0279325Y0206081D03*
X0278785Y0203919D03*
X0301485Y0219054D03*
X0310135Y0206081D03*
X0322025Y0180135D03*
X0321485Y0179054D03*
X0319865Y0176892D03*
X0390675Y0128784D03*
X0390135Y0127162D03*
X0390135Y0126081D03*
X0388515Y0122838D03*
X0391215Y0130946D03*
X0301485Y0049865D03*
X0301485Y0048784D03*
X0182025Y0050946D03*
X0138785Y0043919D03*
X0211215Y0160135D03*
X0159865Y0169865D03*
D143*
X0159595Y0166081D03*
X0172565Y0156892D03*
X0148245Y0177973D03*
X0148785Y0179054D03*
X0148785Y0180135D03*
X0148785Y0181216D03*
X0148785Y0182838D03*
X0148785Y0183919D03*
X0128245Y0208784D03*
X0110945Y0176892D03*
X0110945Y0169865D03*
X0107165Y0156892D03*
X0090405Y0162838D03*
X0089325Y0163919D03*
X0079595Y0188784D03*
X0078515Y0189865D03*
X0129865Y0148784D03*
X0129325Y0123919D03*
X0232565Y0163919D03*
X0242295Y0157973D03*
X0239595Y0146081D03*
X0257975Y0141216D03*
X0279595Y0123919D03*
X0301755Y0156892D03*
X0302835Y0157973D03*
X0320135Y0163919D03*
X0330945Y0189865D03*
X0332025Y0190946D03*
X0280675Y0208784D03*
X0260135Y0182838D03*
X0260135Y0181216D03*
X0260135Y0180135D03*
X0260675Y0177973D03*
X0261215Y0176892D03*
X0228785Y0206081D03*
X0229325Y0207162D03*
X0212025Y0226081D03*
X0212025Y0227162D03*
X0179595Y0207162D03*
X0180135Y0206081D03*
X0168245Y0228784D03*
X0188785Y0259054D03*
X0217975Y0257973D03*
X0260675Y0043919D03*
X0148245Y0043919D03*
D144*
X0120405Y0044459D03*
X0249595Y0156352D03*
D145*
X0249595Y0167702D03*
X0261485Y0176352D03*
X0238785Y0199595D03*
X0228515Y0205541D03*
X0229595Y0207702D03*
X0240405Y0227702D03*
X0187435Y0184459D03*
X0180945Y0204459D03*
X0180405Y0205541D03*
X0129055Y0207702D03*
X0111215Y0167702D03*
X0111755Y0165541D03*
X0110135Y0153648D03*
X0127435Y0150405D03*
X0169055Y0145541D03*
X0082565Y0185541D03*
X0080405Y0187702D03*
X0022565Y0119595D03*
X0149055Y0044459D03*
X0301485Y0050405D03*
X0298785Y0153648D03*
X0299865Y0154730D03*
X0300405Y0155270D03*
X0297705Y0167702D03*
X0298245Y0170405D03*
X0298245Y0173648D03*
X0298245Y0174730D03*
X0298245Y0175270D03*
X0298245Y0176352D03*
X0311755Y0179595D03*
X0328515Y0187702D03*
D146*
X0179325Y0242298D03*
X0159325Y0225541D03*
X0159325Y0044459D03*
D147*
X0249325Y0045541D03*
X0249865Y0044459D03*
X0180675Y0170405D03*
X0220675Y0253648D03*
X0220675Y0256352D03*
X0289325Y0219595D03*
D148*
X0309325Y0207702D03*
X0248785Y0170405D03*
X0232025Y0164459D03*
X0237975Y0147702D03*
X0218515Y0187702D03*
X0171485Y0225541D03*
X0158515Y0210405D03*
X0129865Y0205541D03*
X0160135Y0170405D03*
X0112025Y0164459D03*
X0020675Y0122298D03*
X0017975Y0130405D03*
X0188785Y0259595D03*
X0189865Y0239595D03*
X0389325Y0124459D03*
X0391485Y0133648D03*
X0391485Y0134730D03*
X0392025Y0136352D03*
X0260135Y0044459D03*
X0218515Y0045541D03*
D149*
X0181215Y0045541D03*
X0110405Y0045541D03*
X0108245Y0047702D03*
X0128785Y0122298D03*
X0121755Y0156352D03*
X0120135Y0159595D03*
X0118515Y0173648D03*
X0118515Y0174730D03*
X0119055Y0175270D03*
X0130945Y0196352D03*
X0130945Y0199595D03*
X0130945Y0202298D03*
X0158515Y0207702D03*
X0171485Y0233648D03*
X0190405Y0255270D03*
X0229865Y0235270D03*
X0229865Y0227702D03*
X0251485Y0202298D03*
X0278515Y0195270D03*
X0278515Y0194730D03*
X0289865Y0176352D03*
X0290405Y0175270D03*
X0290405Y0174730D03*
X0289865Y0162298D03*
X0311485Y0202298D03*
X0310945Y0204459D03*
X0310405Y0205541D03*
X0301755Y0219595D03*
X0201755Y0185541D03*
X0190945Y0190405D03*
X0268245Y0044459D03*
D150*
X0110945Y0045000D03*
X0118515Y0174189D03*
X0119055Y0175811D03*
X0098515Y0205000D03*
X0191485Y0234189D03*
X0229865Y0235811D03*
X0201755Y0185000D03*
X0290405Y0174189D03*
D151*
X0278245Y0195811D03*
X0231755Y0165000D03*
X0200405Y0234189D03*
X0209055Y0255811D03*
X0389595Y0125000D03*
X0191755Y0045000D03*
X0149595Y0045000D03*
D152*
X0159595Y0045000D03*
X0159595Y0225000D03*
X0179595Y0245000D03*
X0190405Y0254189D03*
D153*
X0160405Y0215811D03*
X0118785Y0165000D03*
X0180945Y0045000D03*
X0299865Y0055811D03*
X0311215Y0194189D03*
D154*
X0286620Y0155811D03*
X0235270Y0235811D03*
X0215270Y0234189D03*
X0172030Y0234189D03*
X0155270Y0214189D03*
X0123380Y0154189D03*
X0063920Y0185000D03*
X0217430Y0045000D03*
X0297970Y0045000D03*
D155*
X0249595Y0045000D03*
X0220945Y0174189D03*
X0220945Y0175811D03*
X0220945Y0255811D03*
D156*
X0190675Y0255811D03*
X0130135Y0205000D03*
X0130675Y0195811D03*
X0090135Y0175811D03*
X0248515Y0155811D03*
X0290135Y0175811D03*
X0318785Y0175811D03*
X0310675Y0205000D03*
X0259325Y0045000D03*
D157*
X0266350Y0045000D03*
X0097700Y0194189D03*
X0246350Y0214189D03*
D158*
X0179595Y0244459D03*
X0179595Y0245541D03*
X0159595Y0224459D03*
X0119595Y0219595D03*
X0159595Y0156352D03*
X0159595Y0045541D03*
D159*
X0190675Y0045541D03*
X0159325Y0167702D03*
X0147975Y0176352D03*
X0170675Y0199595D03*
X0199325Y0234730D03*
X0227975Y0204459D03*
X0222025Y0182298D03*
X0262025Y0175270D03*
X0262025Y0174730D03*
X0110675Y0174730D03*
X0110675Y0173648D03*
D160*
X0106350Y0187162D03*
X0174460Y0210946D03*
X0175540Y0219054D03*
X0185810Y0180135D03*
X0186350Y0046081D03*
X0363650Y0116892D03*
D161*
X0312565Y0173108D03*
X0286625Y0132027D03*
X0223375Y0179054D03*
X0223375Y0180135D03*
X0223375Y0181216D03*
X0232025Y0210946D03*
X0092565Y0157973D03*
X0222835Y0046081D03*
D162*
X0152570Y0046621D03*
X0234730Y0151486D03*
X0197970Y0160675D03*
X0175270Y0152567D03*
X0183920Y0197432D03*
X0183380Y0198513D03*
X0237970Y0232567D03*
X0246080Y0218513D03*
X0277970Y0200675D03*
X0277970Y0198513D03*
X0277970Y0197432D03*
X0206080Y0249324D03*
X0197970Y0257432D03*
X0197970Y0258513D03*
X0203380Y0260675D03*
X0097430Y0201756D03*
D163*
X0180405Y0169865D03*
X0180405Y0161216D03*
X0189055Y0159054D03*
X0220945Y0160135D03*
X0229055Y0168784D03*
X0220945Y0173108D03*
X0220945Y0176892D03*
X0200405Y0190946D03*
X0200945Y0192027D03*
X0209055Y0247162D03*
X0229055Y0248784D03*
X0280945Y0120135D03*
X0160945Y0047162D03*
D164*
X0170135Y0053108D03*
X0186355Y0047162D03*
X0238785Y0050946D03*
X0252295Y0137973D03*
X0311755Y0170946D03*
X0389055Y0137973D03*
X0389055Y0136892D03*
X0203105Y0261216D03*
X0175545Y0217973D03*
X0123645Y0213108D03*
X0116085Y0150946D03*
X0034455Y0173108D03*
X0020405Y0136892D03*
D165*
X0199865Y0047162D03*
D166*
X0300675Y0047162D03*
X0220675Y0169865D03*
X0160675Y0219054D03*
X0089325Y0176892D03*
D167*
X0097705Y0170405D03*
X0196085Y0235270D03*
X0267435Y0195270D03*
X0284185Y0184459D03*
X0360405Y0173648D03*
X0373915Y0173648D03*
X0263105Y0047702D03*
X0145815Y0047702D03*
D168*
X0156080Y0047702D03*
X0316080Y0159595D03*
X0285270Y0185541D03*
X0196080Y0195270D03*
X0176080Y0194730D03*
X0196080Y0236352D03*
D169*
X0210405Y0235270D03*
X0279595Y0142298D03*
X0185545Y0047702D03*
D170*
X0223375Y0047702D03*
X0129325Y0142298D03*
X0048785Y0173648D03*
X0171485Y0230405D03*
X0197435Y0225541D03*
X0247165Y0205541D03*
X0311485Y0170405D03*
X0292565Y0150405D03*
X0389325Y0139595D03*
D171*
X0364460Y0128243D03*
X0146080Y0048243D03*
X0125540Y0183378D03*
D172*
X0171485Y0229324D03*
X0232025Y0218513D03*
X0223375Y0180675D03*
X0258515Y0049324D03*
X0262835Y0048243D03*
D173*
X0363920Y0117973D03*
X0364460Y0127162D03*
X0283380Y0181216D03*
X0184460Y0240135D03*
X0125540Y0181216D03*
X0125540Y0180135D03*
X0045540Y0117973D03*
X0147160Y0048784D03*
D174*
X0158785Y0048784D03*
X0250135Y0048784D03*
X0301485Y0050946D03*
X0280945Y0149865D03*
X0291215Y0152027D03*
X0298245Y0153108D03*
X0297705Y0167162D03*
X0297705Y0168784D03*
X0298245Y0169865D03*
X0298245Y0170946D03*
X0298245Y0172027D03*
X0298245Y0173108D03*
X0298245Y0176892D03*
X0289055Y0177973D03*
X0260405Y0179054D03*
X0249595Y0168784D03*
X0249595Y0167162D03*
X0249595Y0166081D03*
X0219865Y0168784D03*
X0169595Y0146081D03*
X0151215Y0141216D03*
X0111755Y0152027D03*
X0112295Y0163919D03*
X0111755Y0166081D03*
X0111215Y0167162D03*
X0111215Y0168784D03*
X0080945Y0187162D03*
X0101485Y0209865D03*
X0108515Y0217973D03*
X0121485Y0217973D03*
X0158245Y0210946D03*
X0178785Y0209865D03*
X0211755Y0230946D03*
X0211215Y0236892D03*
X0222565Y0227162D03*
X0230135Y0239054D03*
X0240945Y0227162D03*
X0279865Y0207162D03*
X0287435Y0217973D03*
X0300945Y0217973D03*
X0307435Y0209865D03*
X0308515Y0208784D03*
X0329595Y0188784D03*
X0190135Y0252027D03*
D175*
X0108515Y0197973D03*
X0157705Y0147162D03*
X0251215Y0147162D03*
X0262025Y0048784D03*
D176*
X0290945Y0151486D03*
X0222295Y0177432D03*
X0222295Y0178513D03*
X0227705Y0203378D03*
X0230945Y0238513D03*
X0279595Y0206621D03*
X0182295Y0201756D03*
X0181755Y0203378D03*
X0159595Y0169324D03*
X0119595Y0177432D03*
X0110945Y0177432D03*
X0122295Y0131486D03*
X0021755Y0120675D03*
X0019055Y0126621D03*
X0107705Y0049324D03*
D177*
X0140405Y0049324D03*
D178*
X0150405Y0049324D03*
X0182295Y0049324D03*
X0253645Y0137432D03*
X0096895Y0172567D03*
D179*
X0177165Y0212567D03*
X0272835Y0146621D03*
X0312295Y0172567D03*
X0281485Y0189324D03*
X0226895Y0049324D03*
D180*
X0287705Y0056892D03*
X0387705Y0121216D03*
X0390945Y0129865D03*
X0301755Y0202838D03*
X0282295Y0150946D03*
X0230405Y0193108D03*
X0227705Y0203919D03*
X0222295Y0177973D03*
X0190405Y0187162D03*
X0181755Y0202838D03*
X0159595Y0168784D03*
X0107705Y0202838D03*
X0099595Y0207162D03*
X0022295Y0120135D03*
X0107705Y0052027D03*
X0107705Y0050946D03*
X0107705Y0049865D03*
D181*
X0155000Y0049865D03*
X0168510Y0160135D03*
X0137160Y0193108D03*
X0106350Y0190946D03*
X0240950Y0160135D03*
X0271760Y0193108D03*
D182*
X0316080Y0153108D03*
X0232840Y0049865D03*
X0176080Y0049865D03*
X0092840Y0153108D03*
D183*
X0253920Y0049865D03*
D184*
X0170945Y0147702D03*
X0190405Y0187702D03*
X0182295Y0202298D03*
X0279055Y0205541D03*
X0281755Y0150405D03*
X0388245Y0122298D03*
X0107705Y0050405D03*
D185*
X0153375Y0050405D03*
X0233375Y0210405D03*
X0210675Y0234730D03*
D186*
X0223110Y0225541D03*
X0194460Y0227702D03*
X0184730Y0227702D03*
X0183650Y0225541D03*
X0184190Y0242298D03*
X0146890Y0174730D03*
X0112840Y0162298D03*
X0063110Y0187702D03*
X0063110Y0190405D03*
X0046350Y0113648D03*
X0163650Y0050405D03*
X0235540Y0050405D03*
X0245270Y0050405D03*
X0193380Y0156352D03*
X0297160Y0164459D03*
X0297160Y0165541D03*
X0345810Y0187702D03*
X0345810Y0190405D03*
D187*
X0296350Y0162298D03*
X0293650Y0156352D03*
X0165000Y0194730D03*
X0113650Y0159595D03*
X0116350Y0154730D03*
X0173650Y0050405D03*
D188*
X0170675Y0050946D03*
X0239325Y0053108D03*
D189*
X0253375Y0050946D03*
X0132835Y0141216D03*
X0096625Y0173108D03*
X0302565Y0187162D03*
X0316625Y0157973D03*
D190*
X0307975Y0209324D03*
X0222025Y0183378D03*
X0222025Y0181756D03*
X0179325Y0208243D03*
X0199325Y0241756D03*
X0110675Y0172567D03*
X0110675Y0171486D03*
X0159325Y0168243D03*
X0159325Y0166621D03*
X0107975Y0051486D03*
D191*
X0161220Y0051486D03*
X0247700Y0051486D03*
X0269860Y0131486D03*
X0139050Y0131486D03*
X0037430Y0112567D03*
D192*
X0163375Y0149324D03*
X0177975Y0051486D03*
D193*
X0129055Y0123378D03*
X0111215Y0152567D03*
X0111215Y0168243D03*
X0111215Y0169324D03*
X0120405Y0178513D03*
X0148515Y0178513D03*
X0129595Y0206621D03*
X0100945Y0209324D03*
X0081485Y0186621D03*
X0170135Y0146621D03*
X0192295Y0191486D03*
X0178785Y0209324D03*
X0212295Y0226621D03*
X0222565Y0226621D03*
X0232295Y0237432D03*
X0229055Y0206621D03*
X0250135Y0203378D03*
X0280405Y0208243D03*
X0260945Y0177432D03*
X0249595Y0168243D03*
X0249595Y0166621D03*
X0238785Y0146621D03*
X0280405Y0149324D03*
X0297705Y0152567D03*
X0297705Y0166621D03*
X0297705Y0168243D03*
X0298245Y0169324D03*
X0298245Y0171486D03*
X0298245Y0172567D03*
X0327435Y0186621D03*
X0329055Y0188243D03*
X0330135Y0189324D03*
X0279865Y0123378D03*
X0301485Y0051486D03*
D194*
X0313915Y0148784D03*
X0166895Y0052027D03*
D195*
X0242295Y0052027D03*
D196*
X0299595Y0052027D03*
X0179595Y0243919D03*
D197*
X0134460Y0191486D03*
X0166890Y0052567D03*
D198*
X0242300Y0052567D03*
D199*
X0288245Y0053648D03*
X0362835Y0113648D03*
X0301215Y0156352D03*
X0320675Y0164459D03*
X0321755Y0165541D03*
X0331485Y0190405D03*
X0307165Y0210405D03*
X0280135Y0207702D03*
X0249865Y0207702D03*
X0231485Y0193648D03*
X0221755Y0184459D03*
X0249325Y0165541D03*
X0260135Y0179595D03*
X0260135Y0182298D03*
X0240135Y0145541D03*
X0177975Y0193648D03*
X0179595Y0207702D03*
X0171485Y0224459D03*
X0148785Y0182298D03*
X0148785Y0179595D03*
X0159595Y0165541D03*
X0167705Y0144459D03*
X0109325Y0154730D03*
X0108785Y0155270D03*
X0107705Y0156352D03*
X0110945Y0170405D03*
X0110945Y0175270D03*
X0110945Y0176352D03*
X0097435Y0179595D03*
X0087165Y0165541D03*
X0090945Y0162298D03*
X0102295Y0210405D03*
X0120675Y0053648D03*
D200*
X0120945Y0054189D03*
X0232295Y0194189D03*
X0363105Y0114189D03*
D201*
X0382565Y0115811D03*
X0260945Y0185000D03*
X0212295Y0195811D03*
X0148515Y0185000D03*
X0203105Y0265000D03*
X0020945Y0155811D03*
X0166895Y0054189D03*
D202*
X0242295Y0054189D03*
X0240675Y0145000D03*
X0249325Y0165000D03*
X0221755Y0185000D03*
X0228245Y0205000D03*
X0247165Y0215811D03*
X0321215Y0165000D03*
X0171485Y0225000D03*
X0110945Y0175811D03*
X0108245Y0155811D03*
X0109865Y0154189D03*
X0159595Y0165000D03*
X0168245Y0145000D03*
D203*
X0278785Y0125000D03*
X0288515Y0054189D03*
X0388515Y0154189D03*
D204*
X0389595Y0145000D03*
X0210675Y0235811D03*
X0170675Y0155811D03*
X0098245Y0175811D03*
X0120945Y0055811D03*
D205*
X0164460Y0055811D03*
X0244460Y0055811D03*
X0227160Y0175811D03*
D206*
X0238515Y0155811D03*
X0308245Y0165000D03*
X0310945Y0175811D03*
X0380135Y0114189D03*
X0288245Y0055811D03*
X0130405Y0125000D03*
X0123915Y0185000D03*
X0172565Y0245000D03*
X0028785Y0114189D03*
D207*
X0020405Y0153648D03*
X0120945Y0056352D03*
X0306355Y0162298D03*
X0380945Y0114730D03*
X0226355Y0222298D03*
D208*
X0231215Y0216352D03*
X0233375Y0195270D03*
X0232835Y0194730D03*
X0213375Y0194730D03*
X0212835Y0195270D03*
X0190675Y0167702D03*
X0262565Y0187702D03*
X0282025Y0210405D03*
X0302565Y0185541D03*
X0307975Y0164459D03*
X0381485Y0167702D03*
X0388515Y0154730D03*
X0388515Y0153648D03*
X0287975Y0056352D03*
X0027975Y0114730D03*
X0019865Y0150405D03*
D209*
X0020135Y0138513D03*
X0020135Y0137432D03*
X0117435Y0149324D03*
X0238515Y0198513D03*
X0291485Y0149324D03*
X0389325Y0140675D03*
X0389325Y0138513D03*
X0292025Y0057432D03*
X0203375Y0261756D03*
D210*
X0227705Y0212567D03*
X0239595Y0158513D03*
X0108245Y0197432D03*
X0037435Y0111486D03*
D211*
X0169325Y0158513D03*
X0300675Y0197432D03*
X0372025Y0111486D03*
D212*
X0302840Y0190946D03*
X0272570Y0192027D03*
X0037430Y0112027D03*
D213*
X0371760Y0112567D03*
D214*
X0312025Y0172027D03*
X0276355Y0127162D03*
X0175815Y0212027D03*
X0171485Y0229865D03*
X0232025Y0217973D03*
X0156895Y0137973D03*
X0097435Y0170946D03*
X0032565Y0113108D03*
D215*
X0044730Y0113108D03*
X0105270Y0159054D03*
X0085270Y0167162D03*
X0024730Y0163919D03*
X0193380Y0192027D03*
X0236620Y0156892D03*
X0304730Y0160135D03*
X0316080Y0160135D03*
X0385270Y0162838D03*
X0253380Y0220135D03*
D216*
X0243650Y0206081D03*
X0234460Y0196892D03*
X0235540Y0223919D03*
X0195000Y0228784D03*
X0195000Y0229865D03*
X0106350Y0157973D03*
X0165810Y0142838D03*
X0303650Y0159054D03*
X0326350Y0168784D03*
X0385810Y0161216D03*
X0364190Y0113108D03*
D217*
X0376625Y0113108D03*
X0170675Y0197973D03*
D218*
X0046080Y0114189D03*
D219*
X0045815Y0115270D03*
X0019865Y0139595D03*
X0119325Y0147702D03*
X0122565Y0145541D03*
D220*
X0074455Y0173648D03*
X0106895Y0213648D03*
X0203105Y0262298D03*
X0209595Y0225541D03*
X0289595Y0147702D03*
X0334455Y0173648D03*
X0389595Y0144459D03*
X0389595Y0142298D03*
X0363105Y0115270D03*
D221*
X0383650Y0165000D03*
X0154460Y0215811D03*
X0026350Y0115811D03*
D222*
X0045540Y0115811D03*
D223*
X0036355Y0174189D03*
X0336355Y0174189D03*
X0363375Y0115811D03*
D224*
X0363920Y0130405D03*
X0383380Y0116352D03*
X0235810Y0224459D03*
X0234190Y0230405D03*
X0203380Y0227702D03*
X0166620Y0207702D03*
X0204460Y0195270D03*
X0215810Y0156352D03*
X0084460Y0167702D03*
X0025540Y0116352D03*
D225*
X0045540Y0116352D03*
X0185540Y0179595D03*
X0275810Y0127702D03*
D226*
X0223375Y0179595D03*
X0300675Y0199595D03*
X0363375Y0116352D03*
D227*
X0025000Y0116892D03*
D228*
X0045270Y0116892D03*
X0233920Y0209865D03*
X0276080Y0141216D03*
D229*
X0235810Y0157973D03*
X0254190Y0213108D03*
X0306620Y0210946D03*
X0346080Y0189865D03*
X0346080Y0188784D03*
X0363920Y0170946D03*
X0323920Y0167162D03*
X0316890Y0161216D03*
X0383920Y0116892D03*
X0203380Y0232027D03*
X0195270Y0230946D03*
X0184460Y0227162D03*
X0165540Y0207162D03*
X0166620Y0157973D03*
X0086620Y0166081D03*
D230*
X0203650Y0246621D03*
X0275000Y0128243D03*
X0363650Y0117432D03*
D231*
X0364190Y0118513D03*
X0045270Y0118513D03*
X0044730Y0126621D03*
D232*
X0044460Y0126081D03*
X0045000Y0119054D03*
X0262300Y0143919D03*
X0316890Y0156892D03*
X0302840Y0188784D03*
X0364460Y0126081D03*
D233*
X0363920Y0119054D03*
X0234730Y0208784D03*
X0223920Y0240135D03*
X0146620Y0143919D03*
D234*
X0044730Y0125541D03*
X0045270Y0119595D03*
D235*
X0166350Y0155270D03*
X0203650Y0244459D03*
X0364190Y0119595D03*
D236*
X0386620Y0119595D03*
X0364460Y0170405D03*
X0326620Y0185541D03*
X0325540Y0184459D03*
X0323920Y0182298D03*
X0295270Y0159595D03*
X0293110Y0155270D03*
X0262840Y0173648D03*
X0243920Y0194730D03*
X0243380Y0196352D03*
X0227160Y0202298D03*
X0246620Y0216352D03*
X0223920Y0224459D03*
X0203380Y0230405D03*
X0183380Y0224459D03*
X0174730Y0250405D03*
X0165540Y0195270D03*
X0147160Y0175270D03*
X0146080Y0173648D03*
X0176890Y0164459D03*
X0186620Y0176352D03*
X0116890Y0153648D03*
X0115270Y0156352D03*
X0083380Y0184459D03*
X0044460Y0170405D03*
X0017430Y0136352D03*
X0017430Y0135270D03*
X0017430Y0134730D03*
X0017430Y0133648D03*
D237*
X0045000Y0121216D03*
X0045000Y0120135D03*
D238*
X0203920Y0243919D03*
X0226620Y0213108D03*
X0302840Y0189865D03*
X0272570Y0129865D03*
X0363920Y0120135D03*
X0364460Y0123919D03*
D239*
X0136350Y0192567D03*
X0045000Y0120675D03*
D240*
X0203920Y0243378D03*
X0363920Y0120675D03*
D241*
X0364190Y0121756D03*
X0364190Y0123378D03*
X0272840Y0192567D03*
X0044730Y0123378D03*
X0044730Y0121756D03*
D242*
X0044730Y0122298D03*
X0106350Y0190405D03*
X0168510Y0159595D03*
X0364190Y0122298D03*
D243*
X0389595Y0125541D03*
X0391755Y0135270D03*
X0318245Y0175270D03*
X0278245Y0196352D03*
X0278245Y0202298D03*
X0211755Y0159595D03*
X0280405Y0122298D03*
X0209055Y0256352D03*
X0089595Y0176352D03*
D244*
X0089055Y0177432D03*
X0120945Y0218513D03*
X0160405Y0218513D03*
X0169595Y0231486D03*
X0211755Y0231486D03*
X0218245Y0189324D03*
X0220405Y0169324D03*
X0189055Y0169324D03*
X0160405Y0171486D03*
X0278245Y0201756D03*
X0320945Y0178513D03*
X0020405Y0123378D03*
X0018245Y0129324D03*
D245*
X0044460Y0124459D03*
X0092570Y0156352D03*
X0316890Y0156352D03*
X0364460Y0124459D03*
D246*
X0279055Y0205000D03*
X0230405Y0215811D03*
X0019595Y0125000D03*
D247*
X0044730Y0125000D03*
D248*
X0364460Y0125000D03*
D249*
X0364460Y0125541D03*
X0242840Y0154730D03*
X0242840Y0155270D03*
D250*
X0243645Y0150946D03*
X0249595Y0139054D03*
X0277705Y0126081D03*
X0283645Y0143919D03*
X0289055Y0147162D03*
X0231755Y0216892D03*
X0118245Y0148784D03*
X0389595Y0143919D03*
X0389595Y0142838D03*
X0389595Y0141216D03*
D251*
X0364460Y0126621D03*
X0302840Y0188243D03*
X0283380Y0181756D03*
X0283380Y0180675D03*
X0175810Y0220675D03*
X0125540Y0180675D03*
X0106620Y0188243D03*
D252*
X0153920Y0136892D03*
X0255540Y0136892D03*
X0175540Y0220135D03*
X0044730Y0127162D03*
D253*
X0097165Y0172027D03*
X0122565Y0132027D03*
X0132835Y0127162D03*
X0238245Y0197973D03*
X0236085Y0229865D03*
X0283645Y0183919D03*
X0300945Y0200135D03*
X0156085Y0216892D03*
D254*
X0096350Y0173648D03*
X0044460Y0127702D03*
X0364460Y0127702D03*
D255*
X0312835Y0173648D03*
X0133375Y0127702D03*
X0122565Y0213648D03*
D256*
X0165270Y0152567D03*
X0236080Y0229324D03*
X0044730Y0128243D03*
D257*
X0044730Y0128784D03*
X0125270Y0183919D03*
X0165270Y0152027D03*
X0185810Y0179054D03*
D258*
X0135000Y0128784D03*
X0106350Y0188784D03*
X0203650Y0246081D03*
X0283650Y0180135D03*
D259*
X0273920Y0128784D03*
D260*
X0364460Y0128784D03*
X0285540Y0213108D03*
D261*
X0045000Y0129324D03*
D262*
X0106350Y0189324D03*
X0135540Y0129324D03*
D263*
X0273380Y0129324D03*
X0302570Y0189324D03*
D264*
X0244730Y0149865D03*
X0164730Y0149865D03*
X0075540Y0173108D03*
X0044730Y0129865D03*
D265*
X0045000Y0130405D03*
D266*
X0137700Y0130405D03*
X0271760Y0130405D03*
D267*
X0270680Y0130946D03*
X0138240Y0130946D03*
D268*
X0172840Y0149324D03*
X0174460Y0151486D03*
X0212300Y0158513D03*
X0226350Y0200675D03*
X0226890Y0201756D03*
X0246350Y0217432D03*
X0297700Y0178513D03*
X0323650Y0181756D03*
X0284190Y0152567D03*
X0283110Y0151486D03*
X0263650Y0172567D03*
X0155540Y0221756D03*
X0086350Y0180675D03*
X0017700Y0132567D03*
X0017700Y0131486D03*
D269*
X0139865Y0132027D03*
D270*
X0101220Y0147162D03*
X0269320Y0132027D03*
X0303380Y0143919D03*
D271*
X0276080Y0132567D03*
X0132840Y0132567D03*
D272*
X0132840Y0133108D03*
D273*
X0276350Y0133108D03*
D274*
X0276620Y0133648D03*
X0132840Y0133648D03*
D275*
X0132565Y0134189D03*
D276*
X0276620Y0134189D03*
D277*
X0391485Y0134189D03*
X0392025Y0135811D03*
X0112025Y0165000D03*
D278*
X0132565Y0134730D03*
X0276355Y0134730D03*
D279*
X0132565Y0135270D03*
D280*
X0276355Y0135270D03*
D281*
X0025000Y0135811D03*
D282*
X0132565Y0135811D03*
D283*
X0276625Y0135811D03*
D284*
X0384190Y0135811D03*
X0192300Y0245000D03*
D285*
X0132835Y0136352D03*
D286*
X0276620Y0136352D03*
D287*
X0119325Y0136892D03*
D288*
X0289595Y0136892D03*
D289*
X0291485Y0137432D03*
X0117435Y0137432D03*
D290*
X0155540Y0137432D03*
X0175000Y0211486D03*
X0175540Y0218513D03*
D291*
X0273650Y0189865D03*
X0116350Y0137973D03*
D292*
X0292835Y0137973D03*
D293*
X0115000Y0138513D03*
D294*
X0093650Y0151486D03*
X0294190Y0138513D03*
D295*
X0315810Y0152027D03*
X0274190Y0190946D03*
X0113650Y0139054D03*
X0093110Y0152027D03*
D296*
X0098515Y0168784D03*
X0120135Y0147162D03*
X0121755Y0146081D03*
X0125545Y0143919D03*
X0140135Y0139054D03*
X0159595Y0139054D03*
X0125545Y0212027D03*
X0032565Y0172027D03*
X0019595Y0143919D03*
X0019595Y0142838D03*
X0333645Y0173108D03*
X0361215Y0173108D03*
X0376355Y0172027D03*
D297*
X0295540Y0139054D03*
D298*
X0112840Y0139595D03*
D299*
X0140135Y0139595D03*
X0300675Y0193648D03*
X0300675Y0194730D03*
X0300675Y0195270D03*
X0300675Y0196352D03*
D300*
X0269055Y0139595D03*
D301*
X0296620Y0139595D03*
D302*
X0111485Y0140135D03*
D303*
X0140140Y0140135D03*
X0168240Y0161216D03*
D304*
X0240950Y0161216D03*
X0269050Y0140135D03*
D305*
X0110675Y0140675D03*
D306*
X0140405Y0140675D03*
D307*
X0097975Y0177432D03*
X0029325Y0169324D03*
X0246625Y0140675D03*
X0309325Y0166621D03*
X0389325Y0149324D03*
X0389325Y0148243D03*
D308*
X0268785Y0140675D03*
D309*
X0298240Y0140675D03*
D310*
X0109865Y0141216D03*
D311*
X0124190Y0186081D03*
X0194460Y0193108D03*
X0233920Y0162838D03*
X0245810Y0141216D03*
X0254460Y0217973D03*
X0253920Y0219054D03*
X0356080Y0181216D03*
D312*
X0299595Y0141216D03*
D313*
X0109050Y0141756D03*
D314*
X0130945Y0141756D03*
X0136355Y0146621D03*
X0160675Y0148243D03*
X0097435Y0171486D03*
X0092565Y0158513D03*
X0108245Y0200675D03*
X0156355Y0217432D03*
X0248245Y0148243D03*
X0312025Y0171486D03*
X0316355Y0158513D03*
D315*
X0287700Y0157432D03*
X0233650Y0152567D03*
X0195810Y0157432D03*
X0153650Y0141756D03*
X0144460Y0171486D03*
X0082840Y0148243D03*
X0165540Y0226621D03*
X0176890Y0228243D03*
X0225540Y0198513D03*
X0256350Y0217432D03*
D316*
X0253920Y0218513D03*
X0225810Y0223378D03*
X0193920Y0192567D03*
X0164190Y0141756D03*
X0104730Y0212567D03*
X0284730Y0186621D03*
X0304190Y0212567D03*
D317*
X0309865Y0148243D03*
X0300135Y0141756D03*
D318*
X0184730Y0215270D03*
X0107970Y0142298D03*
D319*
X0165000Y0142298D03*
X0175810Y0195270D03*
X0235810Y0222298D03*
X0253650Y0219595D03*
X0244460Y0142298D03*
X0025000Y0164459D03*
D320*
X0092840Y0153648D03*
X0300950Y0142298D03*
X0309050Y0147702D03*
D321*
X0301760Y0142838D03*
X0355810Y0180135D03*
X0107160Y0142838D03*
X0105540Y0143919D03*
X0053110Y0180135D03*
D322*
X0106620Y0143378D03*
D323*
X0102025Y0163378D03*
X0078785Y0171486D03*
X0027975Y0168243D03*
X0019865Y0151486D03*
X0218785Y0166621D03*
X0218785Y0168243D03*
X0248515Y0163378D03*
X0262565Y0143378D03*
X0311215Y0177432D03*
X0330135Y0171486D03*
X0379865Y0169324D03*
X0242565Y0206621D03*
X0227435Y0220675D03*
D324*
X0307160Y0146621D03*
X0302840Y0143378D03*
D325*
X0318785Y0162838D03*
X0322565Y0166081D03*
X0311755Y0179054D03*
X0281485Y0209865D03*
X0286895Y0216892D03*
X0299865Y0216892D03*
X0261485Y0186081D03*
X0260405Y0183919D03*
X0249055Y0163919D03*
X0249595Y0208784D03*
X0211755Y0229865D03*
X0171215Y0221216D03*
X0158245Y0212027D03*
X0127435Y0209865D03*
X0122565Y0216892D03*
X0102565Y0210946D03*
X0077165Y0190946D03*
X0097705Y0179054D03*
X0083105Y0168784D03*
X0081485Y0169865D03*
X0092295Y0161216D03*
X0120945Y0179054D03*
X0166895Y0143919D03*
X0023105Y0161216D03*
X0022565Y0160135D03*
X0203105Y0263919D03*
X0203105Y0266081D03*
X0203105Y0267162D03*
X0386895Y0159054D03*
X0387435Y0157973D03*
D326*
X0287975Y0179054D03*
X0262025Y0187162D03*
X0219325Y0166081D03*
X0242025Y0143919D03*
X0279325Y0148784D03*
X0147975Y0186081D03*
X0022025Y0159054D03*
D327*
X0105000Y0144459D03*
X0204460Y0196352D03*
D328*
X0138240Y0193648D03*
X0116080Y0216352D03*
X0146890Y0144459D03*
X0270680Y0193648D03*
X0292840Y0216352D03*
X0305810Y0145541D03*
X0304190Y0144459D03*
D329*
X0318245Y0162298D03*
X0260945Y0185541D03*
X0260405Y0184459D03*
X0249055Y0164459D03*
X0241485Y0144459D03*
X0171755Y0156352D03*
X0159865Y0164459D03*
X0148515Y0184459D03*
X0159865Y0204459D03*
X0171215Y0222298D03*
X0211755Y0230405D03*
X0212295Y0227702D03*
X0203105Y0264459D03*
X0203105Y0265541D03*
X0203105Y0267702D03*
X0077705Y0190405D03*
X0088515Y0164459D03*
X0022565Y0159595D03*
X0386895Y0159595D03*
D330*
X0262300Y0144459D03*
X0092570Y0154730D03*
D331*
X0019595Y0145000D03*
X0197435Y0225000D03*
X0196355Y0235811D03*
X0247705Y0205000D03*
X0285545Y0145000D03*
D332*
X0304730Y0145000D03*
X0270680Y0194189D03*
X0104190Y0145000D03*
D333*
X0123375Y0145000D03*
D334*
X0146890Y0145000D03*
D335*
X0262300Y0145000D03*
D336*
X0103380Y0145541D03*
D337*
X0146895Y0145541D03*
D338*
X0262295Y0145541D03*
D339*
X0286625Y0145541D03*
X0209325Y0250405D03*
X0197975Y0250405D03*
D340*
X0102570Y0146081D03*
X0307970Y0147162D03*
D341*
X0146895Y0146081D03*
D342*
X0262295Y0146081D03*
D343*
X0306350Y0146081D03*
D344*
X0167970Y0161756D03*
X0102030Y0146621D03*
D345*
X0154730Y0146621D03*
X0254730Y0146621D03*
D346*
X0300945Y0201756D03*
X0238785Y0208243D03*
X0362025Y0172567D03*
X0389595Y0146621D03*
X0107975Y0201756D03*
X0076625Y0172567D03*
X0099865Y0166621D03*
X0031755Y0171486D03*
D347*
X0082025Y0186081D03*
X0110675Y0173108D03*
X0110675Y0172027D03*
X0110675Y0170946D03*
X0110675Y0153108D03*
X0127975Y0149865D03*
X0159325Y0167162D03*
X0147975Y0176892D03*
X0159325Y0203919D03*
X0179325Y0208784D03*
X0222025Y0183919D03*
X0222025Y0182838D03*
X0170675Y0147162D03*
X0327975Y0187162D03*
D348*
X0100135Y0147702D03*
D349*
X0159595Y0147702D03*
X0108245Y0199595D03*
X0250945Y0214730D03*
X0250945Y0215270D03*
D350*
X0099055Y0148243D03*
D351*
X0130675Y0148243D03*
X0127975Y0209324D03*
X0122025Y0217432D03*
X0319325Y0163378D03*
D352*
X0095270Y0148784D03*
D353*
X0077975Y0172027D03*
X0097975Y0176892D03*
X0126625Y0210946D03*
X0197975Y0250946D03*
X0303375Y0213108D03*
X0389325Y0149865D03*
X0389325Y0148784D03*
D354*
X0314190Y0149324D03*
X0094730Y0149324D03*
D355*
X0094460Y0149865D03*
X0314460Y0149865D03*
D356*
X0094190Y0150405D03*
D357*
X0116625Y0150405D03*
X0142025Y0195270D03*
D358*
X0125270Y0187702D03*
X0165270Y0150405D03*
D359*
X0314730Y0150405D03*
D360*
X0389325Y0150405D03*
X0100675Y0165541D03*
X0097975Y0176352D03*
D361*
X0093920Y0150946D03*
D362*
X0315270Y0150946D03*
D363*
X0306895Y0162838D03*
X0329595Y0170946D03*
X0380405Y0168784D03*
X0389055Y0152027D03*
X0389055Y0150946D03*
X0209595Y0223919D03*
X0180945Y0222838D03*
X0203645Y0248784D03*
X0209055Y0250946D03*
X0097705Y0177973D03*
X0046355Y0172027D03*
X0020405Y0153108D03*
D364*
X0165270Y0151486D03*
D365*
X0315540Y0151486D03*
D366*
X0315810Y0152567D03*
X0274730Y0191486D03*
X0093110Y0152567D03*
D367*
X0185810Y0180675D03*
X0243650Y0152567D03*
X0283650Y0183378D03*
D368*
X0235810Y0228784D03*
X0165540Y0153108D03*
X0125540Y0182838D03*
D369*
X0243650Y0153108D03*
D370*
X0243380Y0153648D03*
X0165540Y0153648D03*
D371*
X0316350Y0153648D03*
D372*
X0266625Y0195811D03*
X0160135Y0205000D03*
X0020675Y0154189D03*
D373*
X0092570Y0154189D03*
D374*
X0165810Y0154189D03*
X0243110Y0154189D03*
D375*
X0207160Y0185000D03*
X0224460Y0194189D03*
X0225000Y0195811D03*
X0255810Y0215811D03*
X0236890Y0234189D03*
X0216350Y0254189D03*
X0216350Y0255811D03*
X0122300Y0155811D03*
X0176350Y0154189D03*
X0345000Y0185000D03*
D376*
X0285810Y0154189D03*
X0244190Y0194189D03*
X0177700Y0165000D03*
D377*
X0110675Y0174189D03*
X0299325Y0154189D03*
D378*
X0316350Y0154189D03*
X0116350Y0215811D03*
D379*
X0166080Y0154730D03*
X0203920Y0245541D03*
D380*
X0316620Y0154730D03*
D381*
X0092570Y0155270D03*
D382*
X0182840Y0214730D03*
X0316890Y0155270D03*
D383*
X0092300Y0155811D03*
D384*
X0160675Y0155811D03*
D385*
X0253650Y0225000D03*
X0293650Y0155811D03*
D386*
X0316890Y0155811D03*
D387*
X0388245Y0155811D03*
X0176895Y0194189D03*
X0142295Y0195811D03*
D388*
X0147975Y0185541D03*
X0207975Y0242298D03*
X0387975Y0156352D03*
D389*
X0300945Y0196892D03*
X0092295Y0156892D03*
D390*
X0092295Y0157432D03*
X0108515Y0198513D03*
D391*
X0215540Y0157432D03*
D392*
X0229325Y0191486D03*
X0120675Y0158513D03*
D393*
X0168785Y0159054D03*
X0240135Y0159054D03*
X0300675Y0193108D03*
X0069865Y0193108D03*
D394*
X0104730Y0159595D03*
X0153380Y0224459D03*
X0176080Y0236352D03*
X0233920Y0196352D03*
X0324730Y0167702D03*
X0385270Y0162298D03*
D395*
X0240405Y0159595D03*
D396*
X0304190Y0159595D03*
X0384190Y0164459D03*
X0203650Y0247702D03*
X0195000Y0230405D03*
X0025810Y0165541D03*
X0023650Y0162298D03*
D397*
X0113650Y0160135D03*
X0196350Y0236892D03*
X0296350Y0162838D03*
D398*
X0306080Y0161756D03*
X0215270Y0192567D03*
X0103920Y0160675D03*
D399*
X0168240Y0160675D03*
X0302840Y0191486D03*
D400*
X0240950Y0160675D03*
D401*
X0240950Y0161756D03*
D402*
X0296350Y0161756D03*
X0325000Y0183378D03*
D403*
X0235270Y0162298D03*
D404*
X0196620Y0195811D03*
X0025270Y0165000D03*
D405*
X0087975Y0165000D03*
D406*
X0100675Y0165000D03*
D407*
X0049865Y0174189D03*
D408*
X0072835Y0174189D03*
X0253915Y0214189D03*
D409*
X0096080Y0174189D03*
D410*
X0313105Y0174189D03*
D411*
X0359055Y0174189D03*
D412*
X0372835Y0174189D03*
X0069595Y0194189D03*
D413*
X0054190Y0174730D03*
X0354730Y0174730D03*
D414*
X0054190Y0175270D03*
D415*
X0355000Y0175270D03*
D416*
X0054190Y0175811D03*
D417*
X0355000Y0175811D03*
D418*
X0053920Y0176352D03*
D419*
X0355270Y0176352D03*
D420*
X0053920Y0176892D03*
D421*
X0355270Y0176892D03*
D422*
X0053650Y0177432D03*
D423*
X0355270Y0177432D03*
D424*
X0053650Y0177973D03*
D425*
X0355270Y0177973D03*
D426*
X0053645Y0178513D03*
D427*
X0355270Y0178513D03*
D428*
X0053645Y0179054D03*
D429*
X0355810Y0179054D03*
D430*
X0355540Y0179595D03*
X0053380Y0179595D03*
D431*
X0125270Y0179595D03*
D432*
X0283650Y0179595D03*
D433*
X0355810Y0180675D03*
X0204460Y0197432D03*
X0053110Y0180675D03*
D434*
X0125810Y0182298D03*
X0174460Y0210405D03*
D435*
X0283380Y0182298D03*
D436*
X0283380Y0182838D03*
D437*
X0125270Y0184459D03*
D438*
X0213920Y0194189D03*
X0285270Y0185000D03*
D439*
X0175270Y0196352D03*
X0123920Y0185541D03*
D440*
X0106625Y0186081D03*
D441*
X0106350Y0187702D03*
D442*
X0127975Y0189324D03*
D443*
X0135270Y0189865D03*
D444*
X0135270Y0190405D03*
D445*
X0273920Y0190405D03*
D446*
X0135000Y0190946D03*
D447*
X0106350Y0191486D03*
D448*
X0106080Y0192027D03*
D449*
X0136350Y0192027D03*
D450*
X0204460Y0196892D03*
X0302840Y0192027D03*
D451*
X0108245Y0192567D03*
D452*
X0300945Y0192567D03*
D453*
X0108245Y0193108D03*
D454*
X0108515Y0196892D03*
X0339325Y0193108D03*
D455*
X0339595Y0193648D03*
X0267705Y0194730D03*
X0141215Y0194730D03*
X0069865Y0193648D03*
D456*
X0108245Y0193648D03*
X0108245Y0194730D03*
X0108245Y0195270D03*
D457*
X0195000Y0193648D03*
D458*
X0195810Y0194730D03*
X0214190Y0193648D03*
X0234730Y0244459D03*
D459*
X0108245Y0195811D03*
X0108245Y0194189D03*
D460*
X0138510Y0194189D03*
D461*
X0195270Y0194189D03*
X0234730Y0245000D03*
D462*
X0300675Y0195811D03*
X0300675Y0194189D03*
D463*
X0339325Y0194189D03*
D464*
X0233650Y0195811D03*
X0175810Y0195811D03*
X0175810Y0235811D03*
D465*
X0108515Y0196352D03*
D466*
X0300675Y0197973D03*
D467*
X0170675Y0198513D03*
D468*
X0300675Y0198513D03*
D469*
X0300675Y0199054D03*
X0229325Y0212027D03*
D470*
X0108245Y0200135D03*
D471*
X0230675Y0211486D03*
D472*
X0225270Y0213648D03*
D473*
X0286895Y0213648D03*
D474*
X0115810Y0214189D03*
D475*
X0181485Y0214189D03*
D476*
X0223650Y0214189D03*
D477*
X0293380Y0214189D03*
D478*
X0293110Y0214730D03*
X0115810Y0214730D03*
D479*
X0116080Y0215270D03*
X0222030Y0214730D03*
D480*
X0220135Y0215270D03*
D481*
X0293110Y0215270D03*
D482*
X0200945Y0215811D03*
D483*
X0292840Y0215811D03*
D484*
X0200135Y0216352D03*
D485*
X0197975Y0216892D03*
D486*
X0196625Y0217432D03*
D487*
X0201760Y0217973D03*
D488*
X0201485Y0218513D03*
D489*
X0201215Y0219054D03*
D490*
X0175540Y0219595D03*
D491*
X0200945Y0219595D03*
D492*
X0200945Y0220135D03*
D493*
X0231485Y0220135D03*
D494*
X0200680Y0220675D03*
D495*
X0209595Y0225000D03*
D496*
X0184460Y0240675D03*
D497*
X0203650Y0245000D03*
D498*
X0235000Y0245541D03*
D499*
X0235000Y0246081D03*
D500*
X0203346Y0251457D03*
X0058346Y0150669D03*
X0350669Y0150079D03*
M02*
