G75*
%MOIN*%
%OFA0B0*%
%FSLAX25Y25*%
%IPPOS*%
%LPD*%
%AMOC8*
5,1,8,0,0,1.08239X$1,22.5*
%
%ADD10C,0.08477*%
%ADD11C,0.08200*%
%ADD12OC8,0.07600*%
%ADD13C,0.06706*%
%ADD14C,0.44170*%
D10*
X0178819Y0160709D03*
X0257559Y0160709D03*
D11*
X0127677Y0100984D03*
X0127677Y0110984D03*
X0111339Y0124016D03*
X0071339Y0124016D03*
X0045197Y0125354D03*
X0045197Y0115354D03*
X0108228Y0187205D03*
X0108228Y0197205D03*
X0183425Y0204291D03*
X0203819Y0213307D03*
X0203819Y0223307D03*
X0223425Y0204291D03*
X0300433Y0197205D03*
X0300433Y0187205D03*
X0364803Y0124370D03*
X0364803Y0114370D03*
X0340197Y0122874D03*
X0300197Y0122874D03*
X0217524Y0044924D03*
X0217524Y0027124D03*
X0191924Y0027124D03*
X0191924Y0044924D03*
X0341181Y0272205D03*
X0341181Y0282205D03*
X0341181Y0292205D03*
X0381181Y0292205D03*
X0381181Y0282205D03*
X0381181Y0272205D03*
D12*
X0219606Y0187598D03*
X0219606Y0177598D03*
X0219606Y0167598D03*
X0219606Y0157598D03*
X0189606Y0157598D03*
X0189606Y0167598D03*
X0189606Y0177598D03*
X0189606Y0187598D03*
D13*
X0057795Y0268150D03*
X0042126Y0263819D03*
X0029567Y0261260D03*
X0040236Y0248819D03*
X0027126Y0240591D03*
X0034567Y0228150D03*
X0049606Y0236575D03*
X0052795Y0251260D03*
D14*
X0057953Y0149882D03*
X0203346Y0251457D03*
X0350669Y0150079D03*
M02*
