%
M48
M72
T01C0.0320
T02C0.0354
T03C0.0400
T04C0.0512
T05C0.3937
%
T01
X12791Y10346
X12791Y11346
X18961Y15760
X18961Y16760
X18961Y17760
X18961Y18760
X21961Y18760
X21961Y17760
X21961Y16760
X21961Y15760
X30043Y18720
X30043Y19720
X20862Y22386
X19862Y22386
X10780Y19937
X10780Y18937
X4457Y12598
X4457Y11598
X36480Y11437
X36480Y12437
T02
X34020Y12287
X30020Y12287
X22362Y20669
X18362Y20669
X11134Y12402
X7134Y12402
T03
X19192Y4492
X19192Y2712
X21752Y2712
X21752Y4492
T04
X20496Y6354
X20496Y14228
T05
X20335Y25146
X5835Y15067
X35067Y15008
M30
