%
M48
M72
T01C0.0320
T02C0.0354
T03C0.0394
T04C0.0512
T05C0.1260
%
T01
X12866Y10354
X12866Y11354
X18843Y16134
X18843Y17134
X18843Y18134
X18843Y19134
X21843Y19134
X21843Y18134
X21843Y17134
X21843Y16134
X20343Y22343
X20343Y23343
X10823Y20016
X10823Y19016
X4441Y12732
X4441Y11732
X30150Y18878
X30150Y19878
X36382Y12693
X36382Y11693
T02
X35343Y12843
X31343Y12843
X22343Y20843
X18343Y20843
X10657Y12657
X6657Y12657
X33843Y25843
X33843Y26843
X33843Y27843
X37843Y27843
X37843Y26843
X37843Y25843
T03
X2004Y2437
X4437Y1681
X5681Y5437
X16248Y1681
X27504Y16248
X16248Y19004
X3937Y25004
X2681Y24748
T04
X17606Y14693
X25480Y14693
T05
X32390Y20402
X20354Y25539
X8394Y20264
M30
